<svg width="303" height="303" viewBox="0 0 303 303" fill="none" xmlns="http://www.w3.org/2000/svg">
<rect x="32.9568" y="62.5355" width="240.043" height="240.043" rx="7.37008" fill="#3E3016"/>
<rect x="29" y="58.5781" width="240.043" height="240.043" rx="7.37008" fill="#F6CD45"/>
<path d="M170.784 59.2378H135.089L29.6594 123.535V151.562L170.784 59.2378Z" fill="#F8DE4D" stroke="#F8DE4D" stroke-width="0.526434"/>
<path d="M261.789 59.2378H203.077L29.6594 166.247V212.892L261.789 59.2378Z" fill="#F8DE4D" stroke="#F8DE4D" stroke-width="0.526434"/>
<path d="M268.054 233.665V203.33L160.562 298.621H192.546L268.054 233.665Z" fill="#E2BB40" stroke="#E3BB40" stroke-width="0.526434"/>
<circle cx="48.4541" cy="78.6919" r="9.56216" fill="#3F3016"/>
<circle cx="250.249" cy="78.6919" r="9.56216" fill="#3F3016"/>
<circle cx="250.249" cy="279.168" r="9.56216" fill="#3F3016"/>
<circle cx="48.4541" cy="279.168" r="9.56216" fill="#3F3016"/>
<g clip-path="url(#clip0_93_1760)">
<path d="M123.496 177.933C123.019 173.853 120.946 169.822 117.688 166.531C116.816 165.659 115.845 164.836 114.693 164.03C113.229 163.026 111.698 162.171 110.218 161.348C109.856 161.15 109.477 160.953 109.115 160.739C107.7 159.949 106.828 158.896 106.499 157.58C106.203 156.346 106.203 154.7 106.795 153.944C107.338 153.252 108.49 153.252 110.053 153.318C110.399 153.318 110.744 153.351 111.057 153.351C111.55 153.351 112.011 153.071 112.241 152.627C112.472 152.183 112.406 151.656 112.126 151.262L109.395 147.625C109.148 147.296 108.753 147.099 108.342 147.099L75.2857 147.066C74.8744 147.066 74.4795 147.263 74.2327 147.592L71.5013 151.212C71.2051 151.607 71.1558 152.15 71.3697 152.594C71.5836 153.039 72.0443 153.318 72.5379 153.318C72.8505 153.318 73.1961 153.318 73.5581 153.285C75.1212 153.22 76.2565 153.236 76.816 153.927C77.4248 154.7 77.4247 156.346 77.1121 157.563C76.783 158.863 75.911 159.933 74.4959 160.723C74.134 160.92 73.772 161.117 73.41 161.331C71.9127 162.138 70.366 162.993 68.918 163.997C67.7663 164.787 66.7955 165.609 65.9234 166.481C62.6491 169.756 60.5759 173.804 60.0987 177.884C59.5228 182.738 61.6948 187.164 63.916 190.85C64.2287 191.376 64.5413 191.886 64.8704 192.396L65.0678 192.709C65.183 192.907 65.2982 193.088 65.4298 193.269L67.3549 196.132C67.8485 196.856 68.3586 197.547 68.8851 198.287C69.4446 199.06 70.0369 199.883 70.7115 200.854L70.7773 200.936C70.909 201.117 71.0406 201.315 71.1887 201.512L72.9328 203.832C73.3113 204.326 73.6897 204.819 74.0681 205.296C75.3351 206.925 76.5362 208.472 77.2602 209.591C77.2602 209.624 77.2931 209.657 77.326 209.673C77.326 209.69 78.4284 211.203 78.3791 212.882C78.3791 213.244 78.4943 213.573 78.7411 213.836C78.9879 214.083 79.3334 214.231 79.6954 214.231H103.899C104.261 214.247 104.59 214.099 104.837 213.852C105.084 213.589 105.216 213.26 105.199 212.898C105.166 211.22 106.252 209.723 106.269 209.706C106.285 209.673 106.318 209.657 106.334 209.624C107.042 208.505 108.259 206.958 109.543 205.329C109.921 204.852 110.3 204.359 110.678 203.865L112.422 201.545C112.587 201.331 112.719 201.134 112.883 200.903C113.558 199.949 114.15 199.126 114.709 198.353C115.236 197.612 115.746 196.921 116.256 196.181L118.165 193.334C118.296 193.153 118.412 192.972 118.527 192.775L118.741 192.446C119.053 191.936 119.382 191.426 119.679 190.916C121.9 187.23 124.088 182.82 123.512 177.95L123.496 177.933ZM119.349 173.195C118.362 175.07 117.161 177.242 116.042 179.003C115.401 178.114 114.759 177.242 114.101 176.354C114.347 175.959 114.594 175.564 114.841 175.169C115.795 173.672 116.75 172.142 117.622 170.496C118.296 171.368 118.872 172.257 119.349 173.195V173.195ZM115.746 168.407C114.825 170.282 113.739 171.994 112.62 173.771C112.538 173.902 112.455 174.017 112.389 174.149C111.682 173.261 110.958 172.388 110.201 171.533C111.32 169.887 112.389 168.045 113.36 166.268C114.216 166.926 115.088 167.699 115.746 168.407V168.407ZM107.848 163.043C108.227 163.24 108.589 163.454 108.967 163.668C109.658 164.046 110.514 164.507 111.155 164.885C110.399 166.449 109.428 167.946 108.49 169.46C106.812 167.633 104.854 165.906 102.994 164.129C103.8 163.47 104.837 162.615 106.055 161.743C106.581 162.236 107.157 162.681 107.848 163.043V163.043ZM91.4435 169.97C88.3008 172.899 85.2898 176.041 82.4268 179.332C81.7357 178.476 81.0611 177.621 80.4029 176.732C82.6078 174.215 84.8949 171.78 87.2149 169.509C93.2041 163.684 98.5681 159.291 103.702 155.671C103.652 156.626 103.784 157.399 103.981 158.222C104.097 158.699 104.278 159.176 104.508 159.62C102.994 160.575 101.678 161.479 100.773 162.171C97.8935 164.392 94.5533 167.057 91.46 169.953L91.4435 169.97ZM91.6903 173.376C94.3394 175.86 96.9392 178.542 99.3744 181.274C97.005 184.071 94.4053 186.671 91.6903 189.122C89.2552 186.983 86.7542 184.35 84.0722 181.274C86.4909 178.476 89.0577 175.926 91.6903 173.359V173.376ZM107.749 149.715L107.799 149.764C100.822 153.894 93.6155 159.604 85.3556 167.633C83.1014 169.822 80.8965 172.142 78.774 174.577C78.1323 173.655 77.4741 172.734 76.8653 171.78C79.1853 169.163 81.6041 166.646 84.0886 164.293C86.9351 161.578 89.9462 158.962 93.0231 156.543C96.1 154.125 99.2921 151.837 102.583 149.715H107.766H107.749ZM82.4103 162.269C81.2914 161.447 80.1561 160.657 79.0208 159.867C79.3005 159.34 79.5309 158.797 79.6789 158.222C79.8599 157.481 79.9751 156.642 79.9751 155.786C81.5712 156.971 83.2824 158.287 85.1581 159.752C84.2367 160.591 83.3153 161.43 82.4268 162.269H82.4103ZM97.8441 149.715C95.7874 151.146 93.7635 152.627 91.8055 154.157C89.6994 152.463 87.7085 150.982 85.8985 149.698H97.8441V149.715ZM75.8945 149.781L75.9439 149.715H81.1927C83.595 151.278 86.5073 153.318 89.6994 155.852C88.8438 156.56 87.9882 157.267 87.149 157.991C82.6736 154.487 79.1031 151.805 75.8945 149.764V149.781ZM74.6769 163.635C75.0389 163.437 75.4174 163.224 75.7794 163.026C76.3552 162.697 76.8818 162.335 77.3425 161.924C78.412 162.648 79.465 163.372 80.5016 164.129C78.7411 165.873 77.0134 167.699 75.3351 169.575C74.282 167.913 73.3442 166.35 72.505 164.853C73.1961 164.441 73.9201 164.046 74.6769 163.635V163.635ZM70.2837 166.251C71.2381 167.962 72.324 169.739 73.5581 171.664C76.1249 175.679 78.4284 178.822 80.7485 181.57C83.957 185.338 86.8035 188.316 89.6336 190.833C88.8274 191.524 87.9553 192.232 87.1326 192.89C86.5238 192.314 85.9479 191.705 85.3556 191.13C77.2767 183.314 71.9291 175.762 67.7663 168.357C68.4902 167.633 69.3294 166.926 70.2837 166.251V166.251ZM65.9563 170.43C70.185 177.769 75.5819 185.223 83.4798 192.923C84.0063 193.433 84.5164 193.96 85.0265 194.47C84.1709 195.095 83.2988 195.704 82.3939 196.313C80.0738 194.19 77.8526 191.936 75.7958 189.632C74.825 188.53 73.953 187.493 73.1467 186.506C71.3861 184.334 69.7078 182.063 68.1612 179.727C66.7626 177.604 65.4463 175.432 64.2287 173.211C64.7058 172.24 65.2817 171.319 65.9399 170.414L65.9563 170.43ZM63.7021 184.63C62.8959 182.573 62.4352 180.402 62.6984 178.18C62.7643 177.604 62.8794 177.028 63.0275 176.453C63.9654 178.065 64.9362 179.645 65.9728 181.191C65.9728 181.208 66.0057 181.224 66.0057 181.257C65.2159 182.376 64.4426 183.511 63.7021 184.647V184.63ZM66.779 190.488C66.5816 190.159 66.3677 189.83 66.1702 189.501C65.7753 188.842 65.3804 188.168 65.002 187.46C65.8412 186.144 66.6803 184.861 67.5853 183.577C68.2105 184.466 68.8851 185.371 69.5927 186.292C68.5561 187.773 67.6182 189.172 66.779 190.504V190.488ZM70.2837 195.72C70.0205 195.358 69.7737 195.013 69.5268 194.651L68.3586 192.907C69.2307 191.508 70.2015 190.011 71.3039 188.415C71.6494 188.842 71.9949 189.237 72.3405 189.649C72.4721 189.797 72.5873 189.945 72.7189 190.093C72.9493 190.373 73.1796 190.652 73.41 190.916C72.324 192.495 71.271 194.091 70.2673 195.72H70.2837ZM73.2783 199.932C73.1467 199.751 73.0315 199.587 72.8999 199.406L72.8505 199.34C72.5215 198.879 72.2253 198.452 71.9291 198.04C72.9822 196.313 74.0681 194.618 75.2199 192.923C76.8324 194.651 78.5107 196.313 80.2713 197.925C78.3791 199.159 76.4046 200.327 74.4137 201.446L73.2783 199.932ZM78.05 206.201C77.4577 205.412 76.7995 204.556 76.1084 203.684L76.0097 203.569C78.1816 202.368 80.2877 201.101 82.3445 199.735C85.7176 197.497 88.959 195.029 91.9865 192.38C95.195 189.583 98.2226 186.522 101.02 183.281C101.793 184.186 102.534 185.124 103.274 186.062C102.27 187.148 101.168 188.184 100.098 189.254C92.3485 197.004 84.8784 202.318 78.05 206.201V206.201ZM79.5638 208.357C86.5238 204.391 94.1091 198.929 101.892 191.179C102.896 190.175 103.932 189.204 104.886 188.184C105.479 188.974 106.071 189.764 106.647 190.587C104.738 192.742 102.731 194.815 100.658 196.757C100.575 196.806 100.51 196.856 100.444 196.921C99.144 198.106 97.729 199.373 96.2646 200.623C94.3888 202.17 92.4308 203.667 90.4398 205.05C87.33 207.222 84.0557 209.18 80.6991 210.94C80.37 209.739 79.827 208.801 79.5473 208.373L79.5638 208.357ZM84.9607 211.598C87.2478 210.282 89.4855 208.883 91.6739 207.386C93.9281 208.867 96.2646 210.249 98.8643 211.615H84.9607V211.598ZM104.113 208.159C103.949 208.39 103.29 209.361 102.896 210.693C99.5553 209.081 96.6924 207.501 94.0104 205.774C94.9811 205.066 95.8697 204.391 96.8075 203.618C99.5224 205.28 102.023 206.695 104.278 207.896C104.212 208.011 104.179 208.044 104.113 208.159V208.159ZM107.437 203.684C106.894 204.375 106.334 205.115 105.841 205.757C103.751 204.655 101.431 203.355 98.9301 201.841C99.7857 201.117 100.691 200.294 101.53 199.538C103.57 200.821 105.676 202.039 107.832 203.174C107.7 203.338 107.568 203.519 107.437 203.684ZM110.695 199.373C110.563 199.57 110.415 199.751 110.283 199.949L109.395 201.265C107.371 200.196 105.347 199.126 103.406 197.925C105.067 196.313 106.91 194.651 108.457 192.923C109.658 194.634 110.645 196.115 111.748 197.892C111.419 198.353 111.057 198.846 110.695 199.389V199.373ZM114.051 194.667C113.837 194.98 113.623 195.276 113.393 195.589C112.324 193.877 111.205 192.183 110.053 190.537C107.749 187.263 105.265 184.054 102.665 181.027C99.8186 177.72 96.7746 174.544 93.6155 171.566C94.4546 170.792 95.2773 170.085 96.1823 169.312C97.548 170.611 98.9136 172.01 99.9996 173.129C106.631 179.974 111.32 185.815 115.483 192.528L114.068 194.667H114.051ZM117.408 189.533C117.326 189.698 117.145 189.945 117.046 190.093C112.817 183.429 108.276 177.901 101.875 171.302C100.839 170.233 99.5389 168.9 98.2061 167.617C99.0453 166.942 99.9502 166.185 100.822 165.494C103.373 167.913 105.775 170.398 107.98 172.882C110.399 175.597 112.455 178.46 114.66 181.504L115.236 182.31C116.174 183.594 117.408 185.486 118.626 187.427C118.247 188.168 117.836 188.859 117.424 189.533H117.408ZM119.925 184.696C119.07 183.363 118.428 182.261 117.721 181.274C118.609 179.743 119.596 178.049 120.518 176.337C120.715 177.045 120.797 177.506 120.88 178.23C121.127 180.418 120.682 182.672 119.909 184.696H119.925Z" fill="#73623F"/>
<path d="M152.751 166.383V147.74H149.411V160.311L141.447 147.74H138.239V166.383H141.562V153.845L149.51 166.383H152.751Z" fill="#73623F"/>
<path d="M169.106 166.399V152.644H165.783V154.273L165.635 154.125C164.384 152.874 162.969 152.265 161.324 152.265C157.638 152.265 154.857 155.392 154.857 159.521C154.857 163.651 157.737 166.761 161.406 166.761C163.051 166.761 164.368 166.202 165.651 164.951L165.799 164.82V166.399H169.123H169.106ZM162.031 163.734C159.81 163.734 158.197 161.957 158.197 159.505C158.197 157.053 159.777 155.309 162.031 155.309C164.285 155.309 165.931 157.02 165.931 159.489C165.931 161.957 164.318 163.734 162.031 163.734" fill="#73623F"/>
<path d="M178.452 152.627H176.379V147.494H173.055V152.627H171.278V155.457H173.055V166.383H176.379V155.457H178.452V152.627Z" fill="#73623F"/>
<path d="M183.8 152.644H180.476V166.399H183.8V152.644Z" fill="#73623F"/>
<path d="M182.138 147C181.019 147 180.098 147.872 180.098 148.942C180.098 150.159 181.019 151.163 182.138 151.163C183.257 151.163 184.178 150.241 184.178 149.123C184.178 148.004 183.257 147 182.138 147" fill="#73623F"/>
<path d="M193.014 152.265C189.081 152.265 185.889 155.523 185.889 159.521C185.889 163.52 189.032 166.745 193.03 166.745C197.029 166.745 200.319 163.553 200.319 159.489C200.319 155.424 197.111 152.265 192.997 152.265M193.047 163.619C190.793 163.619 189.213 161.924 189.213 159.505C189.213 157.086 190.826 155.408 193.047 155.408C195.268 155.408 196.963 157.103 196.963 159.521C196.963 161.94 195.35 163.602 193.047 163.602" fill="#73623F"/>
<path d="M208.464 155.309C210.718 155.309 210.899 157.3 210.899 159.9V166.399H214.223V156.955C214.223 154.19 212.282 152.265 209.534 152.265C208.152 152.265 206.934 152.792 205.486 154.026L205.354 154.141V152.627H202.031V166.383H205.354V160.394C205.354 158.995 205.354 157.777 206.045 156.675C206.621 155.786 207.477 155.293 208.481 155.293" fill="#73623F"/>
<path d="M230.052 166.399V152.644H226.728V154.273L226.58 154.125C225.33 152.874 223.915 152.265 222.253 152.265C218.567 152.265 215.786 155.392 215.786 159.521C215.786 163.651 218.666 166.761 222.335 166.761C223.98 166.761 225.297 166.202 226.564 164.951L226.712 164.82V166.399H230.035H230.052ZM222.977 163.734C220.755 163.734 219.143 161.957 219.143 159.505C219.143 157.053 220.722 155.309 222.977 155.309C225.231 155.309 226.893 157.02 226.893 159.489C226.893 161.957 225.28 163.734 222.977 163.734Z" fill="#73623F"/>
<path d="M235.926 147.263H232.602V166.399H235.926V147.263Z" fill="#73623F"/>
<path d="M152.175 190.109V171.615H148.736V178.641H141.661V171.615H138.222V190.109H141.661V181.948H148.736V190.109H152.175Z" fill="#73623F"/>
<path d="M168.037 183.906C168.037 183.791 168.053 183.676 168.053 183.511C168.053 179.151 165.075 176.107 160.814 176.107C156.206 176.107 153.722 179.793 153.722 183.281C153.722 187.444 156.716 190.471 160.863 190.471C163.709 190.471 165.635 189.566 167.082 187.559L164.318 186.243C163.331 187.197 162.327 187.575 160.863 187.575C158.757 187.575 157.243 186.325 156.914 184.318V184.219H168.037C168.037 184.104 168.037 184.005 168.037 183.906ZM157.029 181.652L157.078 181.537C157.753 179.809 159.069 178.888 160.863 178.888C162.772 178.888 164.252 179.908 164.73 181.537L164.762 181.636H157.029V181.652Z" fill="#73623F"/>
<path d="M183.882 176.485H180.591V190.109H183.882V176.485Z" fill="#73623F"/>
<path d="M182.237 170.875C181.101 170.875 180.196 171.747 180.196 172.816C180.196 174.034 181.101 175.038 182.237 175.038C183.372 175.038 184.277 174.116 184.277 172.997C184.277 171.878 183.355 170.875 182.237 170.875" fill="#73623F"/>
<path d="M193.129 176.485H191.072V171.385H187.782V176.485H186.021V179.283H187.782V190.109H191.072V179.283H193.129V176.485Z" fill="#73623F"/>
<path d="M207.855 190.109V176.486H204.647V178.098L204.515 177.966C203.298 176.732 201.932 176.124 200.336 176.124C196.765 176.124 194.083 179.217 194.083 183.314C194.083 187.411 196.864 190.471 200.402 190.471C201.998 190.471 203.265 189.928 204.499 188.678L204.63 188.546V190.109H207.839H207.855ZM201.142 187.46C199.003 187.46 197.44 185.7 197.44 183.281C197.44 180.862 198.954 179.118 201.142 179.118C203.331 179.118 204.91 180.813 204.91 183.248C204.91 185.683 203.363 187.46 201.142 187.46Z" fill="#73623F"/>
<path d="M216.477 195.49C218.534 195.49 220.114 194.996 221.315 193.976C222.746 192.726 223.322 191.047 223.322 188.217V176.486H220.114V178.098L219.982 177.966C218.649 176.683 217.366 176.124 215.786 176.124C212.249 176.124 209.583 179.118 209.583 183.1C209.583 187.082 212.331 190.109 215.951 190.109C217.596 190.109 218.781 189.599 219.966 188.415L220.097 188.283V188.48C220.097 189.682 220.097 190.718 219.242 191.541C218.6 192.133 217.563 192.479 216.329 192.479C214.881 192.479 213.878 192.1 213.187 191.278H209.6C210.537 194.058 212.825 195.473 216.461 195.473M216.625 187.082C214.437 187.082 212.857 185.404 212.857 183.116C212.857 180.829 214.421 179.118 216.576 179.118C218.732 179.118 220.328 180.78 220.328 183.149C220.328 185.519 218.797 187.098 216.625 187.098" fill="#73623F"/>
<path d="M239.299 183.906C239.299 183.791 239.315 183.676 239.315 183.511C239.315 179.151 236.337 176.107 232.076 176.107C227.469 176.107 224.984 179.793 224.984 183.281C224.984 187.444 227.979 190.471 232.125 190.471C234.972 190.471 236.88 189.566 238.345 187.559L235.58 186.243C234.577 187.197 233.589 187.575 232.125 187.575C230.019 187.575 228.505 186.325 228.176 184.318V184.219H239.299C239.299 184.104 239.299 184.005 239.299 183.906ZM228.291 181.652L228.341 181.537C229.015 179.809 230.332 178.888 232.125 178.888C234.034 178.888 235.515 179.908 235.992 181.537L236.025 181.636H228.291V181.652Z" fill="#73623F"/>
<path d="M159.612 199.751C155.68 199.751 152.488 203.009 152.488 207.008C152.488 211.006 155.631 214.247 159.629 214.247C163.627 214.247 166.918 211.055 166.918 206.991C166.918 202.927 163.709 199.751 159.596 199.751M159.645 211.105C157.391 211.105 155.811 209.41 155.811 206.991C155.811 204.572 157.424 202.894 159.645 202.894C161.867 202.894 163.561 204.589 163.561 207.008C163.561 209.426 161.949 211.105 159.645 211.105Z" fill="#73623F"/>
<path d="M182.418 213.885V200.13H179.094V201.759L178.946 201.611C177.695 200.36 176.28 199.751 174.618 199.751C170.933 199.751 168.152 202.878 168.152 207.008C168.152 211.138 171.031 214.247 174.701 214.247C176.346 214.247 177.662 213.688 178.929 212.437L179.077 212.306V213.885H182.401H182.418ZM175.342 211.22C173.121 211.22 171.509 209.443 171.509 207.008C171.509 204.572 173.088 202.812 175.342 202.812C177.597 202.812 179.242 204.54 179.242 206.991C179.242 209.443 177.629 211.236 175.342 211.236" fill="#73623F"/>
<path d="M208.908 213.885V194.749H205.585V201.759L205.453 201.611C204.203 200.36 202.788 199.751 201.142 199.751C197.457 199.751 194.676 202.878 194.676 207.008C194.676 211.138 197.555 214.247 201.224 214.247C202.87 214.247 204.186 213.688 205.47 212.437L205.601 212.306V213.885H208.925H208.908ZM201.833 211.22C199.612 211.22 197.999 209.443 197.999 207.008C197.999 204.572 199.579 202.812 201.833 202.812C204.087 202.812 205.733 204.54 205.733 206.991C205.733 209.443 204.12 211.236 201.833 211.236" fill="#73623F"/>
<path d="M147.914 204.227L147.634 204.161L147.897 204.079C149.493 203.536 150.579 201.94 150.579 200.113C150.579 197.086 148.358 195.128 144.919 195.128H138.222V213.803H145.429C148.851 213.803 151.171 211.714 151.171 208.62C151.171 206.481 149.855 204.721 147.914 204.227V204.227ZM141.694 198.04H144.36C146.137 198.04 147.14 198.929 147.14 200.459C147.14 201.989 146.087 202.911 144.376 202.911H141.694V198.04V198.04ZM144.738 210.907H141.694V205.774H144.804C146.597 205.774 147.683 206.744 147.683 208.373C147.683 210.002 146.564 210.891 144.754 210.891L144.738 210.907Z" fill="#73623F"/>
<path d="M172.841 190.109H169.567V176.485H172.841V178.707C173.862 177.16 174.783 176.255 177.07 176.255C177.613 176.255 178.222 176.403 178.683 176.551L178.617 179.48C177.959 179.135 177.317 179.085 176.741 179.102C174.75 179.184 172.841 180.286 172.841 185.255V190.109V190.109Z" fill="#73623F"/>
<path d="M188.341 213.885H185.05V200.13H188.341V202.351C189.411 200.689 190.398 199.949 192.323 199.9C192.915 199.883 194.199 200.13 194.956 200.689L193.508 203.24C193.08 202.878 192.29 202.779 191.632 202.878C189.411 203.24 188.341 205.181 188.341 208.933V213.902V213.885Z" fill="#73623F"/>
</g>
<g clip-path="url(#clip1_93_1760)">
<path d="M211.625 57H208.289C208.288 55.8836 208.286 54.7672 208.284 53.6507C208.289 52.5356 208.293 51.4205 208.297 50.3054C208.919 50.2954 209.541 50.2761 210.162 50.2769C212.874 50.2802 215.586 50.2893 218.298 50.2963L218.3 50.2981C218.315 51.4188 218.33 52.5396 218.345 53.6603C218.329 54.7736 218.313 55.8868 218.297 57H214.961V53.6577H211.625V57V57Z" fill="#030302"/>
<path d="M251.645 43.607H255.015C255.015 43.7774 255.015 43.927 255.015 44.0766C255.015 48.251 255.015 52.4255 255.014 56.5999C255.014 56.7333 255 56.8666 254.992 57H251.656C251.655 55.8835 251.653 54.7671 251.651 53.6506C251.655 50.297 251.66 46.9434 251.664 43.5898L251.645 43.607V43.607Z" fill="#030302"/>
<path d="M265 20.1433C263.885 20.1416 262.771 20.1399 261.656 20.1383L261.67 20.1515C261.675 19.8625 261.684 19.5736 261.684 19.2846C261.68 15.1011 261.675 10.9175 261.671 6.73401L261.654 6.74636C262.769 6.74441 263.885 6.74246 265 6.74051V20.1433V20.1433Z" fill="#030302"/>
<path d="M241.694 56.9994H238.313C238.315 55.8817 238.318 54.7639 238.321 53.6461C238.89 53.6363 239.458 53.6265 240.027 53.6167C240.583 53.6306 241.139 53.6444 241.695 53.6583L241.691 53.645C241.692 54.7632 241.693 55.8813 241.694 56.9994V56.9994Z" fill="white"/>
<path d="M201.618 57.0005C201.62 55.881 201.623 54.7616 201.625 53.6421L201.609 53.6588C202.729 53.6549 203.85 53.6511 204.97 53.6472C204.965 54.7649 204.959 55.8827 204.954 57.0005H201.618V57.0005Z" fill="#030302"/>
<path d="M204.954 57.0008C204.959 55.883 204.965 54.7652 204.97 53.6475C206.075 53.6488 207.18 53.6501 208.284 53.6515C208.286 54.7679 208.288 55.8843 208.289 57.0008H204.954V57.0008Z" fill="white"/>
<path d="M218.297 56.9999C218.313 55.8867 218.329 54.7734 218.345 53.6602C219.449 53.6584 220.552 53.6566 221.656 53.6548C221.648 54.7698 221.641 55.8849 221.633 56.9999H218.297Z" fill="white"/>
<path d="M221.633 57.0006C221.641 55.8856 221.648 54.7705 221.656 53.6555C222.762 53.6528 223.868 53.6501 224.974 53.6475C224.973 54.7652 224.971 55.8829 224.969 57.0006H221.633V57.0006Z" fill="#030302"/>
<path d="M238.329 53.6467C238.324 54.7645 238.318 55.8823 238.313 57H234.977C234.975 55.8819 234.973 54.7638 234.972 53.6456C236.091 53.646 237.21 53.6463 238.329 53.6467V53.6467Z" fill="#030302"/>
<path d="M244.985 57C244.983 55.8819 244.981 54.7638 244.979 53.6456C246.099 53.646 247.218 53.6463 248.337 53.6467C248.331 54.7645 248.326 55.8823 248.32 57H244.985V57Z" fill="#030302"/>
<path d="M248.321 57.0008C248.326 55.883 248.332 54.7652 248.337 53.6475C249.442 53.6488 250.547 53.6501 251.651 53.6515C251.653 54.7679 251.655 55.8843 251.656 57.0008H248.321V57.0008Z" fill="white"/>
<path d="M201.599 10.1028C201.775 10.0907 201.952 10.0681 202.128 10.0681C207.366 10.0662 212.604 10.0662 217.842 10.0678C217.996 10.0679 218.15 10.0877 218.304 10.0983L218.288 10.0829C218.286 11.201 218.284 12.3192 218.283 13.4373C217.177 13.4421 216.071 13.4469 214.966 13.4517C214.723 13.4414 214.48 13.4223 214.237 13.4222C211 13.4202 207.764 13.4223 204.527 13.4199C203.574 13.4192 202.621 13.4073 201.668 13.4005L201.643 13.43C201.637 12.3138 201.632 11.1976 201.626 10.0813L201.599 10.1028V10.1028Z" fill="#030302"/>
<path d="M191.613 20.1505C191.619 18.6822 191.629 17.214 191.631 15.7458C191.634 12.9867 191.631 10.2277 191.631 7.46871C191.631 7.24931 191.631 7.02993 191.631 6.71228C192.762 6.73008 193.856 6.68372 194.953 6.74767L194.936 6.73231C194.947 6.97527 194.967 7.21823 194.967 7.46119C194.97 10.3244 194.968 13.1876 194.97 16.0508C194.97 16.294 194.99 16.5372 195 16.7803C194.99 17.1583 194.978 17.5363 194.969 17.9143C194.95 18.6695 194.932 19.4247 194.914 20.1799L194.93 20.1636C193.82 20.1543 192.711 20.1449 191.601 20.1355L191.613 20.1505Z" fill="#030302"/>
<path d="M224.95 6.75187H228.3C228.309 6.85878 228.327 6.96305 228.327 7.06731C228.328 11.3196 228.328 15.5719 228.327 19.8242C228.327 19.9342 228.307 20.0443 228.297 20.1543L228.312 20.134C227.219 20.1243 226.127 20.1146 224.959 20.1042V16.788C224.969 16.7223 224.987 16.6567 224.987 16.5911C224.985 13.3042 224.981 10.0173 224.978 6.73035L224.95 6.75187V6.75187Z" fill="#030302"/>
<path d="M251.661 20.1507C251.662 16.7954 251.664 13.44 251.665 10.0847L251.648 10.0998H255.016C255.016 10.2762 255.016 10.4255 255.016 10.5749C255.016 13.5828 255.017 16.5907 255.014 19.5985C255.014 19.776 254.993 19.9534 254.981 20.1308C253.87 20.1328 252.759 20.1348 251.648 20.1368L251.661 20.1507Z" fill="#040404"/>
<path d="M231.631 23.499C232.072 23.4892 232.513 23.4714 232.955 23.471C235.83 23.4684 238.705 23.4697 241.639 23.4697V26.8552L241.656 26.8362C240.543 26.8424 239.43 26.8486 238.317 26.8549C237.203 26.8525 236.089 26.8501 234.975 26.8477C233.862 26.8491 232.75 26.8505 231.637 26.8519C231.64 25.7303 231.644 24.6088 231.647 23.4872L231.631 23.499V23.499Z" fill="#030302"/>
<path d="M191.632 33.547H185V30.2474C185.542 30.1067 186.095 30.1971 186.64 30.1827C187.195 30.1679 187.751 30.1861 188.307 30.1898C189.405 30.191 190.504 30.1921 191.603 30.1932C192.698 30.1868 193.793 30.1819 194.95 30.1956V33.5367C193.844 33.5402 192.738 33.5436 191.632 33.547Z" fill="#9C989A"/>
<path d="M198.288 46.9397H194.955V36.8904L194.937 36.9055C196.056 36.901 197.174 36.8964 198.293 36.8919C198.306 38.0129 198.32 39.1338 198.333 40.2548C198.324 41.2059 198.314 42.157 198.305 43.1081C198.294 44.3913 198.284 45.6744 198.273 46.9576L198.288 46.9397V46.9397Z" fill="#040404"/>
<path d="M251.665 10.0847H248.378V3.37293C249.464 3.36969 250.561 3.33829 251.66 3.39644L251.648 3.38329C251.658 4.33619 251.679 5.28911 251.678 6.24199C251.676 7.52792 251.658 8.81386 251.648 10.0998L251.665 10.0847Z" fill="#040404"/>
<path d="M248.326 26.8512V20.1283C249.464 20.1225 250.562 20.0916 251.661 20.1509L251.648 20.137C251.658 21.3966 251.677 22.6562 251.677 23.9158C251.678 24.8881 251.656 25.8604 251.644 26.8327C250.533 26.8346 249.423 26.8365 248.312 26.8384L248.326 26.8512V26.8512Z" fill="#040404"/>
<path d="M251.66 3.39584V0.137292C252.157 -0.0123945 257.358 -0.0511197 258.321 0.0784929V3.39802L258.335 3.38233C257.22 3.38686 256.106 3.39139 254.991 3.39591C253.877 3.3915 252.762 3.38709 251.648 3.38269L251.66 3.39584V3.39584Z" fill="#040404"/>
<path d="M241.639 26.8563C242.654 26.8446 243.669 26.8238 244.683 26.8237C245.898 26.8236 247.112 26.8412 248.326 26.8511L248.312 26.8384C248.322 27.3944 248.338 27.9503 248.342 28.5064C248.347 29.0518 248.34 29.5973 248.338 30.2066H244.989C244.747 30.1963 244.505 30.1802 244.263 30.1768C243.403 30.1647 242.543 30.1569 241.682 30.1474C241.673 29.044 241.665 27.9406 241.656 26.8372L241.639 26.8563Z" fill="#030302"/>
<path d="M201.625 53.6419H198.288V46.9393L198.273 46.9572C199.391 46.9492 200.509 46.9412 201.627 46.9333C201.632 47.8881 201.643 48.8428 201.64 49.7974C201.635 51.0845 201.62 52.3716 201.609 53.6587L201.625 53.6419V53.6419Z" fill="#040404"/>
<path d="M194.953 6.74829V3.39417H198.305C198.305 3.95076 198.31 4.51975 198.304 5.08864C198.298 5.64476 198.28 6.20073 198.267 6.75677L198.29 6.73124C197.172 6.7318 196.054 6.73238 194.936 6.73293L194.953 6.74829V6.74829Z" fill="#040404"/>
<path d="M221.64 6.74945V3.39417H224.993C224.993 3.94747 224.998 4.51629 224.991 5.08496C224.984 5.6407 224.965 6.19631 224.95 6.75194C224.95 6.75191 224.978 6.73038 224.978 6.73038C223.86 6.7309 222.742 6.73145 221.624 6.73197C221.624 6.73198 221.64 6.74945 221.64 6.74945V6.74945Z" fill="#040404"/>
<path d="M258.321 3.39716H261.654C261.654 4.52871 261.654 5.63668 261.654 6.74463L261.671 6.73226C260.568 6.72485 259.465 6.71744 258.363 6.71005L258.362 6.70954C258.353 5.60018 258.344 4.49083 258.335 3.38147L258.321 3.39716V3.39716Z" fill="#040404"/>
<path d="M198.267 6.75588H201.599C201.599 7.86569 201.599 8.9842 201.599 10.1027C201.599 10.1026 201.626 10.0811 201.626 10.0811C200.532 10.0722 199.438 10.0632 198.29 10.0538V6.73035L198.267 6.75588V6.75588Z" fill="#040404"/>
<path d="M218.304 10.0983V6.74963H221.64L221.624 6.73218V10.0829H218.288L218.304 10.0983Z" fill="#040404"/>
<path d="M228.297 20.1553H231.631C231.631 21.283 231.631 22.3912 231.631 23.4993C231.631 23.4993 231.647 23.4875 231.647 23.4875C230.547 23.4862 229.448 23.4849 228.348 23.4835C228.336 22.3674 228.324 21.2512 228.312 20.135L228.297 20.1553V20.1553Z" fill="#040404"/>
<path d="M191.632 33.5481C192.738 33.5447 193.844 33.5413 194.95 33.5378C194.946 34.6604 194.941 35.783 194.937 36.9056L194.955 36.8904C193.878 36.8904 192.801 36.8904 191.632 36.8904V33.5481V33.5481Z" fill="#040404"/>
<path d="M261.656 20.1368C261.667 22.1012 261.677 24.0656 261.687 26.03C261.688 26.2711 261.687 26.5123 261.687 26.8382H258.32L258.334 26.8514C258.337 24.618 258.339 22.3846 258.342 20.1512L258.34 20.1545C259.45 20.153 260.56 20.1515 261.67 20.15L261.656 20.1368Z" fill="#030302"/>
<path d="M258.32 26.8383C258.331 28.8029 258.341 30.7675 258.351 32.7322C258.352 32.9737 258.351 33.2152 258.351 33.5407H254.983L254.998 33.5527C255.001 31.3193 255.003 29.086 255.006 26.8526L255.003 26.8574C256.113 26.8554 257.223 26.8534 258.334 26.8514L258.32 26.8383V26.8383Z" fill="#030302"/>
<path d="M251.651 36.8921C251.649 39.1306 251.647 41.3691 251.645 43.6075L251.664 43.5904C250.565 43.5815 249.467 43.5726 248.368 43.5636C248.359 43.3202 248.345 43.0769 248.341 42.8334C248.328 41.9698 248.319 41.1061 248.309 40.2425C248.318 39.1369 248.326 38.0313 248.335 36.9256C249.444 36.9186 250.553 36.9116 251.662 36.9046L251.651 36.8921V36.8921Z" fill="#030302"/>
<path d="M254.983 33.5415V36.8919H251.651L251.662 36.9044C251.665 35.7878 251.667 34.6711 251.67 33.5545L251.666 33.5592C252.777 33.5573 253.888 33.5554 254.998 33.5535L254.983 33.5415Z" fill="#040404"/>
<path d="M248.368 43.564C249.467 43.5729 250.565 43.5818 251.664 43.5908C251.66 46.9444 251.656 50.2979 251.651 53.6516C250.547 53.6502 249.442 53.6489 248.337 53.6476C247.218 53.6472 246.099 53.6468 244.98 53.6465L244.987 53.6597C244.987 52.5513 244.988 51.4428 244.988 50.3154H241.695V53.6181C240.573 53.6279 239.451 53.6377 238.329 53.6475C237.21 53.6472 236.091 53.6468 234.972 53.6465L234.98 53.6597C234.98 52.5519 234.98 51.444 234.98 50.3081H224.963V53.6629L224.974 53.6477C223.868 53.6504 222.762 53.6531 221.656 53.6557C220.552 53.6576 219.449 53.6594 218.345 53.6612C218.33 52.5404 218.315 51.4197 218.3 50.2989C219.393 50.292 220.486 50.2851 221.63 50.2779V46.9452C222.185 46.9443 222.74 46.9579 223.294 46.9384C223.839 46.9191 224.393 47.0249 224.969 46.8535C224.976 45.7665 224.983 44.7089 224.966 43.6415H221.637C221.637 44.7774 221.637 45.8649 221.637 46.9524C221.086 46.9491 220.534 46.9298 219.984 46.947C219.443 46.9638 218.893 46.8606 218.298 47.038V50.2972C215.586 50.2901 212.874 50.281 210.163 50.2777C209.541 50.277 208.919 50.2962 208.297 50.3062L208.288 50.2974C208.295 49.1978 208.31 48.0979 208.279 46.9453H204.95L204.957 46.9525C204.952 45.8503 204.981 44.7469 204.938 43.6411H201.623V46.9438L201.627 46.9337C200.509 46.9417 199.391 46.9497 198.273 46.9577C198.284 45.6745 198.294 44.3914 198.306 43.1082C198.314 42.1571 198.324 41.206 198.333 40.2549C206.073 40.25 213.814 40.2451 221.635 40.2402V36.8952L221.632 36.8982C222.76 36.8882 223.888 36.8781 225.017 36.868C226.106 36.8701 227.196 36.8723 228.286 36.8744C228.303 37.9772 228.319 39.08 228.336 40.1941H231.638V36.8936C232.732 36.8883 233.827 36.8829 234.98 36.8772V33.5425L234.973 33.5497C236.068 33.5407 237.164 33.5318 238.317 33.5223V26.856C239.43 26.8498 240.543 26.8435 241.656 26.8373C241.665 27.9407 241.674 29.0441 241.682 30.1475C241.673 30.3923 241.657 30.6371 241.656 30.8819C241.653 32.888 241.653 34.8942 241.652 36.9004C240.556 36.8962 239.459 36.8618 238.373 36.9167V40.1939H241.645V36.8931C242.74 36.8879 243.836 36.8827 244.989 36.8773V30.2067H248.338C248.34 29.5975 248.347 29.0519 248.342 28.5065C248.338 27.9505 248.322 27.3945 248.312 26.8385C249.423 26.8366 250.534 26.8347 251.645 26.8328L251.661 26.8489C251.663 29.0859 251.665 31.3228 251.666 33.5598L251.67 33.5551C251.115 33.5516 250.56 33.5307 250.007 33.5495C249.463 33.568 248.909 33.455 248.335 33.6415V36.926C248.326 38.0316 248.318 39.1373 248.309 40.2429C247.22 40.2495 246.129 40.2197 244.988 40.2639C244.988 41.4405 244.988 42.5211 244.988 43.6017C243.892 43.5976 242.794 43.5632 241.709 43.618V46.8953H244.981V43.5945C246.11 43.5843 247.239 43.5742 248.368 43.564V43.564ZM214.936 43.6415H211.675V46.9174C212.787 46.9535 213.855 46.9614 214.936 46.9162V43.6415Z" fill="#D3CDCF"/>
<path d="M201.609 53.6587C201.62 52.3716 201.635 51.0845 201.64 49.7974C201.643 48.8428 201.632 47.8881 201.627 46.9334C201.627 46.9332 201.623 46.9432 201.623 46.9432C202.734 46.9461 203.846 46.949 204.957 46.952L204.95 46.9448C204.95 48.0325 204.95 49.1202 204.95 50.2969H208.288L208.297 50.3057C208.293 51.4208 208.289 52.5359 208.285 53.651C207.18 53.6497 206.075 53.6484 204.97 53.6471C203.85 53.6509 202.729 53.6548 201.609 53.6587V53.6587Z" fill="#D3CDCF"/>
<path d="M261.67 20.1501C260.56 20.1516 259.45 20.1531 258.34 20.1546C258.336 15.8064 258.333 11.4581 258.332 7.1099C258.332 6.97675 258.352 6.84359 258.363 6.71045C259.466 6.71784 260.568 6.72525 261.671 6.73267C261.676 10.9162 261.68 15.0997 261.684 19.2833C261.684 19.5722 261.675 19.8612 261.67 20.1501Z" fill="#B8B4B6"/>
<path d="M224.963 53.6624V50.3076H234.98C234.98 51.4435 234.98 52.5513 234.98 53.6592C234.649 53.6491 234.318 53.6305 233.987 53.6302C231.221 53.6279 228.456 53.6281 225.69 53.6304C225.448 53.6306 225.205 53.6512 224.963 53.6624Z" fill="#040404"/>
<path d="M241.695 53.6177V50.3149H244.987C244.987 51.4424 244.987 52.5508 244.987 53.6593C243.89 53.6454 242.793 53.6316 241.695 53.6177V53.6177Z" fill="#040404"/>
<path d="M194.937 36.9046C194.941 35.782 194.946 34.6594 194.95 33.5368V30.1957C193.793 30.182 192.698 30.1869 191.603 30.1933C191.607 29.074 191.61 27.9547 191.614 26.8355C191.609 25.7159 191.604 24.5964 191.599 23.4768C191.6 22.3632 191.601 21.2495 191.601 20.1359C192.711 20.1453 193.82 20.1547 194.93 20.1634C194.951 21.2455 194.971 22.3283 194.991 23.4317H198.263V20.1803H194.914C194.932 19.4251 194.95 18.6699 194.969 17.9147C194.978 17.5367 194.99 17.1587 195 16.7807C195.533 16.7827 196.066 16.8007 196.598 16.7822C197.143 16.7633 197.698 16.8721 198.311 16.6824V13.4305H201.643L201.668 13.401C201.587 14.5066 201.622 15.6103 201.645 16.792H204.911C205.034 17.9373 204.88 19.0237 205.011 20.1359C205.609 20.1359 206.14 20.1488 206.67 20.1323C207.193 20.116 207.724 20.2136 208.314 20.0353V16.7852C209.119 16.7852 209.846 16.7852 210.573 16.7852C211.305 16.7852 212.037 16.7924 212.769 16.7832C213.489 16.7742 214.213 16.8255 214.966 16.7423V13.4522C216.071 13.4474 217.177 13.4426 218.283 13.4378C219.38 13.4389 220.478 13.4266 221.649 13.447V16.7887H224.959V20.1049C226.127 20.1153 227.219 20.1251 228.312 20.1348C228.324 21.251 228.336 22.3671 228.348 23.4833H221.742C221.587 24.2419 221.607 26.3067 221.775 26.8477H228.327C228.334 27.9598 228.341 29.0718 228.347 30.1838H218.346V33.5452H221.633C221.632 34.6625 221.632 35.7799 221.632 36.8972L221.635 36.8942C213.854 36.8931 206.074 36.892 198.293 36.891C197.174 36.8955 196.056 36.9 194.937 36.9046V36.9046ZM198.291 30.2069C198.291 31.3745 198.268 32.4333 198.304 33.476C199.447 33.6182 211.111 33.5647 211.626 33.4126C211.631 32.3688 211.64 31.3103 211.62 30.1712H208.282V26.8827H201.658C201.559 27.9955 201.693 29.0826 201.57 30.2069H198.291ZM211.682 20.145V23.4319H214.941V20.145H211.682Z" fill="#D3CDCF"/>
<path d="M214.966 13.4522V16.7423C214.213 16.8255 213.489 16.7742 212.769 16.7832C212.037 16.7924 211.305 16.7852 210.573 16.7852C209.846 16.7852 209.119 16.7852 208.314 16.7852V20.0353C207.724 20.2136 207.193 20.116 206.67 20.1323C206.14 20.1488 205.61 20.1359 205.011 20.1359C204.88 19.0237 205.034 17.9373 204.911 16.792H201.645C201.622 15.6103 201.587 14.5066 201.668 13.401C202.621 13.4078 203.574 13.4197 204.527 13.4204C207.764 13.4228 211 13.4207 214.237 13.4227C214.48 13.4228 214.723 13.4419 214.966 13.4522V13.4522Z" fill="#9C989A"/>
<path d="M201.643 13.4298H198.311V16.6817C197.698 16.8714 197.143 16.7626 196.598 16.7816C196.066 16.8001 195.533 16.7821 195 16.7801C194.99 16.5369 194.97 16.2937 194.97 16.0505C194.968 13.1873 194.97 10.3241 194.967 7.46091C194.967 7.21795 194.947 6.97499 194.936 6.73203C196.054 6.73148 197.172 6.73091 198.29 6.73035V10.0538C199.438 10.0632 200.532 10.0722 201.626 10.0811C201.632 11.1974 201.637 12.3136 201.643 13.4298V13.4298Z" fill="white"/>
<path d="M224.959 16.788H221.649V13.4463C220.478 13.4259 219.38 13.4381 218.283 13.437C218.284 12.3189 218.286 11.2008 218.288 10.0827H221.624V6.73195C222.742 6.73143 223.86 6.73088 224.978 6.73035C224.981 10.0173 224.985 13.3042 224.987 16.5911C224.987 16.6567 224.969 16.7223 224.959 16.788V16.788Z" fill="white"/>
<path d="M258.363 6.71151C258.352 6.84465 258.332 6.97782 258.332 7.11096C258.333 11.4592 258.337 15.8074 258.34 20.1556L258.342 20.1523C257.227 20.1506 256.112 20.149 254.997 20.1473L254.981 20.1307C254.993 19.9533 255.014 19.7759 255.014 19.5985C255.017 16.5906 255.016 13.5827 255.016 10.5749C255.016 10.4255 255.016 10.2761 255.016 10.0998H251.648C251.658 8.81387 251.676 7.52793 251.678 6.24201C251.679 5.28912 251.658 4.3362 251.648 3.3833C252.762 3.3877 253.877 3.39211 254.991 3.39652C254.992 3.952 254.978 4.50802 254.998 5.06283C255.017 5.60637 254.91 6.16112 255.077 6.71101H258.362L258.363 6.71151V6.71151Z" fill="#D3CDCF"/>
<path d="M251.644 26.8313C251.656 25.859 251.678 24.8867 251.677 23.9144C251.677 22.6548 251.658 21.3952 251.648 20.1356C252.759 20.1336 253.87 20.1315 254.981 20.1295L254.997 20.1461C254.999 22.3832 255.001 24.6203 255.003 26.8574L255.006 26.8525C253.891 26.8508 252.776 26.8491 251.661 26.8474L251.644 26.8313V26.8313Z" fill="#D3CDCF"/>
<path d="M228.327 26.8483C226.136 26.8483 223.946 26.8483 221.775 26.8483C221.607 26.3073 221.587 24.2424 221.743 23.4839H228.348C229.448 23.4852 230.547 23.4865 231.647 23.4879C231.644 24.6094 231.641 25.731 231.637 26.8526L231.651 26.8433C230.543 26.845 229.435 26.8466 228.327 26.8483V26.8483Z" fill="#9C989A"/>
<path d="M231.637 26.8529C232.75 26.8515 233.863 26.8501 234.975 26.8486C234.974 29.0823 234.974 31.3159 234.973 33.5495L234.98 33.5423C233.866 33.5445 232.752 33.5467 231.638 33.5489C231.635 32.4256 231.633 31.3022 231.631 30.1789C231.637 29.0671 231.644 27.9554 231.65 26.8436L231.637 26.8529V26.8529Z" fill="#D3CDCF"/>
<path d="M234.973 33.5481C234.974 31.3145 234.975 29.0809 234.975 26.8473C236.089 26.8497 237.203 26.8521 238.317 26.8545V33.5208C237.164 33.5302 236.069 33.5392 234.973 33.5481Z" fill="#9C989A"/>
<path d="M198.293 36.8904C206.074 36.8915 213.854 36.8925 221.635 36.8936C221.635 37.9802 221.635 39.0669 221.635 40.2386C213.814 40.2435 206.073 40.2484 198.333 40.2533C198.32 39.1323 198.307 38.0113 198.293 36.8904V36.8904Z" fill="#B8B4B6"/>
<path d="M258.362 6.70954H255.077C254.91 6.15966 255.017 5.6049 254.998 5.06137C254.978 4.50655 254.992 3.95054 254.991 3.39505C256.106 3.39054 257.22 3.38601 258.335 3.38147C258.344 4.49083 258.353 5.60018 258.362 6.70954V6.70954Z" fill="#B8B4B6"/>
<path d="M241.652 36.9002C241.653 34.894 241.653 32.8879 241.656 30.8817C241.657 30.6369 241.673 30.3921 241.682 30.1473C242.542 30.1568 243.403 30.1646 244.263 30.1767C244.505 30.1801 244.747 30.1962 244.989 30.2065V36.8771C243.836 36.8826 242.74 36.8877 241.645 36.8929L241.652 36.9002V36.9002Z" fill="#9C989A"/>
<path d="M255.002 26.8572C255.001 24.6201 254.999 22.383 254.997 20.1459C256.112 20.1476 257.227 20.1492 258.342 20.1509C258.339 22.3843 258.337 24.6178 258.334 26.8512C257.223 26.8532 256.113 26.8552 255.002 26.8572Z" fill="#B8B4B6"/>
<path d="M251.661 26.8473C252.776 26.849 253.891 26.8507 255.006 26.8523C255.003 29.0857 255.001 31.3191 254.998 33.5525C253.888 33.5544 252.777 33.5563 251.666 33.5582C251.665 31.3212 251.663 29.0842 251.661 26.8473Z" fill="#B8B4B6"/>
<path d="M248.335 36.9244V33.6399C248.909 33.4534 249.463 33.5664 250.007 33.5479C250.56 33.5291 251.115 33.5499 251.67 33.5534C251.667 34.6701 251.665 35.7867 251.662 36.9033C250.553 36.9103 249.444 36.9174 248.335 36.9244Z" fill="#B8B4B6"/>
<path d="M248.368 43.5623C247.239 43.5724 246.11 43.5826 244.981 43.5928L244.988 43.6V40.2622C246.129 40.218 247.22 40.2478 248.309 40.2412C248.319 41.1048 248.328 41.9685 248.341 42.8321C248.345 43.0756 248.359 43.3189 248.368 43.5623V43.5623Z" fill="#9C989A"/>
<path d="M221.632 36.8971C221.632 35.7797 221.633 34.6624 221.633 33.545C222.752 33.5468 223.871 33.5485 224.99 33.5503C224.999 34.6558 225.008 35.7613 225.017 36.8669C223.888 36.8769 222.76 36.887 221.632 36.8971Z" fill="#B8B4B6"/>
<path d="M225.017 36.8678C225.008 35.7623 224.999 34.6568 224.99 33.5513C226.102 33.5486 227.213 33.5459 228.325 33.5432C228.311 34.6583 228.296 35.7734 228.282 36.8885L228.286 36.8742C227.196 36.8721 226.106 36.8699 225.017 36.8678V36.8678Z" fill="#040404"/>
<path d="M231.638 33.5482C232.752 33.5459 233.866 33.5437 234.98 33.5415C234.98 34.6233 234.98 35.7051 234.98 36.8763C233.827 36.882 232.732 36.8873 231.638 36.8927L231.644 36.8994C231.644 35.7801 231.644 34.6608 231.644 33.5415L231.638 33.5482Z" fill="#9C989A"/>
<path d="M231.638 36.8932V40.1937H228.336C228.319 39.0796 228.303 37.9768 228.286 36.874C228.286 36.874 228.282 36.8883 228.282 36.8883C229.403 36.8922 230.524 36.8961 231.644 36.9L231.638 36.8932V36.8932Z" fill="#9C989A"/>
<path d="M241.645 36.8922V40.1931H238.373V36.9158C239.459 36.8609 240.556 36.8953 241.652 36.8995C241.652 36.8995 241.645 36.8922 241.645 36.8922Z" fill="#9C989A"/>
<path d="M204.957 46.9519C203.846 46.949 202.734 46.9461 201.623 46.9432V43.6406H204.938C204.981 44.7464 204.952 45.8498 204.957 46.9519Z" fill="#9C989A"/>
<path d="M214.936 43.6406V46.9153C213.855 46.9606 212.787 46.9527 211.675 46.9166V43.6406H214.936Z" fill="#9C989A"/>
<path d="M221.637 46.9516V43.6406H224.966C224.983 44.708 224.976 45.7656 224.969 46.8526C224.393 47.024 223.839 46.9183 223.294 46.9375C222.74 46.9571 222.185 46.9434 221.63 46.9443L221.637 46.9516V46.9516Z" fill="#9C989A"/>
<path d="M244.981 43.5936V46.8945H241.709V43.6172C242.794 43.5623 243.892 43.5967 244.988 43.6009C244.988 43.6009 244.981 43.5936 244.981 43.5936V43.5936Z" fill="#9C989A"/>
<path d="M208.288 50.2964H204.95C204.95 49.1196 204.95 48.0319 204.95 46.9442C206.029 46.9442 207.108 46.9442 208.279 46.9442C208.31 48.0968 208.295 49.1967 208.288 50.2964V50.2964Z" fill="#9C989A"/>
<path d="M221.63 46.9446V50.2773C220.486 50.2846 219.393 50.2915 218.3 50.2984L218.298 50.2966V47.0375C218.893 46.8601 219.443 46.9632 219.984 46.9464C220.534 46.9293 221.086 46.9485 221.637 46.9519L221.63 46.9446V46.9446Z" fill="#9C989A"/>
<path d="M198.291 30.2076H201.57C201.693 29.0833 201.559 27.9963 201.658 26.8834H208.282V30.1719H211.62C211.64 31.311 211.631 32.3696 211.626 33.4133C211.111 33.5655 199.447 33.619 198.304 33.4767C198.268 32.4341 198.291 31.3753 198.291 30.2076Z" fill="white"/>
<path d="M228.325 33.5425C227.213 33.5451 226.102 33.5478 224.99 33.5505C223.871 33.5488 222.752 33.547 221.633 33.5453C220.551 33.5453 219.469 33.5453 218.346 33.5453V30.1839H228.347C229.442 30.182 230.536 30.1801 231.63 30.1781C231.633 31.3015 231.635 32.4248 231.638 33.5482L231.644 33.5415C230.538 33.5419 229.432 33.5421 228.325 33.5425Z" fill="#9C989A"/>
<path d="M194.914 20.1809H198.263V23.4323H194.991C194.971 22.3289 194.951 21.2461 194.93 20.1639C194.93 20.1646 194.914 20.1809 194.914 20.1809V20.1809Z" fill="#040404"/>
<path d="M211.682 20.1459H214.941V23.4328H211.682V20.1459Z" fill="#040404"/>
<path d="M231.63 30.1789C230.536 30.1808 229.442 30.1827 228.347 30.1847C228.341 29.0726 228.334 27.9606 228.327 26.8486C229.435 26.8469 230.542 26.8453 231.65 26.8436C231.644 27.9554 231.637 29.0671 231.63 30.1789V30.1789Z" fill="#040404"/>
<path d="M228.325 33.5424C229.432 33.5421 230.538 33.5418 231.644 33.5415C231.644 34.6608 231.644 35.7801 231.644 36.8994C230.524 36.8955 229.403 36.8917 228.282 36.8878C228.296 35.7726 228.311 34.6575 228.325 33.5424Z" fill="#D3CDCF"/>
</g>
<defs>
<clipPath id="clip0_93_1760">
<rect width="179.315" height="67.2474" fill="white" transform="translate(60 147)"/>
</clipPath>
<clipPath id="clip1_93_1760">
<rect width="80" height="57" fill="white" transform="translate(185)"/>
</clipPath>
</defs>
</svg>
