<svg width="94" height="50" viewBox="0 0 94 50" fill="none" xmlns="http://www.w3.org/2000/svg">
<rect width="94" height="50" rx="25" fill="#FFA400"/>
<path d="M25 17L18 24L25 31M18 24H34" stroke="white" stroke-width="2" stroke-linecap="round" stroke-linejoin="round"/>
<path d="M54.709 28.1016V30H47.9062V28.1016H54.709ZM48.6445 17.2031V30H46.2275V17.2031H48.6445ZM53.8213 22.4854V24.3398H47.9062V22.4854H53.8213ZM54.6826 17.2031V19.1104H47.9062V17.2031H54.6826ZM58.0312 20.4902L59.7275 23.5137L61.4502 20.4902H63.9727L61.1777 25.1484L64.0869 30H61.5645L59.7451 26.8271L57.917 30H55.3945L58.2949 25.1484L55.5176 20.4902H58.0312ZM67.7783 20.4902V30H65.4492V20.4902H67.7783ZM65.291 18.0029C65.291 17.6572 65.4082 17.3701 65.6426 17.1416C65.8828 16.9131 66.2051 16.7988 66.6094 16.7988C67.0137 16.7988 67.333 16.9131 67.5674 17.1416C67.8076 17.3701 67.9277 17.6572 67.9277 18.0029C67.9277 18.3428 67.8076 18.627 67.5674 18.8555C67.333 19.084 67.0137 19.1982 66.6094 19.1982C66.2051 19.1982 65.8828 19.084 65.6426 18.8555C65.4082 18.627 65.291 18.3428 65.291 18.0029ZM74.4932 20.4902V22.1602H69.0439V20.4902H74.4932ZM70.5029 18.1523H72.832V27.2578C72.832 27.5391 72.8701 27.7559 72.9463 27.9082C73.0225 28.0605 73.1367 28.1631 73.2891 28.2158C73.4414 28.2686 73.623 28.2949 73.834 28.2949C73.9863 28.2949 74.127 28.2861 74.2559 28.2686C74.3848 28.251 74.4932 28.2334 74.5811 28.2158L74.5898 29.9561C74.3965 30.0205 74.1768 30.0732 73.9307 30.1143C73.6904 30.1553 73.418 30.1758 73.1133 30.1758C72.5918 30.1758 72.1348 30.0879 71.7422 29.9121C71.3496 29.7305 71.0449 29.4404 70.8281 29.042C70.6113 28.6377 70.5029 28.1045 70.5029 27.4424V18.1523Z" fill="white"/>
</svg>
