<svg width="330" height="368" viewBox="0 0 330 368" fill="none" xmlns="http://www.w3.org/2000/svg">
<g clip-path="url(#clip0_22_30344)">
<rect width="330" height="368" rx="16" fill="#3E3E3E"/>
<path d="M174.431 82.4364C174.411 82.4345 174.366 82.3413 175.267 83.6597C207.072 87.5998 228.144 107.511 213.09 95.2154C210.151 92.8136 193.628 84.6293 174.431 82.4364Z" fill="#2A2A2A"/>
<path d="M189.612 77.5285C185.755 76.266 182.731 75.9304 167.778 73.5789C169.117 75.2124 168.422 74.806 170.929 75.1976C182.772 77.0455 185.627 77.4408 188.964 78.4888C193.397 79.8799 198.223 83.3278 189.614 77.5303L189.612 77.5285Z" fill="#2A2A2A"/>
<path d="M246.966 119.49C245.632 118.724 245.713 118.657 247.217 120.098C247.28 119.858 247.19 119.619 246.966 119.49Z" fill="#2A2A2A"/>
<path d="M183.965 97.4382C184.38 98.1505 198.48 99.3589 220.431 107.968C236.464 114.258 238.265 117.023 233.295 112.535C232.019 111.383 209.7 101.007 183.352 96.3846C183.362 96.4033 183.636 96.8713 183.965 97.4382Z" fill="#2A2A2A"/>
<path d="M342.292 215.973C341.468 215.422 341.208 215.239 341.049 215.131C295.228 226.366 286.792 223.065 293.868 225.245C309.835 223.067 325.934 220.022 342.292 215.973Z" fill="#2A2A2A"/>
<path d="M287.284 227.194C289.785 234.108 294.547 239.7 299.808 244.737C302.807 247.609 302.217 247.247 303.732 247.122C304.78 247.034 293.182 239.217 288.622 227.656C288.6 227.649 287.552 227.287 287.282 227.194L287.284 227.194Z" fill="#2A2A2A"/>
<path d="M272.863 280.434C272.977 280.503 273.117 280.592 273.92 281.068C274.55 281.439 277.951 279.378 279.277 278.358C287.654 271.927 290.269 261.231 297.508 254.096C301.096 250.562 302.514 251.161 299.139 251.217C288.437 259.349 285.927 276.818 272.861 280.432L272.863 280.434Z" fill="#2A2A2A"/>
<path d="M332.312 208.623C329.795 206.594 284.497 216.87 272.733 216.971C275.592 218.364 273.551 218.579 293.105 215.328C335.753 208.241 332.616 208.867 332.314 208.623L332.312 208.623Z" fill="#2A2A2A"/>
<path d="M268.355 219.214C267.542 218.806 267.517 218.791 267.386 218.724C268.541 228.409 272.349 238.065 278.783 246.158C279.181 246.201 279.427 246.229 280.329 246.318C269.012 232.706 269.068 219.571 268.356 219.214L268.355 219.214Z" fill="#2A2A2A"/>
<path d="M322.805 200.543C323.118 200.478 323.102 200.543 322.054 199.558C311.749 201.678 301.278 203.769 290.881 205.031C254.723 209.421 244.808 200.328 252.922 205.71C275.813 209.99 299.89 205.253 322.805 200.545L322.805 200.543Z" fill="#2A2A2A"/>
<path d="M242.196 202.989C242.178 202.974 241.407 202.344 241.375 202.316C241.378 202.792 241.769 202.849 242.196 202.989Z" fill="#2A2A2A"/>
<path d="M259.698 194.975C234.247 192.61 229.105 184.846 234.11 190.1C235.024 191.061 246.996 196.429 275.927 196.987C296.88 197.39 316.592 194.434 316.163 194.031C316.117 193.988 315.354 193.27 315.305 193.226C296.214 196.17 277.181 196.601 259.696 194.977L259.698 194.975Z" fill="#2A2A2A"/>
<path d="M307.653 186.013C307.267 185.649 276.02 185.437 251.387 182.6C223.772 179.421 221.077 173.103 223.864 177.295C224.315 177.972 230.896 179.872 231.442 180.027C253.398 186.192 308.952 187.242 308.458 186.777C308.188 186.524 307.921 186.268 307.651 186.015L307.653 186.013Z" fill="#2A2A2A"/>
<path d="M213.284 158.59C213.618 159.289 213.723 159.511 213.881 159.84C214.225 160.557 236.484 169.527 261.593 173.896C279.538 177.017 298.799 177.62 298.18 177.03C295.434 174.416 261.416 178.8 213.282 158.59L213.284 158.59Z" fill="#2A2A2A"/>
<path d="M287.876 167.159C283.483 162.926 268.016 173.954 206.764 144.858C207.521 146.473 206.046 146.065 219.589 151.907C241.259 161.255 264.317 168.387 287.876 167.159Z" fill="#2A2A2A"/>
<path d="M194.616 127.289C193.344 124.402 194.408 125.717 189.458 120.939C167.403 99.6236 136.521 70.6364 90.2256 79.8817C67.1387 89.9849 110.044 65.1149 155.289 93.9642C176.894 107.739 195.458 129.193 194.618 127.289L194.616 127.289Z" fill="#2A2A2A"/>
<path d="M201.564 133.545C201.825 134.123 234.66 154.104 278.104 157.548C275.069 154.475 242.707 156.334 200.918 132.105C200.938 132.15 201.193 132.721 201.564 133.545Z" fill="#2A2A2A"/>
<path d="M267.441 146.449C265.368 144.239 268.208 145.787 253.219 141.923C234.164 137.011 215.289 130.619 196.781 122.715C197.49 124.3 196.077 123.813 207.092 128.143C226.726 135.861 246.855 141.966 267.441 146.449Z" fill="#2A2A2A"/>
<path d="M258.693 137.157C256.243 134.606 264.101 137.871 192.055 112.625C193.058 114.666 185.382 111.467 258.693 137.157Z" fill="#2A2A2A"/>
<path d="M187.855 66.1424C197.501 73.1948 203.963 83.0071 205.365 84.0849C206.762 85.159 207.561 85.7892 208.069 86.1902C204.886 81.8453 201.336 77.3346 197.637 73.4205C188.863 64.136 180.101 59.8079 178.45 59.7371C171.357 59.4275 177.77 58.7693 187.853 66.1424L187.855 66.1424Z" fill="#2A2A2A"/>
<path d="M191.912 60.4083C191.483 60.3804 190.354 60.3132 190.336 60.3114C199.402 67.3675 214.769 91.5699 216.21 92.7633C219.625 95.5884 219.812 96.3566 214.634 88.8175C211.991 84.9706 194.71 60.5967 191.912 60.4083Z" fill="#2A2A2A"/>
<path d="M203.722 61.7305C200.877 61.2811 202.656 60.2666 211.928 75.0707C225.953 97.4662 221.274 96.9701 224.751 99.9295C223.589 89.3453 205.121 61.9524 203.722 61.7305Z" fill="#2A2A2A"/>
<path d="M213.426 63.6567C209.56 62.7281 213.651 62.8138 221.985 78.2501C230.595 94.1935 231.265 105.539 232.065 106.24C232.747 106.838 232.273 106.419 233.152 107.194C228.792 82.0224 214.266 63.86 213.426 63.6586L213.426 63.6567Z" fill="#2A2A2A"/>
<path d="M237.892 95.5921C233.279 78.2184 227.001 67.4757 226.266 67.2519C222.586 66.1237 226.897 66.3046 233.406 84.6592C238.569 99.219 240.569 113.859 241.241 114.478C241.489 114.707 242.359 115.515 242.379 115.532C241.033 108.88 239.643 102.184 237.892 95.5921Z" fill="#2A2A2A"/>
<path d="M247.662 120.527C248.185 121.031 247.783 120.639 248.533 121.366C249.269 104.459 245.838 86.977 237.999 71.0093C235.646 70.2355 236.45 69.5847 239.666 77.3214C249.525 101.039 247.038 119.927 247.662 120.529L247.662 120.527Z" fill="#2A2A2A"/>
<path d="M254.929 126.709C254.925 127.969 254.714 127.509 255.733 128.557C257.218 127.753 254.194 82.9343 248.12 74.5243C247.937 74.2707 248.173 74.3808 246.475 73.812C245.966 75.3467 248.504 71.2238 252.238 93.5894C254.133 104.944 254.945 115.856 254.929 126.709Z" fill="#2A2A2A"/>
<path d="M261.408 134.498C261.55 134.645 262.17 135.298 262.188 135.316C265.368 115.899 263.924 96.3193 258.572 78.3657C256.455 77.4613 257.378 76.9839 259.494 86.0894C265.991 114.042 260.779 133.836 261.408 134.498Z" fill="#2A2A2A"/>
<path d="M268.968 142.44C270.344 143.885 270.163 145.617 270.378 130.351C270.516 120.581 270.46 102.031 268.923 92.3418C268.376 88.9014 266.786 82.2313 266.029 81.849C261.785 79.7101 271.446 79.574 268.968 142.44Z" fill="#2A2A2A"/>
<path d="M275.5 149.298C275.672 149.477 276.269 150.102 276.287 150.121C279.61 128.245 278.132 105.908 272.137 84.9743C269.784 83.7529 271.124 83.2961 273.808 96.3231C280.188 127.268 274.814 148.578 275.5 149.298Z" fill="#2A2A2A"/>
<path d="M282.423 90.438C281.904 90.1564 281.963 90.1863 281.295 89.8264C287.901 111.776 288.922 135.234 284.408 157.419C284.208 158.406 284.037 158.048 285.152 159.161C293.185 121.706 282.846 90.6692 282.421 90.438L282.423 90.438Z" fill="#2A2A2A"/>
<path d="M294.019 96.8825C291.903 95.6797 292.978 95.2228 294.546 106.303C296.513 120.207 296.649 135.175 294.475 150.191C291.925 167.813 290.475 164.419 292.383 166.271C298.021 144.079 298.777 120.248 294.019 96.8843L294.019 96.8825Z" fill="#2A2A2A"/>
<path d="M292.873 91.7228C292.781 91.3387 292.582 91.1783 292.278 91.2156C291.974 91.2548 292.081 91.2566 292.873 91.7228Z" fill="#2A2A2A"/>
<path d="M304.339 102.9C301.455 101.104 305.142 102.083 305.142 126.575C305.142 141.692 303.075 156.707 299.005 171.123C298.598 172.563 298.418 172.078 299.551 173.156C310.054 137.427 305.075 103.357 304.339 102.898L304.339 102.9Z" fill="#2A2A2A"/>
<path d="M315.756 123.856C315.756 134.727 313.387 145.177 309.798 163.312C306.047 182.261 306.209 179.455 307.474 180.644C314.57 144.78 319.379 127.52 315.417 110.926C312 108.06 315.756 109.928 315.756 123.856Z" fill="#2A2A2A"/>
<path d="M322.105 117.089C319.877 114.832 321.953 114.715 321.953 135.016C321.953 152.198 319.897 169.732 315.535 187.111C315.256 188.217 315.122 187.805 316.219 188.83C325.864 151.458 322.626 117.616 322.106 117.091L322.105 117.089Z" fill="#2A2A2A"/>
<path d="M332.3 128.924C329.994 126.071 331.536 126.334 331.873 139.113C332.233 152.744 330.537 166.771 326.535 180.527C321.958 196.26 320.876 193.179 322.653 194.812C331.239 174.146 334.6 151.325 332.3 128.924Z" fill="#2A2A2A"/>
<path d="M343.105 145.91C343.105 142.988 343.302 143.657 341.887 141.574C343.599 169.721 327.326 199.047 328.09 199.724C328.28 199.892 328.754 200.312 328.801 200.354C345.242 163.604 343.105 143.736 343.105 145.91Z" fill="#2A2A2A"/>
<path d="M139.659 67.7087C152.441 70.7091 164.476 77.1144 173.133 87.4226C169.426 81.9291 168.988 81.0509 163.923 77.3736C153.103 69.5156 139.008 65.1634 126.268 64.7867C118.722 67.2183 125.433 64.3727 139.657 67.7106L139.659 67.7087Z" fill="#2A2A2A"/>
<path d="M115.231 90.9171C137.487 96.4032 153.932 102.861 189.107 139.544C214.458 165.982 213.227 167.287 210.073 160.947C209.904 160.608 167.028 109.52 136.553 96.6083C116.013 87.9056 87.9887 82.6546 66.8583 89.0935C66.2104 89.6156 65.9443 89.4347 68.5487 89.7778C83.759 85.5822 99.8398 87.1206 115.231 90.9153L115.231 90.9171Z" fill="#2A2A2A"/>
<path d="M155.4 120.91C136.879 102.195 110.991 95.4765 85.3661 92.0696C71.8734 90.2757 79.1437 91.0645 87.328 93.4607C136.517 100.356 146.56 116.451 155.4 120.91Z" fill="#2A2A2A"/>
<path d="M201.201 173.09C200.56 169.851 199.206 167.925 191.918 155.258C187.322 150.501 187.103 149.086 196.39 165.225C201.521 174.138 199.173 172.949 201.201 173.09Z" fill="#2A2A2A"/>
<path d="M192.604 176.773C187.205 194.089 185.024 203.676 178.505 210.59C185.094 207.196 187.646 196.338 193.744 176.777C193.724 176.777 192.745 176.773 192.605 176.773L192.604 176.773Z" fill="#2A2A2A"/>
<path d="M181.187 147.75C184.132 153.207 186.363 158.721 192.387 172.803C193.923 172.805 194.102 174.053 190.354 165.286C186.445 156.144 183.384 148.537 179.021 141.99C171.618 135.11 176.514 139.091 181.187 147.749L181.187 147.75Z" fill="#2A2A2A"/>
<path d="M167.149 132.417C171.457 146.453 182.696 158.174 183.54 172.965C183.793 172.958 184.604 172.932 184.622 172.932C184.126 163.979 179.801 155.864 175.569 148.095C166.08 130.673 170.362 134.653 167.151 132.417L167.149 132.417Z" fill="#2A2A2A"/>
<path d="M184.208 176.933C183.516 176.95 181.824 191.633 175.16 203.968C168.695 215.932 162.482 217.391 168.067 215.252C169.272 214.789 175.377 207.933 179.661 196.679C182.09 190.302 183.677 183.598 185.141 176.911C185.084 176.911 184.389 176.93 184.209 176.933L184.208 176.933Z" fill="#2A2A2A"/>
<path d="M139.465 118.284C134.086 116.283 140.195 117.589 153.253 137.433C166.842 158.083 169.948 173.435 170.693 173.411C170.921 173.404 171.2 173.394 171.636 173.381C161.441 141.563 140.803 118.782 139.465 118.284Z" fill="#2A2A2A"/>
<path d="M160.81 177.549C160.859 177.54 160.763 177.549 160.619 177.551C160.683 177.56 160.748 177.56 160.81 177.549Z" fill="#2A2A2A"/>
<path d="M123.875 113.106C115.895 110.745 127.495 113.072 140.323 132.344C152.855 151.169 158.216 173.724 159.173 173.708C159.193 173.708 160.017 173.693 160.127 173.691C153.644 154.995 146.703 136.346 133.471 121.691C131.534 119.546 125.583 113.609 123.877 113.106L123.875 113.106Z" fill="#2A2A2A"/>
<path d="M87.9522 107.105C87.5215 107.092 86.2871 107.062 86.269 107.062C126.95 135.115 137.596 173.549 138.627 173.584C139.033 173.599 139.59 173.618 139.608 173.618C122.899 129.845 88.9205 107.133 87.954 107.103L87.9522 107.105Z" fill="#2A2A2A"/>
<path d="M77.7194 107.032C71.2418 107.135 80.2333 104.675 97.7385 126.64C131.457 168.945 122.713 172.693 127.345 172.999C119.94 150.253 95.6209 121.324 88.2945 114.458C84.6983 111.088 79.0388 107.01 77.7194 107.032Z" fill="#2A2A2A"/>
<path d="M66.4509 107.498C64.8184 107.607 99.3619 125.982 115.535 172.007C115.846 172.04 116.225 172.08 116.532 172.111C116.797 172.137 105.535 133.59 67.9368 107.405C67.6563 107.422 67.7323 107.415 66.4509 107.5L66.4509 107.498Z" fill="#2A2A2A"/>
<path d="M104.893 170.621C104.913 170.625 105.438 170.709 106.03 170.799C106.297 170.84 80.6278 121.031 55.6044 108.49C46.5043 109.548 66.8818 101.796 104.893 170.621Z" fill="#2A2A2A"/>
<path d="M95.5975 172.973C94.7559 172.805 95.3224 172.921 94.5296 172.758C91.8311 184.269 84.2658 194.005 74.8182 199.638C68.0872 203.653 67.2474 202.066 69.4953 203.489C82.3799 198.408 92.4302 186.576 95.5957 172.971L95.5975 172.973Z" fill="#2A2A2A"/>
<path d="M34.74 111.711C65.7325 121.756 81.9165 165.975 92.7848 168.343C77.4823 155.254 64.766 121.68 36.9499 111.297C36.2947 111.416 36.1807 111.435 34.74 111.711Z" fill="#2A2A2A"/>
<path d="M36.6117 120.456C54.097 132.894 74.498 163.685 79.2634 164.996C83.5782 166.183 81.4371 167.906 62.741 145.356C52.8138 133.386 41.6413 119.923 26.4437 113.404C22.0746 114.357 25.7324 112.718 36.6117 120.456Z" fill="#2A2A2A"/>
<path d="M37.9597 130.996C45.8634 140.161 52.3392 151.012 61.3054 159.465C65.6745 160.945 64.0727 161.05 58.7118 155.286C48.343 144.138 41.2301 130.496 29.2053 120.811C25.542 117.861 20.3441 114.789 19.526 114.985C14.3732 116.218 22.5105 113.081 37.9597 130.998L37.9597 130.996Z" fill="#2A2A2A"/>
<path d="M26.2534 132.874C28.6062 135.701 40.9261 152.067 44.5079 153.417C50.9113 155.828 46.0282 155.249 36.5625 144.012C29.1221 135.178 21.4119 122.737 9.62777 117.497C4.51485 118.866 11.7453 115.442 26.2534 132.874Z" fill="#2A2A2A"/>
<path d="M30.4597 178.506C30.8307 178.776 31.1185 178.987 31.3448 179.153C31.9619 179.602 45.0583 173.639 48.754 159.084C48.6853 159.058 47.9233 158.775 47.9052 158.767C47.3098 158.545 45.2573 172.835 30.4597 178.506Z" fill="#2A2A2A"/>
<path d="M49.4272 155.25C49.333 154.924 48.915 154.726 48.6055 154.946C48.6326 154.956 49.4235 155.249 49.4272 155.25Z" fill="#2A2A2A"/>
<path d="M14.6737 132.365C19.3559 138.231 22.7458 142.322 29.0225 147.478C37.3172 150.682 29.5745 149.317 16.1687 132.482C13.8755 129.599 11.5444 126.668 8.89836 124.145C7.43055 122.744 3.1375 119.295 2.33029 119.53C-1.34559 120.6 2.77733 117.462 14.6737 132.365Z" fill="#2A2A2A"/>
<path d="M22.5901 172.71C22.9141 172.951 23.2036 173.167 23.4154 173.323C24.4814 174.114 39.3533 163.159 40.1134 155.838C37.9343 155.014 40.1731 155.219 37.5904 159.342C34.4593 164.341 29.084 169.499 22.5901 172.71Z" fill="#2A2A2A"/>
<path d="M1.30781 141.129C-1.56267 140.116 0.813713 142.464 -9.50083 145.723C-11.26 146.279 -11.2202 145.91 -9.84651 146.997C-5.7978 145.757 -1.77623 144.101 1.30781 141.129Z" fill="#2A2A2A"/>
<path d="M-0.386207 134.886C-4.08018 130.927 -7.34703 126.726 -11.6437 123.861C-13.6708 124.481 -13.3396 123.861 -10.8383 125.795C-7.09907 128.687 -3.89015 132.835 -0.409736 136.46C3.08334 137.728 2.52228 138 -0.384398 134.884L-0.386207 134.886Z" fill="#2A2A2A"/>
<path d="M204.084 177.894C204.247 177.055 204.48 177.232 203.119 177.135C198.978 199.817 180.15 210.049 186.568 205.954C188.363 204.809 189.869 203.774 191.333 202.717C198.042 195.59 202.375 186.768 204.085 177.894L204.084 177.894Z" fill="#2A2A2A"/>
<path d="M164.912 144.318C169.019 154.68 176.666 173.208 177.089 173.193C177.315 173.185 177.884 173.165 178.115 173.157C178.11 173.139 170.029 155.29 159.636 127.634C157.738 126.53 156.875 124.035 164.912 144.318Z" fill="#2A2A2A"/>
<path d="M168.637 195.249C162.981 204.781 157.747 213.534 149.384 220.682C151.472 220.227 151.371 220.74 155.06 216.746C160.415 210.946 174.015 192.021 177.408 177.107C174.34 177.187 178.413 178.793 168.636 195.251L168.637 195.249Z" fill="#2A2A2A"/>
<path d="M135.399 222.398C136.117 222.392 136.999 222.37 137.017 222.368C152.877 210.771 163.124 194.704 167.135 177.377C166.963 177.383 166.031 177.407 166.013 177.407C158.446 209.436 133.795 222.409 135.401 222.396L135.399 222.398Z" fill="#2A2A2A"/>
<path d="M111.322 109.872C105.747 108.671 113.374 109.619 128.148 129.94C145.592 153.934 148.095 173.782 148.971 173.786C149.188 173.786 149.876 173.786 149.903 173.786C140.141 135.164 112.974 110.227 111.322 109.87L111.322 109.872Z" fill="#2A2A2A"/>
<path d="M120.487 221.068C148.533 208.475 151.492 177.756 150.638 177.76C150.191 177.761 149.744 177.763 149.726 177.763C148.394 192.631 140.785 206.773 127.804 215.686C119.077 221.68 116.111 220.389 120.487 221.066L120.487 221.068Z" fill="#2A2A2A"/>
<path d="M110.12 219.089C124.635 212.997 134.441 205.041 136.933 189.547C137.605 185.377 138.064 177.541 137.677 177.526C137.436 177.517 136.834 177.493 136.774 177.489C136.321 195.154 133.326 205.641 117.03 214.575C108.057 219.494 106.513 218.271 110.12 219.089Z" fill="#2A2A2A"/>
<path d="M93.3008 214.286C101.822 217.221 128.418 205.552 132.753 177.92C132.876 177.133 133.075 177.314 131.761 177.239C128.843 197.295 112.902 212.596 93.3008 214.286Z" fill="#2A2A2A"/>
<path d="M86.3544 211.729C90.5352 210.398 99.6154 205.141 103.103 202.863C121.493 190.846 120.93 176.482 120.453 176.441C119.964 176.4 119.562 176.363 119.542 176.361C119.455 191.225 106.565 200.079 93.7984 207.015C90.8664 208.613 87.8584 210.32 84.6531 211.052C84.673 211.06 85.701 211.474 86.3544 211.729Z" fill="#2A2A2A"/>
<path d="M75.8769 207.237C82.3418 206.111 88.3144 203.357 93.2391 199.54C97.248 196.433 103.827 189.362 106.748 184.116C108.86 180.325 110.124 175.356 109.635 175.293C108.882 175.196 109.305 175.252 108.737 175.175C107.754 181.28 104.79 185.869 100.832 190.457C82.892 211.241 69.1079 204.091 75.875 207.235L75.8769 207.237Z" fill="#2A2A2A"/>
<path d="M86.262 170.923C86.0792 170.879 85.6413 170.771 85.377 170.707C77.8624 192.756 57.5971 196.349 58.3627 196.785C59.4269 197.392 58.6323 196.938 59.4794 197.423C79.7356 191.18 86.9751 171.095 86.262 170.923Z" fill="#2A2A2A"/>
<path d="M71.6454 166.959C69.9876 166.459 70.6681 166.325 70.6681 168.829C70.6681 177.937 63.7996 184.875 55.8868 189.125C49.6607 192.469 49.1974 191.478 51.1394 192.627C60.0893 188.747 68.3876 183.393 71.0681 173.722C71.678 171.524 71.9006 169.24 71.6436 166.959L71.6454 166.959Z" fill="#2A2A2A"/>
<path d="M38.5354 184.35C39.2069 184.829 38.7653 184.514 39.5326 185.058C40.3145 185.612 56.5854 180.43 59.1446 162.875C59.0866 162.855 58.5093 162.652 58.2794 162.57C57.6442 162.344 58.2794 167.272 53.6534 174.019C50.1983 179.057 44.8229 182.893 38.5354 184.35Z" fill="#2A2A2A"/>
<path d="M4.21617 156.147C2.10766 157.227 1.95563 156.74 3.30037 157.826C11.2639 154.145 17.0537 147.734 17.0537 147.141C17.0537 146.991 17.137 147.059 16.1741 146.691C15.8085 147.036 11.8177 152.254 4.21617 156.147Z" fill="#2A2A2A"/>
<path d="M-3.56636 150.374C-5.73279 150.812 -5.70021 150.382 -4.41158 151.471C-3.95729 151.853 4.13471 150.264 11.0159 144.73C11.0141 144.73 11.072 144.75 9.81051 144.273C5.98984 147.215 1.44521 149.363 -3.56636 150.376L-3.56636 150.374Z" fill="#2A2A2A"/>
<path d="M284.671 294.151C285.4 293.908 284.584 294.434 279.16 290.128C275.793 287.456 275.087 286.279 273.974 285.655C273.048 285.133 272.145 284.596 271.294 284.062C274.316 287.592 277.739 290.663 281.583 293.283C283.739 294.751 283.27 294.617 284.669 294.151L284.671 294.151Z" fill="#2A2A2A"/>
<path d="M275.967 296.752C276.843 296.519 275.616 297.651 271.122 290.966C260.882 275.777 263.178 278.513 259.698 275.979C274.955 298.607 273.739 297.345 275.967 296.752Z" fill="#2A2A2A"/>
<path d="M261.722 291.158C259.695 286.6 259.023 281.506 257.733 276.7C256.871 273.491 257.191 274.148 255.289 272.719C258.625 281.079 258.306 292.916 266.259 298.965C269.939 298.264 265.417 299.463 261.723 291.158L261.722 291.158Z" fill="#2A2A2A"/>
<path d="M250.024 279.656C246.481 264.591 245 264.856 243.581 263.834C242.155 262.806 245.145 263.699 248.996 280.034C250.287 285.517 251.659 291.208 254.659 296.252C255.021 296.86 257.271 300.366 257.901 300.285C262.31 299.732 255.698 303.752 250.024 279.656Z" fill="#2A2A2A"/>
<path d="M215.16 301.281C215.178 301.281 216.129 301.339 216.281 301.348C198.468 273.031 208.151 253.742 199.612 240.428C195.536 238.997 199.526 239.516 201.66 248.245C204.274 258.935 200.906 270.521 209.492 290.723C210.183 292.349 214.362 301.236 215.158 301.283L215.16 301.281Z" fill="#2A2A2A"/>
<path d="M202.761 300.259C207.523 300.761 198.22 300.026 195.805 278.522C194.332 265.387 196.073 249.143 188.198 236.974C184.651 236.066 188.512 236.657 191.464 247.111C195.539 261.551 192.28 276.848 197.49 291.07C199.13 295.545 202.026 300.183 202.761 300.259Z" fill="#2A2A2A"/>
<path d="M177.502 234.666C171.178 233.547 182.62 234.119 181.648 254.739C181.216 263.959 179.096 272.876 183.313 286.294C185.035 291.775 188.354 298.374 189.018 298.477C189.036 298.48 190.035 298.633 190.205 298.659C172.599 270.659 190.721 250.169 177.5 234.666L177.502 234.666Z" fill="#2A2A2A"/>
<path d="M166.319 233.105C162.512 232.711 168.811 232.971 168.811 246.012C168.811 255.047 162.288 274.914 176.814 296.364C177.972 296.586 177.339 296.465 178.347 296.653C163.352 275.49 169.895 255.735 169.895 245.988C169.895 238.263 167.044 233.179 166.317 233.105L166.319 233.105Z" fill="#2A2A2A"/>
<path d="M153.302 232.262C148.641 232.131 158.102 231.934 159.224 255.996C159.758 267.429 157.982 282.75 164.842 294.054C168.248 294.712 164.778 294.699 162.266 284.942C158.784 271.429 162.14 257.076 158.601 243.269C157.211 237.843 154.118 232.284 153.302 232.26L153.302 232.262Z" fill="#2A2A2A"/>
<path d="M145.225 232.214C144.886 232.219 144.539 232.225 144.195 232.23C150.866 244.15 138.193 262.031 154.283 292.012C154.578 292.069 155.143 292.178 155.44 292.235C156.526 292.444 146.613 279.524 146.613 257.078C146.627 250.717 147.458 246.9 147.471 242.201C147.476 237.038 145.911 232.202 145.226 232.214L145.225 232.214Z" fill="#2A2A2A"/>
<path d="M137.791 254.486C137.791 263.205 136.438 271.869 138.555 280.57C139.607 284.888 142.005 289.66 142.846 289.821C142.864 289.824 144.034 290.046 144.195 290.078C131.618 274.498 145.892 248.543 132.675 232.654C127.862 232.885 137.791 232.926 137.791 254.488L137.791 254.486Z" fill="#2A2A2A"/>
<path d="M119.975 259.425C119.975 267.917 119.135 277.696 122.628 286.071C125.544 286.598 122.652 286.759 121.434 276.982C120.697 271.076 121.062 265.031 121.062 259.356C121.062 240.288 114.274 234.322 113.805 234.391C109.441 235.033 119.977 234.13 119.977 259.427L119.975 259.425Z" fill="#2A2A2A"/>
<path d="M112.058 263.207C112.484 267.019 112.857 270.948 113.483 274.785C113.953 277.67 115.532 284.788 116.256 284.918C118.945 285.401 115.745 287.245 113.392 265.465C112.384 256.175 111.112 244.124 103.702 236.146C98.8554 237.118 108.85 234.408 112.057 263.205L112.058 263.207Z" fill="#2A2A2A"/>
<path d="M91.3968 239.128C90.5426 239.378 98.488 244.508 103.78 262.543C105.782 269.366 106.978 276.443 108.08 283.452C108.227 283.479 107.883 283.417 109.02 283.62C109.052 283.626 106.804 254.353 92.385 238.841C92.3669 238.846 91.9289 238.973 91.3986 239.128L91.3968 239.128Z" fill="#2A2A2A"/>
<path d="M94.7938 263.826C95.1015 264.826 100.021 282 101.112 282.196C103.259 282.584 102.013 284.439 97.0978 267.738C94.316 258.281 91.2681 248.293 84.0702 241.476C80.1989 242.816 87.5199 240.118 94.7938 263.826Z" fill="#2A2A2A"/>
<path d="M92.1423 284.564C92.3396 284.831 92.6617 284.913 92.9242 284.704C91.974 284.53 92.1568 284.583 92.1423 284.564Z" fill="#2A2A2A"/>
<path d="M89.6284 280.081C91.9125 280.512 90.4465 282.032 86.1697 268.08C84.0811 261.264 80.8631 250.372 72.4073 245.886C71.2526 246.352 71.24 246.359 71.03 246.445C79.3609 250.21 82.6965 260.468 85.1218 268.374C85.4186 269.34 88.642 279.897 89.6302 280.081L89.6284 280.081Z" fill="#2A2A2A"/>
<path d="M81.0044 278.455C84.4468 279.1 81.1438 279.977 76.4181 267.945C73.9404 261.637 71.5532 253.447 65.595 248.679C63.1173 249.703 64.8873 248.224 68.661 253.591C73.2255 260.08 74.5902 268.192 78.5429 275.121C78.8036 275.578 80.4089 278.345 81.0044 278.457L81.0044 278.455Z" fill="#2A2A2A"/>
<path d="M75.676 277.467C68.4691 270.351 67.3415 258.512 60.6413 250.743C58.0659 251.827 60.3409 249.231 65.6927 261.728C67.9804 267.067 70.0075 272.747 73.8571 277.135C73.9005 277.142 75.2381 277.387 75.6779 277.467L75.676 277.467Z" fill="#2A2A2A"/>
<path d="M56.7827 274.371C59.8559 274.836 57.1718 275.514 50.9259 262.929C49.8255 260.714 48.8861 258.148 47.1396 256.556C47.0763 256.582 46.5623 256.8 45.9885 257.042C48.7975 259.06 48.9839 263.401 55.5284 272.917C56.6451 274.541 56.4949 274.328 56.7827 274.371Z" fill="#2A2A2A"/>
<path d="M41.4854 285.507C41.5035 285.519 42.1405 285.936 42.3541 286.078C42.7993 286.375 47.7657 282.973 51.2352 278.94C52.7627 277.163 52.7284 277.5 51.2044 277.254C48.5873 280.523 45.3024 283.376 41.4854 285.507Z" fill="#2A2A2A"/>
<path d="M49.5052 273.217C52.5332 273.735 50.669 274.382 47.7569 267.731C46.3271 264.468 44.9751 260.932 42.2965 258.579C42.2784 258.586 41.3028 258.985 41.1436 259.051C45.3823 262.321 46.2963 268.909 49.5052 273.217Z" fill="#2A2A2A"/>
<path d="M36.8178 261.811C35.8748 260.947 36.2006 261.033 34.7744 261.59C38.1752 263.998 40.2457 268.003 41.9198 271.871C42.0121 271.887 42.2293 271.925 43.2031 272.098C41.7407 268.602 39.8765 264.613 36.8178 261.811Z" fill="#2A2A2A"/>
<path d="M31.6523 294.136C31.4424 300.312 29.8768 309.374 35.0187 315.269C40.1081 316.294 32.5355 315.709 32.3365 303.424C32.2351 297.061 33.826 290.251 31.3845 284.027C27.5855 281.951 32.0324 282.914 31.6505 294.136L31.6523 294.136Z" fill="#2A2A2A"/>
<path d="M30.2369 279.009C32.0794 277.715 33.7535 276.283 35.129 274.878C32.4504 274.567 34.8576 274.565 29.1184 278.442C29.227 278.496 29.3374 278.548 30.2369 279.009Z" fill="#2A2A2A"/>
<path d="M29.0316 263.798C26.943 264.589 27.913 263.101 32.8866 270.48C32.9047 270.481 33.3355 270.532 34.3273 270.666C32.74 268.251 31.0279 265.885 29.0316 263.798Z" fill="#2A2A2A"/>
<path d="M24.4671 265.51C22.0997 266.388 23.497 265.118 27.2923 269.907C27.7448 269.943 28.1936 269.98 28.7601 270.032C27.5421 268.344 26.105 266.83 24.4671 265.51Z" fill="#2A2A2A"/>
<path d="M239.302 249.263C240.786 247.161 242.392 244.881 244.661 243.831C243.776 243.601 244.004 243.665 243.123 243.43C241.134 244.756 239.74 246.732 238.461 248.554C234.347 254.415 233.748 252.619 235.342 253.621C235.947 254.001 238.886 249.848 239.302 249.261L239.302 249.263Z" fill="#2A2A2A"/>
<path d="M230.959 208.037C227.797 208.11 231.827 207.165 235.462 219.617C237.342 226.052 238.45 233.364 242.47 239.238C245.192 239.928 244.073 240.183 242.052 236.446C238.008 228.973 237.726 220.068 233.858 212.298C233.543 211.664 231.596 208.022 230.961 208.037L230.959 208.037Z" fill="#2A2A2A"/>
<path d="M252.455 304.832C252.437 304.832 251.492 304.912 251.311 304.927C249.586 311.718 245.199 317.113 240.452 321.978C232.702 329.92 231.772 329.483 235.925 327.74C236.412 327.535 249.713 316.434 252.453 304.832L252.455 304.832Z" fill="#2A2A2A"/>
<path d="M246.35 295.228C240.499 285.664 241.648 273.83 237.934 263.265C236.106 258.062 235.666 258.42 233.808 257.249C242.466 270.271 237.19 290.33 249.825 301.05C253.441 300.804 250.386 301.826 246.35 295.228Z" fill="#2A2A2A"/>
<path d="M271.774 301.796C269.207 302.432 271.403 301.154 265.928 308.444C260.165 316.117 257.613 317.107 263.11 313.719C266.311 309.956 269.191 305.99 271.774 301.796Z" fill="#2A2A2A"/>
<path d="M325.83 329.937C325.886 329.795 326.184 329.034 326.315 328.698C326.794 327.473 326.191 330.632 303.908 334.306C296.281 335.564 288.511 336.862 281.18 340.299C280.233 340.743 275.509 343.139 275.191 344.017C273.484 348.714 274.61 342.229 291.416 337.89C302.793 334.953 314.872 334.738 325.83 329.937Z" fill="#2A2A2A"/>
<path d="M230.083 334.218C226.47 335.568 227.525 333.992 236.921 336.944C241.853 338.496 247 340.081 252.069 338.641C256.304 334.419 252.746 339.262 244.303 337.78C239.286 336.899 231.565 333.664 230.085 334.218L230.083 334.218Z" fill="#2A2A2A"/>
<path d="M315.578 345.563C316.689 344.994 320.848 342.615 321.294 341.485C322.968 337.224 322.45 340.476 316.063 344.043C304.161 350.689 290.024 348.345 277.355 353.227C276.021 353.742 270.85 356.039 270.488 357.048C270.338 357.467 269.96 358.521 269.922 358.629C282.689 348.463 301.108 352.962 315.578 345.561L315.578 345.563Z" fill="#2A2A2A"/>
<path d="M271.607 308.194C273.592 305.652 275.207 303.142 276.62 300.518C274.029 301.229 276.286 299.959 271.837 306.075C268.422 310.769 266.197 311.895 271.607 308.194Z" fill="#2A2A2A"/>
<path d="M270.483 315.709C274.532 315.373 273.759 315.619 275.187 313.993C272.139 314.653 269.213 314.493 268.494 314.957C265.794 316.706 265.73 316.102 270.483 315.709Z" fill="#2A2A2A"/>
<path d="M265.602 320.329C270.213 320.438 269.743 320.096 270.881 318.83C267.765 319.511 264.672 319.099 261.763 319.114C259.039 320.717 259.289 320.303 260.976 320.246C262.512 320.193 264.074 320.294 265.6 320.329L265.602 320.329Z" fill="#2A2A2A"/>
<path d="M271.759 325.407C273.745 320.844 275.513 319.502 271.008 324.417C265.131 337.474 266.449 351.95 261.937 365.325C260.835 368.592 260.301 369.096 261.191 367.867C267.611 359.025 265.376 340.079 271.757 325.407L271.759 325.407Z" fill="#2A2A2A"/>
<path d="M244.949 331.846C237.893 330.516 238.716 330.781 236.066 331.87C242.913 331.835 249.758 334.869 256.791 333.869C259.414 331.182 258.053 333.64 250.245 332.719C248.47 332.51 246.68 332.172 244.949 331.846Z" fill="#2A2A2A"/>
<path d="M275.904 331.233C276.673 329.301 275.945 331.624 278.664 321.098C280.87 312.555 280.756 313.48 280.347 313.954C278.684 315.869 279.4 313.594 275.538 328.963C272.411 341.406 272.744 339.18 275.905 331.234L275.904 331.233Z" fill="#2A2A2A"/>
<path d="M258.844 370.873C261.276 367.927 259.421 350.792 259.345 346.924C259.121 335.62 263.075 332.933 259.347 336.771C256.625 346.592 259.966 356.541 258.788 366.452C258.065 372.529 255.919 374.416 258.844 370.873Z" fill="#2A2A2A"/>
<path d="M250.417 379.538C250.806 379.199 250.791 379.371 251.541 377.746C256.111 367.826 254.842 356.39 255.609 346.451C256.142 339.575 256.978 339.197 256.313 339.87C252.27 343.978 256.505 362.655 251.088 376.055C249.03 381.146 246.001 383.374 250.417 379.537L250.417 379.538Z" fill="#2A2A2A"/>
<path d="M262.708 303.616C260.067 304.032 262.791 303.17 257.112 311.532C249.91 322.138 242.665 324.969 250.354 320.963C251.999 320.108 259.043 312.328 262.706 303.614L262.708 303.616Z" fill="#2A2A2A"/>
<path d="M231.066 305.721C231.046 305.721 230.048 305.721 229.913 305.721C226.602 315.2 221.665 324.029 215.56 331.624C211.454 336.735 210.739 336.273 213.794 335.424C221.374 326.837 227.27 316.716 231.064 305.719L231.066 305.721Z" fill="#2A2A2A"/>
<path d="M228.478 301.727C233.288 301.76 224.067 301.91 219.895 283.026C217.195 270.795 218.051 256.423 211.343 245.173C207.28 243.331 211.014 244.021 214.051 254.327C217.924 267.474 216.226 281.728 222.615 294.115C224.219 297.224 227.551 301.719 228.476 301.727L228.478 301.727Z" fill="#2A2A2A"/>
<path d="M213.45 305.177C211.376 305.041 213.349 304.214 208.545 313.212C202.562 324.415 194.014 334.095 183.806 341.222C184.41 341.157 185.122 341.076 186.057 340.963C197.816 332.284 207.619 319.984 213.452 305.177L213.45 305.177Z" fill="#2A2A2A"/>
<path d="M172.532 341.966C173.156 341.949 173.672 341.93 174.177 341.912C187.089 332.435 197.282 319.345 203.425 304.326C203.331 304.317 202.355 304.211 202.301 304.203C190.779 332.077 170.746 342.016 172.53 341.966L172.532 341.966Z" fill="#2A2A2A"/>
<path d="M160.227 341.828C160.876 341.862 161.238 341.876 161.568 341.89C174.431 330.899 184.841 317.49 192.325 302.928C192.178 302.905 191.326 302.784 191.179 302.762C176.995 330.119 158.953 341.761 160.227 341.828Z" fill="#2A2A2A"/>
<path d="M148.135 340.702C148.634 340.769 149.423 340.871 149.442 340.873C163.658 330.222 174.661 316.317 181.867 301.223C181.019 301.076 181.433 301.149 180.749 301.028C166.873 329.8 146.712 340.506 148.135 340.7L148.135 340.702Z" fill="#2A2A2A"/>
<path d="M134.162 338.05C134.644 338.167 135.371 338.341 135.438 338.356C151.012 328.749 163.151 314.741 170.664 299.187C168.574 298.796 170.767 298.104 164.578 307.897C149.688 331.466 132.407 337.617 134.162 338.048L134.162 338.05Z" fill="#2A2A2A"/>
<path d="M129.337 329.756C141.009 320.488 151.108 309.469 159.367 297.031C157.523 296.675 159.171 295.97 153.23 303.784C144.374 315.429 133.65 325.793 121.439 334.237C122.737 334.699 122.053 335.54 129.337 329.756Z" fill="#2A2A2A"/>
<path d="M111.649 330.3C111.997 330.457 112.648 330.744 112.666 330.753C127.039 321.717 138.678 309.04 146.596 294.579C145.583 294.384 145.664 294.399 145.469 294.361C130.89 320.742 110.703 329.875 111.651 330.302L111.649 330.3Z" fill="#2A2A2A"/>
<path d="M147.818 290.714C147.8 290.708 147.159 290.645 148.017 290.809C147.957 290.766 147.892 290.732 147.818 290.714Z" fill="#2A2A2A"/>
<path d="M102.441 325.722C102.732 325.883 103.061 326.058 103.349 326.213C116.04 317.413 126.519 305.639 133.859 292.066C131.958 291.689 133.701 291.068 128.304 299.182C115.114 319.011 101.458 325.187 102.441 325.722Z" fill="#2A2A2A"/>
<path d="M127.982 253.6C127.768 262.39 126.214 271.129 128.208 279.926C128.908 283.012 130.66 287.534 131.361 287.665C131.618 287.712 132.215 287.823 132.561 287.887C122.467 272.009 135.015 249.363 124.595 233.14C120.616 233.472 128.461 233.744 127.98 253.6L127.982 253.6Z" fill="#2A2A2A"/>
<path d="M94.0049 320.947C94.4212 321.189 94.3795 321.167 94.899 321.467C107.505 313.277 117.624 302.355 124.811 290.296C124.791 290.292 124.449 290.225 123.663 290.076C110.131 312.55 93.2194 320.488 94.0049 320.947Z" fill="#2A2A2A"/>
<path d="M116.167 288.7C115.43 288.571 115.081 288.51 114.967 288.489C108.373 297.494 100.406 305.378 91.5342 311.767C84.9191 316.531 84.8467 315.461 86.5081 316.477C97.8851 309.357 108.008 299.965 116.167 288.7Z" fill="#2A2A2A"/>
<path d="M70.8779 306.385C70.896 306.398 71.22 306.618 71.696 306.941C72.1268 307.233 84.5752 298.531 94.6526 285.019C94.3648 284.967 93.9015 284.883 93.6517 284.838C93.0092 284.721 86.2583 295.857 70.8797 306.387L70.8779 306.385Z" fill="#2A2A2A"/>
<path d="M61.8013 300.024C62.1922 300.3 62.4365 300.474 62.6791 300.645C63.1171 300.955 75.8297 295.413 86.0302 283.427C86.0212 283.427 86.146 283.449 84.9859 283.231C84.2963 283.102 77.3409 293.338 61.8031 300.024L61.8013 300.024Z" fill="#2A2A2A"/>
<path d="M23.6147 275.839C24.5504 275.335 25.4137 274.701 26.1793 273.955C26.1322 273.952 24.954 273.836 24.6807 273.808C22.2554 275.757 21.4048 274.849 23.6165 275.839L23.6147 275.839Z" fill="#2A2A2A"/>
<path d="M152.907 348.328C157.562 349.49 156.104 349.682 158.417 348.778C148.985 345.606 143.44 345.237 135.974 346.117C130.132 346.805 140.387 345.207 152.907 348.328Z" fill="#2A2A2A"/>
<path d="M147.369 350.122C152.279 351.579 150.594 351.668 152.746 350.909C153.621 350.6 137.657 345.748 132.253 346.648C120.509 348.608 132.747 345.789 147.369 350.122Z" fill="#2A2A2A"/>
<path d="M140.084 353.024C146.005 354.519 144.249 354.752 146.305 353.697C137.654 350.777 128.566 349.373 119.524 349.512C108.183 352.52 121.51 348.328 140.084 353.024Z" fill="#2A2A2A"/>
<path d="M179.951 375.844C185.029 378.175 192.229 381.159 197.876 380.956C201.269 378.528 199.709 380.413 194.542 379.632C182.533 377.817 174.239 369.469 163.56 370.463C162.485 374.052 162.61 367.882 179.952 375.844L179.951 375.844Z" fill="#2A2A2A"/>
<path d="M160.482 352.267C159.613 352.587 158.65 355.543 158.422 356.641C157.774 359.761 158.37 362.875 158.974 365.995C159.939 370.979 159.378 370.95 160.207 368.303C160.534 367.257 160.457 368.481 159.613 363.47C157.687 352.032 165.274 350.501 160.484 352.269L160.482 352.267Z" fill="#2A2A2A"/>
<path d="M155.029 354.253C154.346 354.497 154.091 358.049 154.091 359.041C154.091 365.398 157.541 371.242 157.541 377.47C157.541 379.007 157.289 379.771 157.718 377.787C158.433 374.477 158.949 375.339 156.891 368.109C155.863 364.501 154.833 360.865 155.28 357.137C155.722 353.462 157.045 353.533 155.029 354.253Z" fill="#2A2A2A"/>
<path d="M147.608 357.372C146.097 368.324 153.28 378.063 155.945 387.92C156.321 385.202 156.886 386.1 153.219 377.519C144.066 356.091 151.719 355.25 147.608 357.372Z" fill="#2A2A2A"/>
<path d="M133.965 356.261C140.103 358.252 138.419 358.534 140.097 357.393C130.894 353.406 120.996 351.629 111.329 351.987C110.726 352.009 107.409 353.207 106.746 353.443C115.837 352.448 125.137 353.395 133.965 356.259L133.965 356.261Z" fill="#2A2A2A"/>
<path d="M141.295 361.279C140.781 361.656 141.576 366.192 141.728 366.925C142.973 372.915 145.851 378.468 148.479 383.516C155.463 396.931 154.402 398.473 154.652 397.078C154.792 396.299 154.98 395.137 154.983 395.116C151.096 383.672 142.191 373.437 142.191 361.145C142.191 360.513 142.403 360.468 141.295 361.279Z" fill="#2A2A2A"/>
<path d="M133.828 362.032C134.007 361.894 134.845 361.249 134.865 361.234C123.113 356.731 110.498 355.282 98.343 356.796C86.9226 361.872 106.969 352.05 133.829 362.03L133.828 362.032Z" fill="#2A2A2A"/>
<path d="M119.859 364.587C129.392 366.562 127.25 367.3 129.039 365.84C116.342 361.799 103.228 360.774 90.8736 362.297C86.1552 362.879 86.8339 362.802 83.8748 364.581C95.706 362.12 108.066 362.146 119.859 364.589L119.859 364.587Z" fill="#2A2A2A"/>
<path d="M114.053 369.437C123.696 371.455 121.62 372.148 123.303 370.679C110.878 366.836 97.572 365.413 84.3418 366.674C78.8795 367.194 79.5384 367.185 76.8579 368.805C89.0113 366.679 101.728 366.858 114.053 369.437Z" fill="#2A2A2A"/>
<path d="M116.391 376.969C116.483 376.881 117.296 376.117 117.314 376.1C103.061 371.349 87.9325 369.65 73.1204 371.071C65.7198 375.559 84.1842 366.45 116.391 376.969Z" fill="#2A2A2A"/>
<path d="M134.351 366.675C133.086 376.107 138.436 384.228 143.34 391.717C153.543 407.315 150.877 411.856 151.563 409.658C151.805 408.876 152.12 407.815 152.156 407.69C149.329 393.498 135.254 383.848 135.254 369.318C135.254 365.256 136.425 365.044 134.351 366.677L134.351 366.675Z" fill="#2A2A2A"/>
<path d="M181.734 366.219C189.073 369.933 196.783 375.048 205.667 375.421C208.502 373.418 207.476 375.011 201.666 373.795C191.322 371.63 183.411 364.466 173.385 361.587C172.219 361.253 167.765 360.19 167.349 360.941C165.846 363.642 167.3 358.911 181.734 366.219Z" fill="#2A2A2A"/>
<path d="M165.196 350.527C164.418 350.812 162.94 355.573 163.622 359.78C164.768 357.538 164.507 358.501 164.507 357.275C164.507 350.301 168.516 349.306 165.196 350.527Z" fill="#2A2A2A"/>
<path d="M256.994 325.198C265.656 325.521 265.379 324.853 266.539 323.598C267.356 322.713 266.373 324.188 260.122 324.175C251.425 324.156 254.328 323.33 250.484 325.271C252.623 325.036 254.815 325.118 256.994 325.2L256.994 325.198Z" fill="#2A2A2A"/>
<path d="M251.633 327.995C245.827 326.893 246.58 327.21 244.374 328.236C242.902 328.918 244.177 327.71 251.242 329.051C254.46 329.661 257.705 330.283 260.896 329.439C261.18 329.364 260.86 329.666 263.097 327.291C259.642 329.521 255.195 328.672 251.633 327.995Z" fill="#2A2A2A"/>
<path d="M239.302 357.639C238.814 362.506 239.268 367.403 239.268 372.186C239.268 388.869 230.738 391.592 233.572 390.279C236.001 389.155 235.724 389.44 236.741 387.836C240.606 381.75 240.475 374.627 240.256 367.438C239.847 353.964 241.605 353.438 240.756 354.146C239.512 355.183 239.605 354.635 239.304 357.637L239.302 357.639Z" fill="#2A2A2A"/>
<path d="M238.864 347.217C239.456 347.279 242.54 347.556 243.047 347.109C246.03 344.47 243.547 348.151 231.424 344.48C225.871 342.798 220.154 340.183 213.966 339.443C208.665 340.907 210.082 340.118 213.698 340.53C222.251 341.503 229.949 346.29 238.864 347.215L238.864 347.217Z" fill="#2A2A2A"/>
<path d="M238.948 350.648C242.291 347.829 240.855 349.628 236.135 349.843C226.534 350.277 218.192 344.521 209.104 341.781C206.699 341.056 207.514 341.131 204.406 341.817C216.123 343.75 226.599 352.891 238.949 350.648L238.948 350.648Z" fill="#2A2A2A"/>
<path d="M221.86 305.587C219.777 305.52 221.683 304.707 217.993 313.161C213.495 323.466 206.241 332.657 197.023 339.268C199.869 338.742 199.266 339.063 201.478 337.196C210.931 329.219 218.302 318.11 221.859 305.589L221.86 305.587Z" fill="#2A2A2A"/>
<path d="M189.643 344.564C188.18 344.873 189.825 344.327 194.18 346.016C204.505 350.025 210.997 359.591 224.094 359.735C224.803 359.742 227.54 359.737 228.155 359.271C233.067 355.537 226.135 361.536 214.604 356.604C206.874 353.298 200.6 346.466 192.004 344.123C191.451 344.209 190.511 344.377 189.643 344.56L189.643 344.564Z" fill="#2A2A2A"/>
<path d="M232.705 360.617C230.64 370.416 236.893 381.935 226.065 393.649C228.684 392.506 228.32 392.681 228.483 392.467C234.276 384.782 234.018 377.489 233.549 371.128C232.635 358.741 235.536 358.42 232.705 360.617Z" fill="#2A2A2A"/>
<path d="M198.835 342.958C196.967 343.312 199.689 342.001 213.629 348.798C220.043 351.925 226.385 355 233.601 355.034C233.795 354.879 233.741 354.928 235.04 353.876C220.856 354.769 207.331 341.351 198.835 342.958Z" fill="#2A2A2A"/>
<path d="M220.537 364.897C223.873 362.5 222.179 364.628 215.989 363.319C204.699 360.932 196.877 350.989 185.447 348.563C184.15 348.287 179.797 347.653 178.673 348.373C178.021 348.791 177.444 349.21 176.876 349.658C192.823 345.632 204.075 365.141 220.537 364.897Z" fill="#2A2A2A"/>
<path d="M239.161 305.572C238.595 305.591 238.738 305.585 238.191 305.602C237.663 305.619 236.461 311.138 232.792 318.703C225.971 332.778 219.081 333.974 224.745 332.014C225.802 331.648 228.756 327.656 229.52 326.556C233.902 320.244 236.645 312.807 239.159 305.57L239.161 305.572Z" fill="#2A2A2A"/>
<path d="M247.847 347.993C245.795 356.004 246.368 364.447 245.518 371.774C243.856 386.078 237.809 388.51 242.819 385.263C249.201 373.403 245.454 359.401 249.362 346.609C248.984 346.958 248.457 347.443 247.849 347.993L247.847 347.993Z" fill="#2A2A2A"/>
<path d="M221.361 337.241C220.065 337.655 221.743 336.614 230.162 340.34C234.682 342.341 239.208 344.513 244.176 344.453C246.477 344.425 246.082 344.394 247.749 342.827C237.731 345.785 227.406 335.305 221.361 337.241Z" fill="#2A2A2A"/>
<path d="M228.459 363.862C227.033 364.936 227.786 362.526 225.29 378.489C224.282 384.931 223.053 391.454 219.115 396.636C219.135 396.629 220.396 396.092 220.698 395.963C224.923 394.162 228.667 363.707 228.459 363.863L228.459 363.862Z" fill="#2A2A2A"/>
<path d="M172.469 353.85C169.768 356.824 172.742 351.174 193.033 362.368C198.25 365.245 203.483 368.126 209.35 369.331C209.942 369.452 213.225 370.088 213.781 369.694C217.33 367.188 213.307 371.203 200.33 364.962C191.746 360.833 182.783 354.098 172.469 353.85Z" fill="#2A2A2A"/>
<path d="M78.0505 213.005C80.2387 213.255 80.3997 213.617 76.1863 211.718C49.8145 209.583 25.8208 223.567 4.9637 235.706C-28.8794 255.409 -26.1301 250.479 -26.1301 253.277C7.56813 239.21 39.7877 208.619 78.0505 213.005Z" fill="#2A2A2A"/>
<path d="M84.7581 215.31C83.2794 214.735 82.684 214.489 82.3962 214.372C46.4591 217.404 24.8418 232.089 3.88696 243.872C-27.0114 261.249 -26.13 255.299 -26.13 258.87C10.0677 247.56 32.4451 218.828 84.7581 215.31Z" fill="#2A2A2A"/>
<path d="M11.1989 247.336C37.8531 232.724 38.7634 228.025 78.7583 221.195C97.0725 218.062 95.8617 219.25 92.4917 218.116C91.8112 217.887 57.8469 222.144 40.0901 230.082C20.603 238.794 6.20177 252.863 -26.1318 260.552L-26.1318 261.695C-12.8075 258.56 -0.350014 253.665 11.1989 247.335L11.1989 247.336Z" fill="#2A2A2A"/>
<path d="M104.616 222.608C109.202 222.536 109.304 222.996 103.746 221.512C36.8143 222.968 13.2442 261.13 -26.1299 264.774L-26.1299 265.891C13.7618 262.256 37.4695 223.664 104.616 222.608Z" fill="#2A2A2A"/>
<path d="M3.90691 264.447C34.0578 253.376 46.727 236.954 89.2846 229.422C117.665 224.4 126.192 226.397 118.071 224.768C117.316 224.617 86.0468 226.901 63.3617 234.856C36.8233 244.161 14.5671 263.429 -12.8291 267.783C-9.01205 268.009 -7.36868 268.589 3.9051 264.449L3.90691 264.447Z" fill="#2A2A2A"/>
<path d="M8.05674 267.047C9.4576 266.873 10.7842 266.437 12.0982 265.928C8.36986 266.909 3.66053 267.591 8.05674 267.047Z" fill="#2A2A2A"/>
<path d="M27.5657 260.11C38.2567 256.075 36.0414 257.134 47.3025 250.471C81.9998 229.952 87.0403 232.32 126.489 229.023C67.5569 227.999 63.0973 243.187 27.5657 260.11Z" fill="#2A2A2A"/>
<path d="M213.754 202.145C235.612 196.297 243.498 204.269 238.611 199.937C237.949 199.349 222.807 195.902 201.427 205.389C194.49 208.468 187.894 212.348 181.482 216.401C189.608 214.002 197.738 206.428 213.754 202.143L213.754 202.145Z" fill="#2A2A2A"/>
<path d="M185.33 229.055C185.69 229.075 186.53 229.124 186.55 229.125C184.448 226.763 183.81 223.138 182.161 220.361C181.753 220.488 181.192 220.663 181.082 220.699C182.544 223.009 184.338 229.001 185.332 229.055L185.33 229.055Z" fill="#2A2A2A"/>
<path d="M178.602 228.704C178.879 228.717 179.757 228.76 179.775 228.76C179.066 227.897 178.548 226.856 178.067 225.892C175.926 221.599 175.792 222.308 174.563 222.659C176.695 224.432 177.788 228.667 178.602 228.704Z" fill="#2A2A2A"/>
<path d="M234.492 196.097C234.474 196.079 233.706 195.325 233.529 195.146C232.052 193.658 207.101 196.974 190.546 208.015C186.459 210.741 182.387 213.098 178.369 215.116C171.157 219.697 171.946 219.131 172.889 218.866C181.232 216.518 205.168 195.225 234.492 196.097Z" fill="#2A2A2A"/>
<path d="M229.681 191.055C223.006 190.345 217.529 192.071 211.852 194.266C204.574 197.08 205.181 196.69 204.469 197.313C200.889 200.438 200.359 199.79 210.252 196.069C215.26 194.188 218.894 192.577 224.378 192.124C231.285 191.553 231.889 193.531 229.683 191.055L229.681 191.055Z" fill="#2A2A2A"/>
<path d="M225.571 186.134C221.777 185.353 218.55 187.193 215.242 189.181C209.014 192.918 212.29 190.108 208.956 193.246C214.382 192.163 218.456 187.128 223.775 187.07C226.872 187.035 227.728 188.896 225.571 186.136L225.571 186.134Z" fill="#2A2A2A"/>
<path d="M-9.01589 281.864C4.40079 270.411 4.06958 271.496 3.2678 271.539C0.13127 271.71 1.68415 271.835 -17.05 287.188C-27.5075 295.758 -26.132 293.132 -26.132 295.463C-20.1467 291.363 -14.5397 286.578 -9.0177 281.864L-9.01589 281.864Z" fill="#2A2A2A"/>
<path d="M120.056 345.308C121.564 344.912 120.969 345.058 122.511 344.554C117.704 342.719 101.022 347.126 91.8077 351.049C59.7438 364.708 36.4216 392.565 -26.1299 407.034L-26.1299 408.177C52.7467 390.031 75.0608 347.008 120.056 345.309L120.056 345.308Z" fill="#2A2A2A"/>
<path d="M98.6651 345.772C69.0391 351.234 44.9495 381.403 -8.50911 392.817C-28.0885 396.998 -26.1302 394.413 -26.1302 396.798C36.4738 389.821 60.2756 358.04 98.6651 345.772Z" fill="#2A2A2A"/>
<path d="M48.1312 365.122C53.1211 361.898 52.484 362.42 51.2334 362.907C39.2067 367.58 33.0893 377.146 5.92107 380.657C-4.35727 381.985 -14.8999 382.44 -25.1637 383.141C-26.38 383.225 -26.1302 382.915 -26.1302 384.333C16.3189 381.563 23.0643 381.319 48.1312 365.122Z" fill="#2A2A2A"/>
<path d="M66.8799 352.36C68.4183 351.726 73.8751 345.341 78.6098 341.354C88.9171 332.674 94.2961 335.786 89.0637 334.119C79.6125 336.791 73.0353 345.565 66.3894 351.567C63.7561 353.945 62.9579 353.977 66.8799 352.362L66.8799 352.36Z" fill="#2A2A2A"/>
<path d="M95.974 336.336C95.9198 336.32 95.4944 336.182 94.718 335.93C94.0936 335.728 83.7048 341.295 74.2808 349.306C81.095 346.497 82.6153 342.952 95.974 336.336Z" fill="#2A2A2A"/>
<path d="M87.3155 344.461C88.8593 343.998 93.5651 340.133 102.546 338.468C100.634 337.847 100.656 337.272 95.0492 339.432C91.1163 340.946 87.5761 342.973 84.4631 345.365C85.1364 345.14 85.7409 344.933 87.3155 344.461Z" fill="#2A2A2A"/>
<path d="M55.8757 356.85C58.263 355.89 65.7468 346.119 69.4734 342.108C80.4992 330.242 87.5994 333.638 82.6331 332.085C81.9833 331.881 79.587 332.995 78.9789 333.287C72.7221 336.308 68.3133 341.574 63.8808 346.902C53.7672 359.058 49.9158 359.245 55.8757 356.847L55.8757 356.85Z" fill="#2A2A2A"/>
<path d="M55.3457 348.573C59.3727 343.922 63.5101 339.173 68.4058 335.417C76.5087 329.2 79.2868 331.039 75.5132 329.892C59.3491 336.806 51.6137 356.052 36.5989 364.171C41.2901 362.545 42.5896 363.306 55.3457 348.573Z" fill="#2A2A2A"/>
<path d="M31.9201 365.741C33.1417 365.346 39.9089 358.443 47.1195 348.897C51.056 343.685 55.1626 338.24 60.4149 334.063C69.2743 327.02 73.5909 329.293 68.9485 327.936C52.8369 333.61 47.2878 350.859 31.4079 364.971C29.3283 366.819 28.503 366.849 31.9183 365.741L31.9201 365.741Z" fill="#2A2A2A"/>
<path d="M27.7899 364.266C39.3135 351.308 40.7034 329.122 63.3162 326.315C63.2963 326.31 61.8628 325.909 61.1841 325.72C59.843 325.349 54.721 327.529 52.9202 328.493C35.4421 337.871 35.6883 361.409 19.6907 369.277C23.2109 368.391 23.9801 368.546 27.7881 364.264L27.7899 364.266Z" fill="#2A2A2A"/>
<path d="M10.1093 371.376C11.1174 371.188 15.7887 365.609 17.1824 363.765C28.0073 349.445 29.095 332.931 43.2375 326.849C52.3231 322.94 59.9644 325.321 52.4661 323.378C24.2409 326.815 30.9067 351.465 8.42432 371.684C8.44423 371.68 9.49034 371.492 10.1075 371.376L10.1093 371.376Z" fill="#2A2A2A"/>
<path d="M-4.80591 373.519C-4.61949 373.502 -3.45935 373.387 -2.55079 373.286C3.09786 372.659 13.3979 349.69 23.4681 337.752C40.1498 317.974 56.6343 324.359 47.1812 322.047C45.3098 321.59 39.3861 323.966 37.2703 325.036C14.6974 336.461 8.77547 366.892 -4.8041 373.519L-4.80591 373.519Z" fill="#2A2A2A"/>
<path d="M-13.7124 374.047C0.27077 361.119 3.45617 335.937 24.288 324.669C35.5708 318.565 42.7072 320.885 35.4423 319.403C15.5046 323.613 7.41439 337.768 -0.389839 352.282C-13.3052 376.299 -17.6706 374.136 -13.7124 374.047Z" fill="#2A2A2A"/>
<path d="M2.16592 333.438C18.1581 314.09 35.7701 319.224 25.3379 317.557C23.6746 317.29 18.5526 319.324 16.3572 320.428C-8.4382 332.877 -13.6163 367.099 -23.9543 373.476C-23.6105 373.521 -22.9426 373.605 -22.311 373.676C-14.885 367.861 -10.0074 348.17 2.16592 333.44L2.16592 333.438Z" fill="#2A2A2A"/>
<path d="M9.95011 298.725C8.83884 292.644 7.4398 284.754 1.46356 280.467C1.42012 280.506 0.793899 281.094 0.775801 281.11C0.283512 281.571 4.53855 282.647 7.13936 291.083C8.77912 296.405 9.07956 302.102 10.8659 307.42C11.0976 308.108 12.5093 311.961 13.1283 312.02C16.0241 312.293 12.7192 313.857 9.95192 298.725L9.95011 298.725Z" fill="#2A2A2A"/>
<path d="M13.1661 315.988C10.0712 315.69 9.88478 315.362 4.79719 317.435C-14.2844 325.211 -17.2237 341.255 -22.9357 358.56C-26.6116 369.694 -26.1301 364.814 -26.1301 369.575C-16.6011 351.204 -18.9775 323.332 13.1661 315.988Z" fill="#2A2A2A"/>
<path d="M-18.9664 329.015C-8.79845 312.936 6.21455 315.229 -3.66561 315.058C-4.83299 315.037 -17.9782 318.991 -25.3372 340.034C-26.3344 342.885 -26.1299 341.858 -26.1299 346.259C-24.4612 340.234 -22.2875 334.265 -18.9664 329.015Z" fill="#2A2A2A"/>
<path d="M101.939 334.043C106.404 335.464 102.641 334.99 98.1475 327.779C97.6009 327.479 97.0199 327.158 96.2725 326.74C97.6715 329.291 100.819 333.685 101.941 334.043L101.939 334.043Z" fill="#2A2A2A"/>
<path d="M93.0402 331.21C97.3966 332.599 92.5081 331.732 88.9933 322.554C88.8594 322.476 87.5418 321.687 87.5237 321.676C89.0856 326.364 92.1968 330.942 93.0402 331.21Z" fill="#2A2A2A"/>
<path d="M78.7402 311.603C79.5149 312.1 78.9773 311.755 79.7429 312.246C89.3715 305.378 98.1078 296.946 105.59 286.913C105.527 286.902 104.607 286.749 104.575 286.744C103.867 286.626 96.3378 299.178 78.7402 311.604L78.7402 311.603Z" fill="#2A2A2A"/>
<path d="M82.1934 327.79C87.2647 329.362 81.0314 327.908 78.027 317.592C77.2668 314.98 77.998 315.791 76.2551 314.663C77.0479 319.44 79.0659 323.975 82.1934 327.79Z" fill="#2A2A2A"/>
<path d="M70.279 316.417C73.1024 325.788 74.2463 325.368 75.5928 325.775C76.753 326.123 74.5666 325.618 72.4056 319.531C71.2817 316.367 70.5794 313.042 69.1261 309.952C65.5823 307.562 67.6528 307.705 70.279 316.419L70.279 316.417Z" fill="#2A2A2A"/>
<path d="M63.1191 322.155C68.1306 323.552 62.701 323.087 60.7083 314.554C59.7708 310.543 59.6495 306.333 58.2487 302.402C55.2261 300.246 57.1862 300.681 58.3428 307.112C59.2459 312.136 59.4649 317.982 63.1191 322.155Z" fill="#2A2A2A"/>
<path d="M56.0552 295.943C56.0859 295.965 56.6361 296.358 56.8696 296.526C57.2606 296.806 66.7226 290.839 74.2282 281.234C74.1214 281.215 73.2346 281.053 73.2165 281.049C72.5903 280.935 67.7253 288.881 56.0552 295.943Z" fill="#2A2A2A"/>
<path d="M54.6036 253.315C52.2073 254.35 54.4515 252.498 58.0912 261.939C59.5084 265.615 60.5961 269.443 62.2015 273.058C63.405 275.774 63.0974 275.324 64.6937 275.574C60.6395 268.6 59.7925 259.597 54.6036 253.315Z" fill="#2A2A2A"/>
<path d="M57.0702 320.508C49.275 311.535 52.1401 303.079 50.9238 297.093C48.5167 295.322 50.2433 295.335 50.2433 302.648C50.2361 307.427 50.4098 311.437 53.0595 316.542C55.1572 320.585 55.4793 320.085 57.0702 320.508Z" fill="#2A2A2A"/>
<path d="M59.2766 283.73C49.7222 292.468 48.211 290.248 50.1856 291.695C50.5765 291.982 58.5146 286.852 64.8909 279.568C62.7624 279.197 64.7063 278.765 59.2766 283.73Z" fill="#2A2A2A"/>
<path d="M49.6862 318.612C44.4321 311.569 47.8329 301.346 45.2682 292.899C42.139 290.587 44.9008 291.549 45.2592 300.078C45.4619 304.908 45.0474 309.963 46.5442 314.692C47.8202 318.724 48.307 318.271 49.688 318.612L49.6862 318.612Z" fill="#2A2A2A"/>
<path d="M36.7562 282.582C40.5244 280.066 44.3523 276.169 43.8365 276.091C43.0636 275.973 42.7849 275.932 42.7596 275.926C36.2186 283.221 34.3364 281.161 36.7562 282.582Z" fill="#2A2A2A"/>
<path d="M41.7388 316.719C46.9169 317.894 39.2195 317.527 39.2195 305.923C39.2195 300.129 40.8031 294.106 38.7254 288.387C36.2386 286.789 37.2612 287.087 38.0141 289.718C40.2457 297.514 36.2241 305.499 39.4421 313.322C39.7643 314.105 40.9407 316.538 41.7388 316.719Z" fill="#2A2A2A"/>
<path d="M25.8408 301.645C25.7594 295.325 27.0716 286.414 23.164 279.932C18.1705 277.679 24.8943 278.83 24.9051 293.345C24.9051 297.94 24.3024 303.61 25.5006 308.936C25.7214 309.919 26.8435 313.779 27.562 313.898C30.8524 314.442 26.0074 314.476 25.8408 301.645Z" fill="#2A2A2A"/>
<path d="M12.7155 279.061C11.9427 278.19 8.32834 274.519 7.74375 274.783C7.44692 274.918 7.17363 275.117 6.92749 275.337C14.3118 280.586 19.4501 289.522 19.8646 299.297C20.0455 303.588 19.4646 308.701 21.6817 313.007C21.7541 313.016 22.3459 313.1 23.0427 313.199C18.1705 305.427 25.4227 293.364 12.7173 279.061L12.7155 279.061Z" fill="#2A2A2A"/>
<path d="M9.9626 311.746C2.43529 306.079 5.56096 294.673 -4.91104 286.408C-4.97257 286.464 -5.65852 287.104 -5.7273 287.167C4.08048 294.747 1.46157 304.966 8.14005 311.612C8.17625 311.614 9.7056 311.726 9.9626 311.746Z" fill="#2A2A2A"/>
<path d="M-8.88168 290.093C-10.7024 291.779 -9.12421 289.371 -5.03025 297.595C-3.30543 301.059 -1.96973 304.748 0.189463 307.985C2.83733 311.957 3.26084 311.332 4.79743 311.412C-1.87381 306.413 -2.61948 296.064 -8.88168 290.093Z" fill="#2A2A2A"/>
<path d="M16.3156 172.863C12.6777 170.12 -6.05282 163.235 -26.1299 164.835L-26.1299 165.954C8.16926 163.209 31.2091 184.096 16.3156 172.861L16.3156 172.863Z" fill="#2A2A2A"/>
<path d="M26.744 180.687C10.2957 172.393 -8.0348 168.704 -26.13 169.73C-26.13 171.643 -27.4784 170.426 -17.2218 170.722C10.8441 171.535 30.0253 184.253 26.744 180.687Z" fill="#2A2A2A"/>
<path d="M10.0186 168.05C5.5373 164.58 6.68296 165.266 4.75181 164.479C-4.74647 160.61 -15.1949 158.163 -26.1303 157.565C-26.1303 160.278 -27.2379 157.069 -10.4168 160.878C-3.42706 162.461 3.39259 164.82 10.0186 168.05Z" fill="#2A2A2A"/>
<path d="M15.3779 167.28C15.8304 167.625 16.0295 167.778 16.2123 167.916C16.7028 168.289 26.6535 163.364 30.1864 152.054C30.1665 152.047 29.4824 151.784 29.3358 151.728C28.7295 151.495 26.9377 162.185 15.3797 167.278L15.3779 167.28Z" fill="#2A2A2A"/>
<path d="M8.24512 161.76C8.58357 162.027 8.86591 162.251 9.04327 162.389C9.82334 163 21.0808 154.999 21.8211 148.851C21.7215 148.813 20.7985 148.459 20.7641 148.446C20.5397 152.776 13.2259 159.314 8.24512 161.76Z" fill="#2A2A2A"/>
<path d="M1.10169 161.003C-3.55695 157.244 -2.46378 157.941 -4.01124 157.261C-11.0644 154.163 -18.4378 152.164 -26.1298 151.267C-26.1298 153.356 -27.4293 151.569 -17.5564 153.9C-10.7621 155.504 -4.51257 157.952 1.10169 161.003Z" fill="#2A2A2A"/>
<path d="M16.2032 142.49C16.4204 142.708 15.977 142.509 18.8203 143.581C10.9871 135.523 2.92226 128.43 -5.56972 121.961C-5.62583 121.978 -5.49732 121.939 -6.85474 122.368C1.27165 128.508 8.95643 135.21 16.2032 142.488L16.2032 142.49Z" fill="#2A2A2A"/>
<path d="M23.0951 149.339C22.429 149.084 22.5195 149.102 22.5937 149.184C22.7313 149.334 22.9141 149.39 23.0951 149.339Z" fill="#2A2A2A"/>
<path d="M40.2765 191.732C36.8522 189.485 39.0982 190.233 35.0242 188.478C40.5534 195.62 51.7149 196.502 55.8523 204.341C55.9989 204.349 56.7899 204.388 57.0975 204.407C53.9592 197.585 45.5921 195.219 40.2783 191.73L40.2765 191.732Z" fill="#2A2A2A"/>
<path d="M36.3743 193.656C51.3656 205.897 48.7123 204.282 50.7738 204.257C51.3946 204.25 37.6774 193.459 33.9672 190.209C28.9411 185.806 31.8949 187.16 28.6353 186.041C28.7927 187.402 35.3463 192.819 36.3743 193.656Z" fill="#2A2A2A"/>
<path d="M35.7084 205.522C36.0704 205.469 36.6749 205.386 36.8685 205.358C33.2614 198.82 25.9115 196.964 19.414 188.262C14.5943 181.806 17.0539 182.578 14.3662 181.959C21.3053 196.722 31.2814 198.117 35.7084 205.522Z" fill="#2A2A2A"/>
<path d="M-9.65467 178.431C-14.2283 178.127 -9.12799 176.667 -1.07943 191.163C2.24171 197.145 5.98817 205.026 12.5961 209.195C15.8521 208.619 13.968 209.715 9.58985 205.369C3.46519 199.286 0.721405 190.744 -4.38971 183.773C-5.24941 182.6 -8.57055 178.504 -9.65467 178.431Z" fill="#2A2A2A"/>
<path d="M-8.96516 188.987C-4.93635 195.982 -2.17809 205.634 5.20624 210.562C6.69216 210.269 5.38542 210.521 6.81885 210.251C-5.29833 203.444 -5.02504 183.419 -18.7928 178.082C-20.1738 178.067 -21.2434 178.069 -22.4868 178.084C-21.9692 179.149 -15.5441 177.569 -8.96516 188.987Z" fill="#2A2A2A"/>
<path d="M-2.90724 212.339C0.0790729 211.619 -1.98963 213.063 -6.95052 206.655C-13.477 198.231 -16.7456 185.653 -26.1299 179.483L-26.1299 180.823C-15.5656 188.316 -13.2688 204.33 -2.90724 212.339Z" fill="#2A2A2A"/>
<path d="M19.537 183.253C19.613 184.075 25.1368 190.337 28.7782 193.602C34.0722 198.348 37.9833 200.42 39.8131 201.671C43.8021 204.397 41.7877 204.75 44.1188 204.567C41.48 199.676 35.5907 199.64 25.4426 188.797C20.0293 183.011 22.2645 183.993 19.5352 183.255L19.537 183.253Z" fill="#2A2A2A"/>
<path d="M33.741 213.02C34.6713 212.71 35.7065 211.202 39.2774 209.363C37.1345 209.574 36.3327 209.072 32.3564 213.078C31.5094 213.932 31.3374 213.822 33.741 213.02Z" fill="#2A2A2A"/>
<path d="M7.00892 180.452C3.23712 179.781 5.20447 178.951 12.7028 188.819C17.5787 195.234 21.1604 196.772 25.1838 201.369C29.8044 206.65 27.3104 206.771 29.647 206.419C27.2073 200.226 21.4138 196.552 17.1226 192.29C13.7851 188.974 11.778 185.185 7.00892 180.452Z" fill="#2A2A2A"/>
<path d="M22.6825 217.167C23.2961 216.911 24.5449 213.685 28.6931 210.607C28.751 210.564 29.0262 210.527 26.6371 210.859C24.4833 212.757 22.6753 215.078 21.3577 217.723C22.0454 217.43 21.5079 217.655 22.6825 217.167Z" fill="#2A2A2A"/>
<path d="M-1.80148 179.153C-6.6936 178.576 -1.53723 177.549 7.09954 191.158C10.7175 196.86 14.4006 203.594 20.1959 207.903C22.9017 207.461 21.8555 208.356 18.1073 204.649C12.1727 198.783 8.91305 190.856 3.58836 184.247C2.83907 183.316 -0.646767 179.289 -1.79966 179.154L-1.80148 179.153Z" fill="#2A2A2A"/>
<path d="M14.2848 220.923C14.9509 220.604 15.4323 216.596 19.9045 211.873C19.5715 211.927 18.4892 212.11 18.4711 212.112C16.9816 212.36 12.3844 221.844 13.3817 221.359C13.6821 221.213 13.9826 221.066 14.2848 220.923Z" fill="#2A2A2A"/>
<path d="M4.85719 220.839C7.17022 213.658 10.533 213.523 6.93131 214.271C4.41195 217.827 2.8464 222.254 2.72876 226.925C4.99474 225.657 2.91699 226.856 4.85719 220.839Z" fill="#2A2A2A"/>
<path d="M-4.06951 230.884C-3.49216 230.533 -4.61248 225.185 -0.875061 217.689C0.288696 215.353 0.757454 215.617 -1.26781 216.1C-3.91567 220.902 -5.12467 226.265 -4.96359 231.427C-4.94549 231.415 -4.32651 231.039 -4.0677 230.882L-4.06951 230.884Z" fill="#2A2A2A"/>
<path d="M309.792 233.487C309.781 233.476 309.213 233.356 307.979 233.077C314.163 240.338 322.358 245.067 323.335 244.927C326.429 244.485 325.058 245.444 318.532 241.049C315.341 238.898 312.4 236.355 309.792 233.489L309.792 233.487Z" fill="#2A2A2A"/>
<path d="M332.233 243.409C332.3 243.443 332.086 243.489 334.128 243.077C329.94 241.168 326.124 238.734 322.718 235.889C322.365 235.835 320.686 235.566 320.66 235.562C324.083 238.63 327.925 241.283 332.233 243.409Z" fill="#2A2A2A"/>
<path d="M352.35 222.155C350.415 221.07 352.301 221.088 342.886 223.516C331.99 226.327 320.858 228.767 309.7 229.428C313.444 230.257 312.869 230.548 320.753 229.366C331.389 227.772 341.908 224.984 352.35 222.157L352.35 222.155Z" fill="#2A2A2A"/>
<path d="M293.836 278.934C301.631 269.784 307.484 259.836 323.647 250.738C329.686 247.338 331.065 247.683 325.163 248.649C311.714 255.709 304.907 263.459 297.586 272.609C284.806 288.584 283.646 285.834 286.043 286.582C286.868 286.839 293.172 279.71 293.834 278.932L293.836 278.934Z" fill="#2A2A2A"/>
<path d="M305.854 228.538C305.689 228.301 305.506 228.051 305.121 228.176C304.75 228.297 304.838 228.292 305.854 228.538Z" fill="#2A2A2A"/>
<path d="M278.106 283.397C293.552 276.587 299.367 263.032 309.707 254.167C315.341 249.337 317.022 249.915 312.82 250.361C300.925 258.627 297.423 268.799 285.902 277.51C277.574 283.807 275.272 281.92 278.106 283.395L278.106 283.397Z" fill="#2A2A2A"/>
<path d="M297.496 232.646C295.431 229.467 296.529 230.149 294.448 229.521C299.894 240.388 310.056 246.544 311.278 246.415C311.719 246.369 312.974 246.233 312.994 246.231C306.911 243.37 301.425 238.692 297.496 232.646Z" fill="#2A2A2A"/>
<path d="M281.156 224.922C280.714 224.749 280.021 224.473 280.003 224.466C283.246 232.739 288.01 240.513 294.314 247.307C294.864 247.325 295.461 247.342 295.872 247.349C284.741 235.736 281.925 225.224 281.156 224.922Z" fill="#2A2A2A"/>
<path d="M281.107 238.994C277.882 233.92 275.627 228.221 274.552 222.155C274.409 222.092 273.381 221.626 273.363 221.616C274.836 230.873 279.17 239.846 285.829 246.792C289.382 247.064 286.562 247.577 281.107 238.995L281.107 238.994Z" fill="#2A2A2A"/>
<path d="M263.774 216.811C262.427 216.074 262.673 215.919 262.673 217.793C262.673 227.333 265.696 237.168 271.623 245.246C271.649 245.25 272.72 245.405 273.162 245.464C267.082 237.614 263.539 227.399 263.774 216.811Z" fill="#2A2A2A"/>
<path d="M256.446 212.567C256.04 212.347 255.827 212.244 255.586 212.132C254.395 223.623 257.957 235.419 265.09 244.191C267.94 244.692 266.816 245.248 263.446 240.088C254.363 226.185 256.9 212.811 256.446 212.565L256.446 212.567Z" fill="#2A2A2A"/>
<path d="M245.46 209.292C242.629 208.727 245.539 207.634 249.432 223.175C251.135 229.991 252.797 237.233 257.566 242.744C260.735 243.402 259.249 243.633 256.679 239.769C251.798 232.43 251.163 223.339 248.212 215.011C247.955 214.286 246.129 209.426 245.458 209.292L245.46 209.292Z" fill="#2A2A2A"/>
<path d="M259.647 247.202C259.313 247.139 259.703 247.217 258.422 246.964C256.75 246.633 251.445 256.324 249.184 258.961C246.627 261.943 246.044 260.85 247.608 262.004C252.837 257.992 254.41 250.723 259.649 247.202L259.647 247.202Z" fill="#2A2A2A"/>
<path d="M249.957 245.138C245.758 248.306 243.977 253.427 240.455 256.953C240.473 256.966 240.962 257.296 241.226 257.475C241.994 257.997 246.509 249.777 249.53 246.928C251.474 245.095 252.147 245.651 249.957 245.138Z" fill="#2A2A2A"/>
<path d="M237.346 208.19C235.075 208.028 236.588 207.524 239.087 213.07C242.727 221.143 243.32 230.5 248.272 238.373C250.303 241.602 250.397 241.173 252.176 241.576C243.785 233.157 244.204 218.579 238.327 209.272C237.558 208.052 237.596 208.211 237.346 208.192L237.346 208.19Z" fill="#2A2A2A"/>
<path d="M236.64 241.966C236.94 241.729 237.168 241.858 235.572 241.442C232.841 243.946 232.329 247.961 229.542 250.122C229.56 250.133 230.186 250.495 230.392 250.616C230.901 250.915 232.539 248.278 232.861 247.7C233.974 245.705 234.839 243.391 236.64 241.964L236.64 241.966Z" fill="#2A2A2A"/>
<path d="M229.39 219.474C231.066 225.706 232.179 232.348 236.143 237.593C236.722 237.748 237.37 237.92 237.943 238.071C230.793 230.065 232.092 217.355 225.879 208.345C222.815 208.643 226.089 207.198 229.39 219.475L229.39 219.474Z" fill="#2A2A2A"/>
<path d="M229.92 239.993C222.575 247.87 223.222 246.62 224.57 247.346C232.146 239.223 231.563 240.407 229.92 239.993Z" fill="#2A2A2A"/>
<path d="M235.424 294.479C229.969 282.764 231.621 269.07 227.294 256.815C227.051 256.125 225.688 252.423 225.031 252.058C220.966 249.802 226.266 251.206 228.823 268.061C230.425 278.615 230.687 292.331 238.642 301.606C241.829 301.511 239.083 302.342 235.422 294.479L235.424 294.479Z" fill="#2A2A2A"/>
<path d="M224.052 220.46C225.238 224.879 226.181 229.511 228.277 233.653C229.58 236.226 229.402 235.799 231.207 236.275C225.294 228.56 226.231 217.046 220.36 209.108C217.358 209.65 220.675 207.864 224.054 220.46L224.052 220.46Z" fill="#2A2A2A"/>
<path d="M223.761 238.492C223.003 238.313 219.546 242.186 218.561 243.488C218.04 244.178 217.892 243.924 219.144 244.545C224.063 237.826 226.528 239.145 223.761 238.492Z" fill="#2A2A2A"/>
<path d="M218.711 223.647C219.918 227.33 221.162 231.111 223.317 234.306C226.662 235.093 224.119 235.544 221.024 227.093C219.527 223.005 218.447 218.642 216.396 214.739C216.08 214.135 214.024 210.56 213.443 210.728C210.92 211.455 213.93 209.048 218.711 223.647Z" fill="#2A2A2A"/>
<path d="M216.567 236.89C214.958 238.05 213.566 239.607 212.612 241.483C212.773 241.554 213.425 241.848 213.443 241.856C213.935 242.078 214.355 239.404 218.082 237.211C217.048 236.989 216.585 236.894 216.567 236.89Z" fill="#2A2A2A"/>
<path d="M207.674 212.434C207.217 212.572 207.669 212.028 208.84 215.285C210.95 221.116 212.315 227.501 215.946 232.691C219.155 233.338 216.939 233.815 213.877 226.545C211.81 221.637 209.982 214.103 208.643 212.194C208.603 212.136 208.724 212.117 207.676 212.432L207.674 212.434Z" fill="#2A2A2A"/>
<path d="M209.426 235.514C208.089 236.308 206.894 237.36 205.903 238.675C205.921 238.682 206.446 238.891 206.788 239.027C207.278 239.223 207.872 237.295 211.238 235.84C210.862 235.771 210.087 235.63 209.425 235.514L209.426 235.514Z" fill="#2A2A2A"/>
<path d="M202.067 214.137C201.675 214.258 201.863 213.723 203.425 216.874C206.259 222.571 206.453 227.201 209.128 231.436C211.973 231.908 209.875 232.605 207.41 224.549C206.835 222.668 205.211 216.938 202.991 213.855C202.972 213.861 202.482 214.01 202.066 214.139L202.067 214.137Z" fill="#2A2A2A"/>
<path d="M199.519 220.673C200.817 223.513 201.807 226.535 203.246 229.331C204.073 230.938 203.747 230.625 205.398 230.862C202.305 226.146 201.266 220.098 197.789 215.461C195.824 216.07 196.935 215.017 199.521 220.674L199.519 220.673Z" fill="#2A2A2A"/>
<path d="M194.394 221.387C195.755 225.185 197.056 227.759 198.493 230.022C200.98 230.272 199.742 230.93 196.998 224.995C195.865 222.545 194.042 216.628 193.078 216.93C191.183 217.525 192.585 216.341 194.394 221.389L194.394 221.387Z" fill="#2A2A2A"/>
<path d="M192.226 229.491C194.785 229.676 193.386 230.332 191.545 225.754C190.586 223.371 189.777 220.861 187.92 219.041C187.435 218.565 187.744 218.605 186.226 219.084C189.57 221.292 189.94 226.142 192.224 229.493L192.226 229.491Z" fill="#2A2A2A"/>
<path d="M171.578 228.454C171.832 228.462 172.751 228.49 172.769 228.49C171.582 227.071 170.941 225.448 169.05 224.132C166.818 224.682 167.446 224.227 168.827 225.336C170.342 226.556 171.048 228.437 171.578 228.454Z" fill="#2A2A2A"/>
<path d="M165.198 226.696C163.812 224.947 164.344 225.197 163.003 225.446C162.645 225.512 162.657 225.2 163.933 226.852C165.179 228.464 165.09 228.255 165.361 228.264C167.714 228.346 166.826 228.753 165.197 226.696L165.198 226.696Z" fill="#2A2A2A"/>
<path d="M344.296 244.735C343.401 244.963 341.742 245.369 340.225 245.718C338.942 246.014 320.018 254.866 308.793 266.896C301.553 274.653 298.417 282.783 291.852 288.301C292.075 288.368 292.231 288.413 292.884 288.612C293.825 288.899 299.103 281.759 299.687 280.926C309.562 266.868 313.289 259.938 344.294 244.733L344.296 244.735Z" fill="#2A2A2A"/>
<path d="M276.26 269.512C282.36 263.302 283.018 255.469 288.709 250.995C287.302 250.909 287.056 250.313 284.535 253.986C280.53 259.825 279.484 267.147 270.789 272.454C264.986 275.995 263.718 274.265 265.777 275.738C266.257 276.081 271.893 273.955 276.26 269.512Z" fill="#2A2A2A"/>
<path d="M276.088 249.777C272.934 252.409 270.888 256.03 268.97 259.44C260.952 273.694 257.35 269.495 259.886 271.403C260.422 271.805 264.118 269.131 266.966 264.915C269.611 261.001 271.469 256.492 274.517 252.901C277.565 249.311 278.805 250.111 276.086 249.777L276.088 249.777Z" fill="#2A2A2A"/>
<path d="M267.917 248.638C267.008 248.496 267.071 248.507 266.234 248.369C261.568 251.433 262.398 258.17 253.239 266.306C253.318 266.368 254.102 266.978 254.12 266.991C263.783 258.297 262.067 251.871 267.917 248.636L267.917 248.638Z" fill="#2A2A2A"/>
<path d="M196.544 235.337C198.996 236.107 197.025 235.84 201.584 234.311C199.023 233.978 199.398 233.733 196.544 235.337Z" fill="#2A2A2A"/>
<path d="M243.342 61.5775C250.942 66.1218 250.274 66.5451 247.563 62.8492C233.051 53.8407 217.669 46.2624 201.655 40.2449C207.003 44.5916 219.082 47.0662 243.344 61.5756L243.342 61.5775Z" fill="#2A2A2A"/>
<path d="M191.308 31.1079C199.219 32.3237 206.688 34.8634 213.964 38.2852C238.066 49.6247 245.764 60.6956 241.416 53.5089C225.846 42.6991 209.264 32.4617 190.564 29.8716C190.398 29.8492 190.249 29.8828 190.133 29.9611C190.515 30.3378 190.857 30.6715 191.308 31.1079Z" fill="#2A2A2A"/>
<path d="M274.82 -14.813C263.292 2.27534 240.07 15.2744 237.451 38.164C240.6 44.5842 232.503 31.6915 256.875 6.75819C270.308 -6.98301 274.548 -10.4999 274.82 -14.813Z" fill="#2A2A2A"/>
<path d="M180.591 19.5129C181.958 21.1837 193.072 20.3987 205.875 24.585C230.103 32.5064 237.543 47.1781 233.733 39.3238C210.346 18.616 189.15 21.3329 180.05 18.3792C179.411 18.1722 179.214 17.8291 180.591 19.5129Z" fill="#2A2A2A"/>
<path d="M171.977 7.52647C186.526 18.3046 207.592 9.04811 229.842 30.8039C228.852 28.5047 229.455 28.4152 224.103 24.5049C208.632 13.2009 195.558 14.1239 184.385 11.5972C171.473 8.67889 168.113 1.33184 171.978 7.52647L171.977 7.52647Z" fill="#2A2A2A"/>
<path d="M211.877 1.08936C181.766 -16.8195 166.445 -12.8719 158.621 -21.4161C157.175 -22.9955 156.802 -24.0136 158.149 -20.603C161.224 -12.8215 187.48 -15.7547 221.573 8.77395C221.044 7.12553 222.164 7.21127 211.877 1.09123L211.877 1.08936Z" fill="#2A2A2A"/>
<path d="M250.627 60.619C252.288 62.9313 251.709 62.5379 251.709 60.2125C251.709 45.2052 265.73 33.7222 267.951 23.8708C268.836 19.9474 269.07 22.806 260.851 35.2158C255.827 42.8015 250.453 51.1704 250.629 60.6172L250.627 60.619Z" fill="#2A2A2A"/>
<path d="M243.188 48.9944C244.446 51.1854 244.238 50.8964 244.238 50.5551C244.238 27.453 269.316 18.4892 272.59 1.80733C265.468 19.0001 244.272 27.701 243.188 48.9944Z" fill="#2A2A2A"/>
<path d="M275.098 -24.9609C275.069 -31.6795 276.434 -25.1716 268.114 -18.4959C264.02 -15.2103 255.412 -10.2855 246.204 1.72713C240.008 9.80701 235.52 18.6066 232.633 27.617C232.816 28.0459 232.999 28.4767 233.185 28.9056C233.663 30.0095 237.069 10.4093 255.863 -7.35041C264.612 -15.6186 271.591 -17.916 275.098 -24.9609Z" fill="#2A2A2A"/>
<path d="M215.329 12.9211C226.005 18.4127 225.544 20.1991 224.451 17.195C224.233 16.6002 210.098 6.93339 190.723 3.32887C182.398 1.78114 170.049 0.891695 163.901 -7.92289C162.909 -9.34568 164.838 -5.48568 165.249 -4.65774C176.353 6.26025 190.684 0.244635 215.329 12.9211Z" fill="#2A2A2A"/>
<path d="M274.425 -38.7879C274.056 -42.7449 274.95 -38.9669 266.333 -30.8927C255.336 -20.5882 242.622 -15.6783 233.431 2.43754C230.401 8.4084 228.088 16.0594 228.41 16.9396C228.628 17.5307 228.98 18.478 229.002 18.5339C235.836 -15.8928 262.791 -20.4409 274.425 -38.7861L274.425 -38.7879Z" fill="#2A2A2A"/>
<path d="M272.993 -49.855C272.47 -52.9971 273.594 -50.4032 264.21 -42.0903C252.263 -31.5079 236.674 -24.3735 228.553 -9.82114C225.368 -4.11506 223.759 3.03247 224.394 5.07249C226.421 11.5711 223.312 2.85531 228.77 -7.90232C238.301 -26.6913 260.485 -33.1564 272.995 -49.855L272.993 -49.855Z" fill="#2A2A2A"/>
<path d="M74.0759 1.97701C85.2338 -6.23899 91.4906 -18.6804 101.494 -27.9892C110.272 -36.1585 113.021 -34.0309 109.946 -35.4034C92.439 -26.4247 85.1994 -3.60596 67.5784 4.57462C70.628 4.24456 70.8325 4.36573 74.0759 1.97701Z" fill="#2A2A2A"/>
<path d="M109.179 -26.3594C117.334 -32.7629 120.601 -30.363 117.121 -32.0487C100.723 -26.5328 94.0952 -5.71125 79.3193 2.32761C90.5931 -0.514244 97.3476 -17.0712 109.179 -26.3594Z" fill="#2A2A2A"/>
<path d="M44.87 4.36768C45.4491 4.45905 46.0066 4.54298 46.8554 4.65859C48.0481 4.82082 52.8878 1.96219 54.4225 0.932862C67.7361 -7.9936 75.1313 -22.6392 87.053 -33.0575C96.7829 -41.5606 100.314 -39.4423 96.6309 -40.7457C75.6036 -30.9913 66.9162 -2.49453 44.8682 4.36768L44.87 4.36768Z" fill="#2A2A2A"/>
<path d="M34.5591 1.96585C59.5789 -1.63308 68.1976 -32.3863 89.4185 -43.0395C89.5072 -43.0843 89.7443 -43.0077 87.9489 -43.5205C66.7569 -32.086 57.3184 -0.0984346 32.0107 1.09872C33.1709 1.51456 33.9998 1.78497 34.5591 1.96585Z" fill="#2A2A2A"/>
<path d="M98.0099 57.6075C109.977 63.2857 106.992 63.0843 109.839 62.5062C110.422 62.3887 110.679 62.8475 105.36 60.1007C104.129 59.4648 102.998 58.8681 101.722 58.2099C96.8479 57.2831 97.0271 57.1414 98.0099 57.6075Z" fill="#2A2A2A"/>
<path d="M98.4081 71.828C98.276 71.938 97.7511 72.1524 101.492 70.5171C102.325 69.6929 103.139 68.8146 103.995 67.7796C100.889 68.3969 103.488 67.6006 98.4081 71.828Z" fill="#2A2A2A"/>
<path d="M90.9714 55.849C82.6387 53.7997 88.0285 54.3722 95.8816 60.0614C101.986 64.4865 100.267 64.41 102.857 63.9028C100.26 62.4259 93.9179 56.5726 90.9714 55.8472L90.9714 55.849Z" fill="#2A2A2A"/>
<path d="M82.4831 53.63C76.8073 52.0692 80.9791 52.4608 87.2757 59.1515C87.9888 59.9104 93.0945 65.7041 94.175 65.5177C96.1315 65.1801 95.6953 65.4636 94.2962 64.4809C90.9027 62.0959 84.9518 54.3088 82.4831 53.63Z" fill="#2A2A2A"/>
<path d="M147.832 79.9843C161.215 86.5239 173.008 96.2596 184.36 105.936C183.979 105.236 183.607 104.55 183 103.465C182.495 102.561 170.986 93.5148 169.71 92.5414C157.602 83.3221 145.188 76.0012 130.564 72.6223C122.074 70.6606 112.257 70.351 110.272 71.2051C99.5881 75.8035 118.449 65.624 147.834 79.9824L147.832 79.9843Z" fill="#2A2A2A"/>
<path d="M188.79 106.191C189.527 107.597 243.438 124.063 245.23 123.673C243.02 121.542 245.349 122.748 233.038 119.33C185.996 106.277 186.933 102.648 188.79 106.191Z" fill="#2A2A2A"/>
<path d="M90.7073 73.5752C87.2214 77.1722 85.0984 77.6682 90.5227 75.3056C92.4611 73.4446 94.1153 71.4755 95.5922 69.2993C92.861 69.745 95.2356 68.8984 90.7055 73.5752L90.7073 73.5752Z" fill="#2A2A2A"/>
<path d="M69.1604 49.5631C65.2492 48.2149 65.9388 48.1235 67.8645 49.8633C73.8136 55.2393 77.8026 63.1122 85.1923 66.8492C90.032 66.2506 86.0412 67.9717 78.8867 60.5501C75.5873 57.1264 72.8037 53.011 69.1622 49.5631L69.1604 49.5631Z" fill="#2A2A2A"/>
<path d="M55.7165 44.3363C54.8332 43.9521 55.0088 44.0323 54.1636 43.6575C64.0256 58.6723 77.502 67.6267 78.2875 67.5614C81.5109 67.2948 79.4748 68.2999 70.2824 60.3804C59.6186 51.191 56.8241 44.8174 55.7165 44.3363Z" fill="#2A2A2A"/>
<path d="M45.2175 39.3835C44.4609 38.9957 44.0193 38.7644 44.0012 38.7551C51.4236 58.2248 67.3415 68.1041 68.2645 68.0855C72.7078 67.9941 68.1216 68.8164 58.4007 59.0508C48.3612 48.9645 46.0247 39.7975 45.2175 39.3854L45.2175 39.3835Z" fill="#2A2A2A"/>
<path d="M57.5263 68.216C61.3452 68.216 57.729 69.1018 48.2416 58.0365C42.1803 50.9654 37.3949 42.5611 34.4503 33.4202C32.9173 32.5027 33.0259 32.5158 33.0983 32.7526C40.0971 55.5937 56.8566 68.216 57.5263 68.216Z" fill="#2A2A2A"/>
<path d="M36.6421 66.8621C39.7316 67.222 36.9642 68.2029 28.2714 51.4241C19.3468 34.1958 17.9876 22.3696 17.2111 21.7823C16.9179 21.5604 16.1089 20.9413 16.0908 20.9282C21.9331 47.5212 36.0448 66.795 36.6421 66.864L36.6421 66.8621Z" fill="#2A2A2A"/>
<path d="M28.6604 65.7843C29.9472 65.9838 29.8586 65.967 30.1083 66.0025C8.99238 43.3758 11.1172 16.9768 10.4656 16.4379C9.9679 16.0258 9.5824 15.7069 9.5643 15.6902C9.35798 43.7376 26.9247 65.5139 28.6586 65.7824L28.6604 65.7843Z" fill="#2A2A2A"/>
<path d="M16.6826 63.5392C22.3312 64.7979 13.1081 63.763 9.44667 47.3011C6.70107 34.9604 8.23947 14.4297 -0.0624747 7.36795C-0.793668 8.21454 2.36458 9.74359 4.6378 19.4141C7.61687 32.0793 5.63324 45.8896 12.0529 57.6168C13.0031 59.351 15.6292 63.3061 16.6826 63.5411L16.6826 63.5392Z" fill="#2A2A2A"/>
<path d="M5.85962 60.7347C10.4205 62.0922 2.86245 61.0461 -0.293988 39.3313C-2.01519 27.494 -1.6333 13.7678 -6.42045 2.05725C-10.1452 -1.00277 -7.46476 -0.00886539 -5.11914 9.753C-1.82153 23.4681 -3.17171 38.0223 1.38197 51.6591C2.57649 55.2338 5.07775 60.5016 5.86143 60.7347L5.85962 60.7347Z" fill="#2A2A2A"/>
<path d="M84.4901 70.8341C83.8223 70.9105 81.8658 76.57 74.5032 82.2351C75.2452 81.9199 76.6968 81.2915 77.437 80.9727C79.046 80.2808 83.263 75.1528 85.5923 70.7092C85.3715 70.7353 84.5064 70.8322 84.4883 70.836L84.4901 70.8341Z" fill="#2A2A2A"/>
<path d="M64.1325 85.7052C65.4537 85.3509 72.5087 79.8351 77.3447 71.5295C77.3266 71.5295 76.4832 71.5985 76.2334 71.6172C75.6108 71.6638 74.7203 74.5877 69.8662 79.5889C63.0792 86.5835 58.1074 87.3238 64.1325 85.7052Z" fill="#2A2A2A"/>
<path d="M70.2914 71.9827C70.2661 71.9827 69.4263 72.0199 68.9014 72.0405C56.4621 88.9778 39.3894 91.6947 51.5953 88.7988C58.8222 84.7486 65.2599 79.0575 70.2932 71.9827L70.2914 71.9827Z" fill="#2A2A2A"/>
<path d="M38.5462 91.2809C39.6122 91.1242 50.4698 84.5026 58.1835 72.2606C55.1936 72.2531 58.2776 72.5235 49.5576 81.4164C39.2539 91.9204 32.065 92.2375 38.5462 91.2827L38.5462 91.2809Z" fill="#2A2A2A"/>
<path d="M47.0854 67.8542C50.1224 68.0835 48.4555 68.7306 42.7019 62.2003C32.1575 50.2287 31.0915 39.4413 28.3459 32.4262C26.5831 27.9228 26.3098 28.2976 23.6438 26.446C29.1839 32.6648 28.507 41.2463 34.6515 52.5671C39.1183 60.798 46.1334 67.7815 47.0836 67.8523L47.0854 67.8542Z" fill="#2A2A2A"/>
<path d="M26.753 92.6458C28.6479 92.4799 41.3588 85.4592 48.1712 71.9511C46.2762 71.8317 47.697 71.2854 44.508 76.0703C33.1745 93.0729 17.3126 93.4738 26.7512 92.6458L26.753 92.6458Z" fill="#2A2A2A"/>
<path d="M28.5593 82.4308C18.623 93.6043 9.70751 93.7161 16.5 93.3506C25.5639 88.5172 33.046 80.5064 37.2323 70.9123C37.0549 70.89 37.1146 70.8993 36.2947 70.7948C35.7825 70.7296 34.3889 75.8744 28.5593 82.4289L28.5593 82.4308Z" fill="#2A2A2A"/>
<path d="M4.84423 93.7498C14.7063 88.4427 23.0607 79.9377 28.2696 69.6463C28.0741 69.6164 28.313 69.6556 27.1348 69.4654C15.3144 92.4016 -3.21338 93.8393 4.84423 93.7516L4.84423 93.7498Z" fill="#2A2A2A"/>
<path d="M17.6564 67.7442C17.6256 67.7386 17.3958 67.692 16.5741 67.513C12.5941 77.0343 5.31839 85.0619 -3.70932 89.955C-9.48105 93.084 -10.9561 92.2747 -7.22593 92.8621C3.50488 88.3923 12.8493 79.3969 17.6582 67.7423L17.6564 67.7442Z" fill="#2A2A2A"/>
<path d="M6.0135 64.8501C5.9954 64.8445 5.2443 64.6263 4.96739 64.5443C2.26523 74.4236 -4.89106 82.8056 -13.9658 87.1635C-20.4814 90.2925 -22.5157 88.9518 -18.7005 90.1508C-6.79687 86.7066 2.78648 76.6763 6.0135 64.8483L6.0135 64.8501Z" fill="#2A2A2A"/>
<path d="M-9.37593 33.1311C-10.5542 20.5777 -10.2012 4.8077 -17.696 -7.09114C-19.2199 -8.32187 -19.8244 -8.81791 -20.9248 -9.67941C-6.08374 8.20522 -15.6092 37.0825 -4.0983 57.3707C0.89156 59.2634 -7.03574 58.0383 -9.37593 33.1311Z" fill="#2A2A2A"/>
<path d="M102.498 102.723C99.1881 101.501 99.0886 100.657 80.5246 100.282C34.0793 99.3421 6.64145 109.579 -12.118 112.794C-27.6867 115.461 -26.132 112.932 -26.132 115.353C2.0932 114.726 35.2648 95.9986 102.498 102.725L102.498 102.723Z" fill="#2A2A2A"/>
<path d="M65.387 97.6172C86.8468 96.7165 97.1686 100.2 84.0867 96.7165C47.375 94.022 10.6615 106.396 -26.1299 102.943L-26.1299 104.056C4.33773 106.939 34.8669 98.8983 65.387 97.6172Z" fill="#2A2A2A"/>
<path d="M15.72 8.82057C72.1667 47.6032 87.6376 44.739 152.232 50.0404C185.44 52.7648 185.288 55.3866 201.148 57.3912C192.616 54.6109 180.106 51.5583 159.249 49.5444C95.8328 43.4188 77.1529 49.2181 21.1714 11.2074C17.814 8.92869 -16.3258 -14.8895 -20.4053 -15.7268C-25.8024 -16.8307 -22.2949 -17.2987 15.72 8.82057Z" fill="#2A2A2A"/>
<path d="M165.347 44.1927C196.841 50.3556 202.118 57.5125 210.094 58.7469C203.934 55.1834 204.187 56.1512 188.057 49.1286C172.737 42.4585 136.227 38.8316 123.401 37.4125C87.0294 33.3865 64.6356 29.0734 27.2344 9.34457C-3.39433 -6.81146 -8.02401 -12.786 -15.7649 -14.6881C84.3652 48.0471 100.272 31.4547 165.349 44.1908L165.347 44.1927Z" fill="#2A2A2A"/>
<path d="M159.233 34.7702C156.962 33.4593 156.969 33.4518 155.749 32.7619C111.367 22.586 89.1651 33.3362 33.0623 5.59277C24.7621 2.92807 13.5427 -3.04282 29.3393 4.9718C90.5569 36.0307 114.815 23.0541 159.233 34.7683L159.233 34.7702Z" fill="#2A2A2A"/>
<path d="M52.7864 9.08727C77.6108 16.3672 103.246 20.3204 129.078 20.8388C121.944 18.3475 127.075 20.6374 103.543 18.0809C72.0309 14.6554 63.1986 9.49751 52.7864 9.08727Z" fill="#2A2A2A"/>
<path d="M62.243 4.91021C67.8573 1.06327 72.8127 -3.71041 77.4985 -8.71535C92.9929 -25.2667 92.7631 -30.8199 103.302 -38.2192C102.904 -38.3795 102.549 -38.5231 102.298 -38.6219C101.621 -38.8885 96.4354 -34.0029 93.9594 -30.969C92.2219 -28.8395 77.0352 -5.78401 60.0784 5.01651C60.8023 4.98294 61.5172 4.9475 62.243 4.91021Z" fill="#2A2A2A"/>
<path d="M209.828 51.3308C203.146 46.5086 208.746 50.7546 189.626 41.7704C158.36 27.0781 133.538 9.10773 92.9765 6.52322C139.116 5.77359 166.557 32.5847 189.791 34.9566C186.676 32.0178 185.833 34.9436 170.309 27.8054C155.932 21.1949 126.197 4.04496 90.4137 5.47148C129.848 -0.965571 151.041 21.7953 177.308 21.5082C175.104 18.7782 175.095 22.0583 160.29 17.7004C144.359 13.0106 127.158 2.94107 103.144 3.21892C94.5095 3.31961 85.7478 5.38759 98.7465 2.37232C107.709 0.295012 116.782 -0.693311 125.772 1.05208C140.077 3.82866 153.972 13.0871 168.975 11.4088C170.06 11.2876 170.022 11.5599 169.185 10.2564C152.013 12.3113 137.203 -0.0686289 118.614 -0.909624C106.542 -1.45599 94.4009 2.07209 82.8828 5.71764C82.7072 5.77358 87.0709 6.12787 93.3168 7.48167C96.0352 8.07092 99.9392 7.95905 108.967 9.59255C149.012 16.8445 173.404 38.6991 209.826 51.329L209.828 51.3308Z" fill="#2A2A2A"/>
<path d="M164.042 3.68703C166.017 4.48887 165.787 4.6772 164.88 3.03438C164.482 2.31273 143.588 -6.38626 118.368 -5.84176C105.693 -1.83818 130.271 -10.0374 164.044 3.68703L164.042 3.68703Z" fill="#2A2A2A"/>
<path d="M270.997 -73.3731C269.799 -74.4807 270.018 -74.6541 271.238 -71.6221C328.647 -17.0265 281.259 51.5695 312.467 102.713C313.79 104.88 313.122 104.023 315.908 106.245C316.391 104.541 301.669 92.92 301.669 49.3151C301.669 14.5192 312.74 -34.8253 270.997 -73.3712L270.997 -73.3731Z" fill="#2A2A2A"/>
<path d="M293.234 -8.62015C296.176 20.9172 292.662 57.6431 298.98 94.9656C299.06 95.4337 298.815 95.1987 300.272 96.0509C289.503 34.5688 306.18 -22.5982 275.589 -64.2917C273.289 -67.4263 273.218 -67.4188 272.867 -67.2883C272.807 -67.2659 272.838 -67.3909 273.497 -65.239C274.213 -64.3122 273.5 -65.2315 273.67 -64.6572C273.839 -64.0922 273.893 -63.8964 273.927 -63.7714C274.08 -64.0008 274.183 -64.1108 274.183 -64.3104C274.183 -64.329 289.351 -47.5594 293.232 -8.61829L293.234 -8.62015Z" fill="#2A2A2A"/>
<path d="M283.903 66.2077C285.196 52.405 299.579 1.45306 278.535 -42.2245C278.405 -42.4949 278.121 -42.5993 277.84 -42.4502C278.401 -37.5608 288.806 -22.5218 288.806 12.7739C288.806 51.2022 277.297 68.7214 285.389 87.2847C290.345 90.2441 282.034 86.1771 283.903 66.2059L283.903 66.2077Z" fill="#2A2A2A"/>
<path d="M272.905 66.4799C272.905 73.1519 274.056 80.4243 274.637 80.7824C274.89 80.939 275.216 81.1385 275.752 81.4667C267.464 48.7015 291.95 12.9322 279.209 -19.0554C278.769 -20.1593 278.964 -20.3867 278.789 -17.0545C288.164 9.50304 272.905 38.7961 272.905 66.478L272.905 66.4799Z" fill="#2A2A2A"/>
<path d="M316.97 56.3749C312.719 31.0779 313.562 9.70815 312.729 16.9508C310.963 32.3329 311.85 62.7541 320.894 89.5335C331.614 121.281 350.386 138.749 364.805 163.912C364.805 161.391 364.907 161.894 364.503 161.216C344.435 127.391 312.521 102.484 313.151 29.8938C316.358 97.5705 340.43 113.014 364.805 145.932C364.805 143.465 366.943 146.488 349.696 125.221C332.175 103.616 322.239 87.7322 316.97 56.3749Z" fill="#2A2A2A"/>
<path d="M328.906 31.3801C323.645 29.4855 317.654 28.7601 317.703 29.2655C317.703 29.2748 317.734 29.5918 317.797 30.2053C336.099 31.0724 350.422 46.82 364.805 55.8808C364.805 53.962 365.692 55.4332 359.126 50.6614C349.53 43.6873 340.424 35.5272 328.908 31.3782L328.906 31.3801Z" fill="#2A2A2A"/>
<path d="M329.125 74.9701C329.464 75.7757 329.315 75.4251 329.572 76.0274C346.714 73.2657 356.914 81.4127 364.805 85.1142L364.805 83.8854C357.466 80.3461 346.545 72.0462 329.125 74.9701Z" fill="#2A2A2A"/>
<path d="M352.254 63.3267C345.865 59.0919 339.498 55.1293 331.983 53.563C326.892 52.5019 321.821 53.0856 321.944 53.563C321.991 53.7494 322.175 54.4506 322.179 54.4692C337.952 51.3961 351.997 65.9989 364.803 72.2588C364.803 70.0621 366.709 72.9226 352.252 63.3267L352.254 63.3267Z" fill="#2A2A2A"/>
<path d="M336.969 64.7737C332.008 63.4963 323.692 62.9071 325.56 64.686C326.803 65.8701 330.658 61.0517 353.962 73.1631C357.609 75.0595 361.108 76.8963 364.803 78.4776C364.803 76.6259 366.235 78.2948 355.338 72.6279C349.552 69.6145 343.479 66.4501 336.967 64.7737L336.969 64.7737Z" fill="#2A2A2A"/>
<path d="M342.558 48.6102C330.884 43.4654 320.154 44.2467 320.087 45.3991C320.402 46.9711 322.152 44.7502 330.935 46.2121C343.986 48.3827 354.706 56.47 364.805 65.0086L364.805 63.5691C357.926 57.7865 350.719 52.2091 342.558 48.6121L342.558 48.6102Z" fill="#2A2A2A"/>
<path d="M339.204 25.8568C326.857 18.2524 317.037 19.6901 317.064 20.3092C317.078 20.6486 317.098 21.0085 317.109 21.2397C335.834 18.3046 350.627 37.7351 364.025 46.7549C363.555 44.2636 364.624 46.3278 357.537 40.4446C351.528 35.4564 345.727 29.8734 339.204 25.8549L339.204 25.8568Z" fill="#2A2A2A"/>
<path d="M316.988 5.96009C316.988 5.99739 316.957 6.95959 316.954 7.07893C342.58 9.10775 350.077 28.4711 361.953 35.9132C361.35 32.8234 362.313 35.9375 355.729 29.3662C348.697 22.3473 338.877 7.67005 316.988 5.96009Z" fill="#2A2A2A"/>
<path d="M317.528 -3.44557C317.35 -1.26197 316.637 -3.29082 326.64 -0.43965C338.616 2.97094 350.04 10.014 358.769 20.2029C358.317 18.079 358.851 18.3139 355.097 14.7113C345.119 5.13776 331.947 -1.60508 317.528 -3.44557Z" fill="#2A2A2A"/>
<path d="M318.821 -18.384C318.771 -17.8134 329.026 -14.6415 341.829 -4.34632C356.57 7.50964 357.385 13.6148 355.922 8.05974C355.678 7.13297 341.771 -9.67012 318.907 -19.3518C318.905 -19.3276 318.832 -18.494 318.823 -18.384L318.821 -18.384Z" fill="#2A2A2A"/>
<path d="M322.146 262.894C322.146 262.965 322.043 263.008 323.191 262.141C322.606 262.321 322.146 262.383 322.146 262.894Z" fill="#2A2A2A"/>
<path d="M347.934 259.226C341.709 260.216 338.368 260.059 331.9 260.652C329.704 262.241 329.992 261.965 330.475 261.913C333.373 261.598 336.343 261.439 339.172 261.26C348.949 260.639 355.13 258.4 364.805 260.378L364.805 259.245C359.193 258.129 353.662 258.318 347.934 259.23L347.934 259.226Z" fill="#2A2A2A"/>
<path d="M356.766 269.083C356.939 268.88 357.173 268.615 357.45 268.3C342.513 264.387 327.945 279.801 313.433 275.626C313.318 275.742 312.574 276.497 312.556 276.516C324.266 280.364 336.328 271.367 347.695 269.243C354.326 268.005 356.308 269.614 356.766 269.081L356.766 269.083Z" fill="#2A2A2A"/>
<path d="M342.698 278.515C352.078 275.654 349.854 278.2 351.602 275.729C338.325 276.21 328.369 286.451 306.227 283.589C306.105 283.736 305.432 284.579 305.416 284.597C323.207 287.106 334.682 280.958 342.698 278.515Z" fill="#2A2A2A"/>
<path d="M338.017 288.187C346.01 285.858 345.025 285.987 345.952 284.43C334.075 288.707 321.717 291.34 309.189 292.265C296.596 293.196 301.003 291.765 299.13 293.757C311.902 293.748 325.073 291.956 338.015 288.185L338.017 288.187Z" fill="#2A2A2A"/>
<path d="M329.045 307.032C330.6 306.527 335.975 304.448 336.395 303.457C338.341 298.866 337.013 305.855 317.522 308.261C307.616 309.484 294.744 309.693 285.836 317.573C283.051 323.595 284.464 318.797 291.458 315.039C303.03 308.822 316.606 311.069 329.044 307.032L329.045 307.032Z" fill="#2A2A2A"/>
<path d="M301.68 373.196C304.652 371.761 309.736 368.479 310.903 365.933C311.348 364.964 311.627 364.346 311.953 363.627C311.703 363.543 311.457 363.636 311.32 363.843C300.127 380.529 274.803 373.096 259.924 386.539C257.564 393.084 259.16 384.499 274.646 380.228C283.637 377.75 293.022 377.383 301.68 373.198L301.68 373.196Z" fill="#2A2A2A"/>
<path d="M340.607 294.268C342.316 290.826 342.394 292.662 334.691 296.077C315.593 304.541 304.333 296.578 292.973 303.441C292.957 303.47 292.146 304.958 291.775 305.648C303.034 296.386 318.121 307.603 340.607 294.268Z" fill="#2A2A2A"/>
<path d="M301.646 324.421C311.712 323.046 322.751 321.64 331.554 315.421C333.149 311.41 332.915 314.28 325.134 317.803C314.208 322.75 301.693 322.679 290.164 325.198C288.868 325.482 281.592 327.27 281.266 328.062C280.01 331.121 279.292 327.483 301.646 324.421Z" fill="#2A2A2A"/>
<path d="M337.25 415.641C338.037 414.364 338.251 408.798 338.251 407.136C338.251 387.098 326.311 366.381 326.311 345.904C326.311 337.347 328.712 333.054 325.446 341.276C323.009 366.918 342.249 393.809 335.896 417.473C335.706 418.179 335.27 418.856 337.251 415.643L337.25 415.641Z" fill="#2A2A2A"/>
<path d="M315.357 355.897C316.36 353.568 316.86 354.709 306.534 357.273C294.556 360.248 281.026 362.153 270.264 370.343C267.964 372.094 263.694 376.04 262.865 378.352C260.351 385.366 262.99 377.664 269.938 371.999C282.845 361.478 300.379 360.997 315.357 355.895L315.357 355.897Z" fill="#2A2A2A"/>
<path d="M326.713 430.956C327.748 429.614 327.907 419.542 324.427 407.148C321.261 395.879 317.37 386.641 317.593 372.92C317.83 358.271 323.835 345.74 318.557 358.092C317.041 361.643 315.234 374.576 317.85 387.538C320.398 400.175 326.255 412 326.255 425.066C326.255 432.538 324.385 433.981 326.714 430.958L326.713 430.956Z" fill="#2A2A2A"/>
</g>
<defs>
<clipPath id="clip0_22_30344">
<rect width="330" height="368" rx="16" fill="white"/>
</clipPath>
</defs>
</svg>
