{
  "accessors": [
    {
      "bufferView": 2,
      "componentType": 5126,
      "count": 10187,
      "max": [
        195.70803833007813,
        139.11253356933594,
        359.66864013671875
      ],
      "min": [
        -180.67025756835938,
        -0.21406523883342743,
        -390.9433288574219
      ],
      "type": "VEC3"
    },
    {
      "bufferView": 2,
      "byteOffset": 122244,
      "componentType": 5126,
      "count": 10187,
      "max": [
        1.0,
        1.0,
        1.0
      ],
      "min": [
        -1.0,
        -1.0,
        -1.0
      ],
      "type": "VEC3"
    },
    {
      "bufferView": 1,
      "componentType": 5126,
      "count": 10187,
      "max": [
        0.99998939037323,
        0.9999801516532898
      ],
      "min": [
        1.0535582077864092e-05,
        1.9843026166199706e-05
      ],
      "type": "VEC2"
    },
    {
      "bufferView": 0,
      "componentType": 5125,
      "count": 21048,
      "type": "SCALAR"
    }
  ],
  "asset": {
    "extras": {
      "author": "vahnessa (https://sketchfab.com/vahnessa)",
      "license": "CC-BY-4.0 (http://creativecommons.org/licenses/by/4.0/)",
      "source": "https://sketchfab.com/3d-models/otc-optimized-79016df63ceb4c3ea6d71a8f17b08952",
      "title": "OTC_Optimized"
    },
    "generator": "Sketchfab-14.48.0",
    "version": "2.0"
  },
  "bufferViews": [
    {
      "buffer": 0,
      "byteLength": 84192,
      "name": "floatBufferViews",
      "target": 34963
    },
    {
      "buffer": 0,
      "byteLength": 81496,
      "byteOffset": 84192,
      "byteStride": 8,
      "name": "floatBufferViews",
      "target": 34962
    },
    {
      "buffer": 0,
      "byteLength": 244488,
      "byteOffset": 165688,
      "byteStride": 12,
      "name": "floatBufferViews",
      "target": 34962
    }
  ],
  "buffers": [
    {
      "byteLength": 410176,
      "uri": "scene.bin"
    }
  ],
  "images": [
    {
      "uri": "textures/OTC_baked_.001_baseColor.jpeg"
    }
  ],
  "materials": [
    {
      "doubleSided": true,
      "name": "OTC_baked_.001",
      "pbrMetallicRoughness": {
        "baseColorTexture": {
          "index": 0
        },
        "metallicFactor": 0.0,
        "roughnessFactor": 0.9762158576999456
      }
    }
  ],
  "meshes": [
    {
      "name": "polySurface23_OTC baked .001_0",
      "primitives": [
        {
          "attributes": {
            "NORMAL": 1,
            "POSITION": 0,
            "TEXCOORD_0": 2
          },
          "indices": 3,
          "material": 0,
          "mode": 4
        }
      ]
    }
  ],
  "nodes": [
    {
      "children": [
        1
      ],
      "matrix": [
        1.0,
        0.0,
        0.0,
        0.0,
        0.0,
        2.220446049250313e-16,
        -1.0,
        0.0,
        0.0,
        1.0,
        2.220446049250313e-16,
        0.0,
        0.0,
        0.0,
        0.0,
        1.0
      ],
      "name": "Sketchfab_model"
    },
    {
      "children": [
        2
      ],
      "matrix": [
        0.009999999776482582,
        0.0,
        0.0,
        0.0,
        0.0,
        0.0,
        0.009999999776482582,
        0.0,
        0.0,
        -0.009999999776482582,
        0.0,
        0.0,
        0.0,
        0.0,
        0.0,
        1.0
      ],
      "name": "0f656c0cbca54d01a7ce2229d14222f6.fbx"
    },
    {
      "children": [
        3
      ],
      "name": "RootNode"
    },
    {
      "children": [
        4
      ],
      "name": "polySurface23"
    },
    {
      "mesh": 0,
      "name": "polySurface23_OTC baked .001_0"
    }
  ],
  "samplers": [
    {
      "magFilter": 9729,
      "minFilter": 9987,
      "wrapS": 10497,
      "wrapT": 10497
    }
  ],
  "scene": 0,
  "scenes": [
    {
      "name": "Sketchfab_Scene",
      "nodes": [
        0
      ]
    }
  ],
  "textures": [
    {
      "sampler": 0,
      "source": 0
    }
  ]
}
