<svg width="91" height="98" viewBox="0 0 91 98" fill="none" xmlns="http://www.w3.org/2000/svg">
<path d="M33.2969 67.6797H30.4141L30.3984 66.4688H33.0156C33.4479 66.4688 33.8255 66.3958 34.1484 66.25C34.4714 66.1042 34.7214 65.8958 34.8984 65.625C35.0807 65.349 35.1719 65.0208 35.1719 64.6406C35.1719 64.224 35.0911 63.8854 34.9297 63.625C34.7734 63.3594 34.5312 63.1667 34.2031 63.0469C33.8802 62.9219 33.4688 62.8594 32.9688 62.8594H30.75V73H29.2422V61.625H32.9688C33.5521 61.625 34.0729 61.6849 34.5312 61.8047C34.9896 61.9193 35.3776 62.1016 35.6953 62.3516C36.0182 62.5964 36.263 62.9089 36.4297 63.2891C36.5964 63.6693 36.6797 64.125 36.6797 64.6562C36.6797 65.125 36.5599 65.5495 36.3203 65.9297C36.0807 66.3047 35.7474 66.612 35.3203 66.8516C34.8984 67.0911 34.4036 67.2448 33.8359 67.3125L33.2969 67.6797ZM33.2266 73H29.8203L30.6719 71.7734H33.2266C33.7057 71.7734 34.112 71.6901 34.4453 71.5234C34.7839 71.3568 35.0417 71.1224 35.2188 70.8203C35.3958 70.513 35.4844 70.151 35.4844 69.7344C35.4844 69.3125 35.4089 68.9479 35.2578 68.6406C35.1068 68.3333 34.8698 68.0964 34.5469 67.9297C34.224 67.763 33.8073 67.6797 33.2969 67.6797H31.1484L31.1641 66.4688H34.1016L34.4219 66.9062C34.9688 66.9531 35.4323 67.1094 35.8125 67.375C36.1927 67.6354 36.4818 67.9688 36.6797 68.375C36.8828 68.7812 36.9844 69.2292 36.9844 69.7188C36.9844 70.4271 36.8281 71.026 36.5156 71.5156C36.2083 72 35.7734 72.3698 35.2109 72.625C34.6484 72.875 33.987 73 33.2266 73ZM43.9766 71.5547V67.2031C43.9766 66.8698 43.9089 66.5807 43.7734 66.3359C43.6432 66.0859 43.4453 65.8932 43.1797 65.7578C42.9141 65.6224 42.5859 65.5547 42.1953 65.5547C41.8307 65.5547 41.5104 65.6172 41.2344 65.7422C40.9635 65.8672 40.75 66.0312 40.5938 66.2344C40.4427 66.4375 40.3672 66.6562 40.3672 66.8906H38.9219C38.9219 66.5885 39 66.2891 39.1562 65.9922C39.3125 65.6953 39.5365 65.4271 39.8281 65.1875C40.125 64.9427 40.4792 64.75 40.8906 64.6094C41.3073 64.4635 41.7708 64.3906 42.2812 64.3906C42.8958 64.3906 43.4375 64.4948 43.9062 64.7031C44.3802 64.9115 44.75 65.2266 45.0156 65.6484C45.2865 66.0651 45.4219 66.5885 45.4219 67.2188V71.1562C45.4219 71.4375 45.4453 71.737 45.4922 72.0547C45.5443 72.3724 45.6198 72.6458 45.7188 72.875V73H44.2109C44.138 72.8333 44.0807 72.612 44.0391 72.3359C43.9974 72.0547 43.9766 71.7943 43.9766 71.5547ZM44.2266 67.875L44.2422 68.8906H42.7812C42.3698 68.8906 42.0026 68.9245 41.6797 68.9922C41.3568 69.0547 41.0859 69.151 40.8672 69.2812C40.6484 69.4115 40.4818 69.5755 40.3672 69.7734C40.2526 69.9661 40.1953 70.1927 40.1953 70.4531C40.1953 70.7188 40.2552 70.9609 40.375 71.1797C40.4948 71.3984 40.6745 71.5729 40.9141 71.7031C41.1589 71.8281 41.4583 71.8906 41.8125 71.8906C42.2552 71.8906 42.6458 71.7969 42.9844 71.6094C43.3229 71.4219 43.5911 71.1927 43.7891 70.9219C43.9922 70.651 44.1016 70.388 44.1172 70.1328L44.7344 70.8281C44.6979 71.0469 44.599 71.2891 44.4375 71.5547C44.276 71.8203 44.0599 72.0755 43.7891 72.3203C43.5234 72.5599 43.2057 72.7604 42.8359 72.9219C42.4714 73.0781 42.0599 73.1562 41.6016 73.1562C41.0286 73.1562 40.526 73.0443 40.0938 72.8203C39.6667 72.5964 39.3333 72.2969 39.0938 71.9219C38.8594 71.5417 38.7422 71.1172 38.7422 70.6484C38.7422 70.1953 38.8307 69.7969 39.0078 69.4531C39.1849 69.1042 39.4401 68.8151 39.7734 68.5859C40.1068 68.3516 40.5078 68.1745 40.9766 68.0547C41.4453 67.9349 41.9688 67.875 42.5469 67.875H44.2266ZM51.0781 71.9688C51.4219 71.9688 51.7396 71.8984 52.0312 71.7578C52.3229 71.6172 52.5625 71.4245 52.75 71.1797C52.9375 70.9297 53.0443 70.6458 53.0703 70.3281H54.4453C54.4193 70.8281 54.25 71.2943 53.9375 71.7266C53.6302 72.1536 53.2266 72.5 52.7266 72.7656C52.2266 73.026 51.6771 73.1562 51.0781 73.1562C50.4427 73.1562 49.888 73.0443 49.4141 72.8203C48.9453 72.5964 48.5547 72.2891 48.2422 71.8984C47.9349 71.5078 47.7031 71.0599 47.5469 70.5547C47.3958 70.0443 47.3203 69.5052 47.3203 68.9375V68.6094C47.3203 68.0417 47.3958 67.5052 47.5469 67C47.7031 66.4896 47.9349 66.0391 48.2422 65.6484C48.5547 65.2578 48.9453 64.9505 49.4141 64.7266C49.888 64.5026 50.4427 64.3906 51.0781 64.3906C51.7396 64.3906 52.3177 64.526 52.8125 64.7969C53.3073 65.0625 53.6953 65.4271 53.9766 65.8906C54.263 66.349 54.4193 66.8698 54.4453 67.4531H53.0703C53.0443 67.1042 52.9453 66.7891 52.7734 66.5078C52.6068 66.2266 52.3776 66.0026 52.0859 65.8359C51.7995 65.6641 51.4635 65.5781 51.0781 65.5781C50.6354 65.5781 50.263 65.6667 49.9609 65.8438C49.6641 66.0156 49.4271 66.25 49.25 66.5469C49.0781 66.8385 48.9531 67.1641 48.875 67.5234C48.8021 67.8776 48.7656 68.2396 48.7656 68.6094V68.9375C48.7656 69.3073 48.8021 69.6719 48.875 70.0312C48.9479 70.3906 49.0703 70.7161 49.2422 71.0078C49.4193 71.2995 49.6562 71.5339 49.9531 71.7109C50.2552 71.8828 50.6302 71.9688 51.0781 71.9688ZM57.5234 61V73H56.0703V61H57.5234ZM62.6875 64.5469L59 68.4922L56.9375 70.6328L56.8203 69.0938L58.2969 67.3281L60.9219 64.5469H62.6875ZM61.3672 73L58.3516 68.9688L59.1016 67.6797L63.0703 73H61.3672ZM20.8281 84.5469V85.6562H16.2578V84.5469H20.8281ZM17.8047 82.4922H19.25V90.9062C19.25 91.1927 19.2943 91.4089 19.3828 91.5547C19.4714 91.7005 19.5859 91.7969 19.7266 91.8438C19.8672 91.8906 20.0182 91.9141 20.1797 91.9141C20.2995 91.9141 20.4245 91.9036 20.5547 91.8828C20.6901 91.8568 20.7917 91.8359 20.8594 91.8203L20.8672 93C20.7526 93.0365 20.6016 93.0703 20.4141 93.1016C20.2318 93.138 20.0104 93.1562 19.75 93.1562C19.3958 93.1562 19.0703 93.0859 18.7734 92.9453C18.4766 92.8047 18.2396 92.5703 18.0625 92.2422C17.8906 91.9089 17.8047 91.4609 17.8047 90.8984V82.4922ZM21.9844 88.8672V88.6875C21.9844 88.0781 22.0729 87.513 22.25 86.9922C22.4271 86.4661 22.6823 86.0104 23.0156 85.625C23.349 85.2344 23.7526 84.9323 24.2266 84.7188C24.7005 84.5 25.2318 84.3906 25.8203 84.3906C26.4141 84.3906 26.9479 84.5 27.4219 84.7188C27.901 84.9323 28.3073 85.2344 28.6406 85.625C28.9792 86.0104 29.237 86.4661 29.4141 86.9922C29.5911 87.513 29.6797 88.0781 29.6797 88.6875V88.8672C29.6797 89.4766 29.5911 90.0417 29.4141 90.5625C29.237 91.0833 28.9792 91.5391 28.6406 91.9297C28.3073 92.3151 27.9036 92.6172 27.4297 92.8359C26.9609 93.0495 26.4297 93.1562 25.8359 93.1562C25.2422 93.1562 24.7083 93.0495 24.2344 92.8359C23.7604 92.6172 23.3542 92.3151 23.0156 91.9297C22.6823 91.5391 22.4271 91.0833 22.25 90.5625C22.0729 90.0417 21.9844 89.4766 21.9844 88.8672ZM23.4297 88.6875V88.8672C23.4297 89.2891 23.4792 89.6875 23.5781 90.0625C23.6771 90.4323 23.8255 90.7604 24.0234 91.0469C24.2266 91.3333 24.4792 91.5599 24.7812 91.7266C25.0833 91.888 25.4349 91.9688 25.8359 91.9688C26.2318 91.9688 26.5781 91.888 26.875 91.7266C27.1771 91.5599 27.4271 91.3333 27.625 91.0469C27.8229 90.7604 27.9714 90.4323 28.0703 90.0625C28.1745 89.6875 28.2266 89.2891 28.2266 88.8672V88.6875C28.2266 88.2708 28.1745 87.8776 28.0703 87.5078C27.9714 87.1328 27.8203 86.8021 27.6172 86.5156C27.4193 86.224 27.1693 85.9948 26.8672 85.8281C26.5703 85.6615 26.2214 85.5781 25.8203 85.5781C25.4245 85.5781 25.0755 85.6615 24.7734 85.8281C24.4766 85.9948 24.2266 86.224 24.0234 86.5156C23.8255 86.8021 23.6771 87.1328 23.5781 87.5078C23.4792 87.8776 23.4297 88.2708 23.4297 88.6875ZM36.9062 81V93H35.4609V81H36.9062ZM36.5625 88.4531L35.9609 88.4297C35.9661 87.8516 36.0521 87.3177 36.2188 86.8281C36.3854 86.3333 36.6198 85.9036 36.9219 85.5391C37.224 85.1745 37.5833 84.8932 38 84.6953C38.4219 84.4922 38.888 84.3906 39.3984 84.3906C39.8151 84.3906 40.1901 84.4479 40.5234 84.5625C40.8568 84.6719 41.1406 84.849 41.375 85.0938C41.6146 85.3385 41.7969 85.6562 41.9219 86.0469C42.0469 86.4323 42.1094 86.9036 42.1094 87.4609V93H40.6562V87.4453C40.6562 87.0026 40.5911 86.6484 40.4609 86.3828C40.3307 86.112 40.1406 85.9167 39.8906 85.7969C39.6406 85.6719 39.3333 85.6094 38.9688 85.6094C38.6094 85.6094 38.2812 85.6849 37.9844 85.8359C37.6927 85.987 37.4401 86.1953 37.2266 86.4609C37.0182 86.7266 36.8542 87.0312 36.7344 87.375C36.6198 87.7135 36.5625 88.0729 36.5625 88.4531ZM43.8906 88.8672V88.6875C43.8906 88.0781 43.9792 87.513 44.1562 86.9922C44.3333 86.4661 44.5885 86.0104 44.9219 85.625C45.2552 85.2344 45.6589 84.9323 46.1328 84.7188C46.6068 84.5 47.138 84.3906 47.7266 84.3906C48.3203 84.3906 48.8542 84.5 49.3281 84.7188C49.8073 84.9323 50.2135 85.2344 50.5469 85.625C50.8854 86.0104 51.1432 86.4661 51.3203 86.9922C51.4974 87.513 51.5859 88.0781 51.5859 88.6875V88.8672C51.5859 89.4766 51.4974 90.0417 51.3203 90.5625C51.1432 91.0833 50.8854 91.5391 50.5469 91.9297C50.2135 92.3151 49.8099 92.6172 49.3359 92.8359C48.8672 93.0495 48.3359 93.1562 47.7422 93.1562C47.1484 93.1562 46.6146 93.0495 46.1406 92.8359C45.6667 92.6172 45.2604 92.3151 44.9219 91.9297C44.5885 91.5391 44.3333 91.0833 44.1562 90.5625C43.9792 90.0417 43.8906 89.4766 43.8906 88.8672ZM45.3359 88.6875V88.8672C45.3359 89.2891 45.3854 89.6875 45.4844 90.0625C45.5833 90.4323 45.7318 90.7604 45.9297 91.0469C46.1328 91.3333 46.3854 91.5599 46.6875 91.7266C46.9896 91.888 47.3411 91.9688 47.7422 91.9688C48.138 91.9688 48.4844 91.888 48.7812 91.7266C49.0833 91.5599 49.3333 91.3333 49.5312 91.0469C49.7292 90.7604 49.8776 90.4323 49.9766 90.0625C50.0807 89.6875 50.1328 89.2891 50.1328 88.8672V88.6875C50.1328 88.2708 50.0807 87.8776 49.9766 87.5078C49.8776 87.1328 49.7266 86.8021 49.5234 86.5156C49.3255 86.224 49.0755 85.9948 48.7734 85.8281C48.4766 85.6615 48.1276 85.5781 47.7266 85.5781C47.3307 85.5781 46.9818 85.6615 46.6797 85.8281C46.3828 85.9948 46.1328 86.224 45.9297 86.5156C45.7318 86.8021 45.5833 87.1328 45.4844 87.5078C45.3854 87.8776 45.3359 88.2708 45.3359 88.6875ZM54.8359 86.2266V93H53.3828V84.5469H54.7578L54.8359 86.2266ZM54.5391 88.4531L53.8672 88.4297C53.8724 87.8516 53.9479 87.3177 54.0938 86.8281C54.2396 86.3333 54.4557 85.9036 54.7422 85.5391C55.0286 85.1745 55.3854 84.8932 55.8125 84.6953C56.2396 84.4922 56.7344 84.3906 57.2969 84.3906C57.6927 84.3906 58.0573 84.4479 58.3906 84.5625C58.724 84.6719 59.013 84.8464 59.2578 85.0859C59.5026 85.3255 59.6927 85.6328 59.8281 86.0078C59.9635 86.3828 60.0312 86.8359 60.0312 87.3672V93H58.5859V87.4375C58.5859 86.9948 58.5104 86.6406 58.3594 86.375C58.2135 86.1094 58.0052 85.9167 57.7344 85.7969C57.4635 85.6719 57.1458 85.6094 56.7812 85.6094C56.3542 85.6094 55.9974 85.6849 55.7109 85.8359C55.4245 85.987 55.1953 86.1953 55.0234 86.4609C54.8516 86.7266 54.7266 87.0312 54.6484 87.375C54.5755 87.7135 54.5391 88.0729 54.5391 88.4531ZM60.0156 87.6562L59.0469 87.9531C59.0521 87.4896 59.1276 87.0443 59.2734 86.6172C59.4245 86.1901 59.6406 85.8099 59.9219 85.4766C60.2083 85.1432 60.5599 84.8802 60.9766 84.6875C61.3932 84.4896 61.8698 84.3906 62.4062 84.3906C62.8594 84.3906 63.2604 84.4505 63.6094 84.5703C63.9635 84.6901 64.2604 84.875 64.5 85.125C64.7448 85.3698 64.9297 85.6849 65.0547 86.0703C65.1797 86.4557 65.2422 86.9141 65.2422 87.4453V93H63.7891V87.4297C63.7891 86.9557 63.7135 86.5885 63.5625 86.3281C63.4167 86.0625 63.2083 85.8776 62.9375 85.7734C62.6719 85.6641 62.3542 85.6094 61.9844 85.6094C61.6667 85.6094 61.3854 85.6641 61.1406 85.7734C60.8958 85.8828 60.6901 86.0339 60.5234 86.2266C60.3568 86.4141 60.2292 86.6302 60.1406 86.875C60.0573 87.1198 60.0156 87.3802 60.0156 87.6562ZM70.9375 93.1562C70.349 93.1562 69.8151 93.0573 69.3359 92.8594C68.862 92.6562 68.4531 92.3724 68.1094 92.0078C67.7708 91.6432 67.5104 91.2109 67.3281 90.7109C67.1458 90.2109 67.0547 89.6641 67.0547 89.0703V88.7422C67.0547 88.0547 67.1562 87.4427 67.3594 86.9062C67.5625 86.3646 67.8385 85.9062 68.1875 85.5312C68.5365 85.1562 68.9323 84.8724 69.375 84.6797C69.8177 84.487 70.276 84.3906 70.75 84.3906C71.3542 84.3906 71.875 84.4948 72.3125 84.7031C72.7552 84.9115 73.1172 85.2031 73.3984 85.5781C73.6797 85.9479 73.888 86.3854 74.0234 86.8906C74.1589 87.3906 74.2266 87.9375 74.2266 88.5312V89.1797H67.9141V88H72.7812V87.8906C72.7604 87.5156 72.6823 87.151 72.5469 86.7969C72.4167 86.4427 72.2083 86.151 71.9219 85.9219C71.6354 85.6927 71.2448 85.5781 70.75 85.5781C70.4219 85.5781 70.1198 85.6484 69.8438 85.7891C69.5677 85.9245 69.3307 86.1276 69.1328 86.3984C68.9349 86.6693 68.7812 87 68.6719 87.3906C68.5625 87.7812 68.5078 88.2318 68.5078 88.7422V89.0703C68.5078 89.4714 68.5625 89.849 68.6719 90.2031C68.7865 90.5521 68.9505 90.8594 69.1641 91.125C69.3828 91.3906 69.6458 91.599 69.9531 91.75C70.2656 91.901 70.6198 91.9766 71.0156 91.9766C71.526 91.9766 71.9583 91.8724 72.3125 91.6641C72.6667 91.4557 72.9766 91.1771 73.2422 90.8281L74.1172 91.5234C73.9349 91.7995 73.7031 92.0625 73.4219 92.3125C73.1406 92.5625 72.7943 92.7656 72.3828 92.9219C71.9766 93.0781 71.4948 93.1562 70.9375 93.1562Z" fill="#D0D0D0"/>
<circle cx="46" cy="25" r="25" fill="#3E3E3E"/>
<path d="M38 19.25V34.25H55V19.25M34 22.25L46.5 11.25L59 22.25" stroke="#D0D0D0" stroke-width="2.5" stroke-linecap="round" stroke-linejoin="round"/>
</svg>
