<svg width="91" height="98" viewBox="0 0 91 98" fill="none" xmlns="http://www.w3.org/2000/svg">
<path d="M23.4141 70.125C23.4141 69.8594 23.3724 69.625 23.2891 69.4219C23.2109 69.2135 23.0703 69.026 22.8672 68.8594C22.6693 68.6927 22.3932 68.5339 22.0391 68.3828C21.6901 68.2318 21.2474 68.0781 20.7109 67.9219C20.1484 67.7552 19.6406 67.5703 19.1875 67.3672C18.7344 67.1589 18.3464 66.9219 18.0234 66.6562C17.7005 66.3906 17.4531 66.0859 17.2812 65.7422C17.1094 65.3984 17.0234 65.0052 17.0234 64.5625C17.0234 64.1198 17.1146 63.7109 17.2969 63.3359C17.4792 62.9609 17.7396 62.6354 18.0781 62.3594C18.4219 62.0781 18.8307 61.8594 19.3047 61.7031C19.7786 61.5469 20.3073 61.4688 20.8906 61.4688C21.7448 61.4688 22.4688 61.6328 23.0625 61.9609C23.6615 62.2839 24.1172 62.7083 24.4297 63.2344C24.7422 63.7552 24.8984 64.3125 24.8984 64.9062H23.3984C23.3984 64.4792 23.3073 64.1016 23.125 63.7734C22.9427 63.4401 22.6667 63.1797 22.2969 62.9922C21.9271 62.7995 21.4583 62.7031 20.8906 62.7031C20.3542 62.7031 19.9115 62.7839 19.5625 62.9453C19.2135 63.1068 18.9531 63.3255 18.7812 63.6016C18.6146 63.8776 18.5312 64.1927 18.5312 64.5469C18.5312 64.7865 18.5807 65.0052 18.6797 65.2031C18.7839 65.3958 18.9427 65.5755 19.1562 65.7422C19.375 65.9089 19.651 66.0625 19.9844 66.2031C20.3229 66.3438 20.7266 66.4792 21.1953 66.6094C21.8411 66.7917 22.3984 66.9948 22.8672 67.2188C23.3359 67.4427 23.7214 67.6953 24.0234 67.9766C24.3307 68.2526 24.5573 68.5677 24.7031 68.9219C24.8542 69.2708 24.9297 69.6667 24.9297 70.1094C24.9297 70.5729 24.8359 70.9922 24.6484 71.3672C24.4609 71.7422 24.1927 72.0625 23.8438 72.3281C23.4948 72.5938 23.0755 72.7995 22.5859 72.9453C22.1016 73.0859 21.5599 73.1562 20.9609 73.1562C20.4349 73.1562 19.9167 73.0833 19.4062 72.9375C18.901 72.7917 18.4401 72.5729 18.0234 72.2812C17.612 71.9896 17.2812 71.6302 17.0312 71.2031C16.7865 70.7708 16.6641 70.2708 16.6641 69.7031H18.1641C18.1641 70.0938 18.2396 70.4297 18.3906 70.7109C18.5417 70.987 18.7474 71.2161 19.0078 71.3984C19.2734 71.5807 19.5729 71.7161 19.9062 71.8047C20.2448 71.888 20.5964 71.9297 20.9609 71.9297C21.487 71.9297 21.9323 71.8568 22.2969 71.7109C22.6615 71.5651 22.9375 71.3568 23.125 71.0859C23.3177 70.8151 23.4141 70.4948 23.4141 70.125ZM28.0781 61V73H26.6328V61H28.0781ZM27.7344 68.4531L27.1328 68.4297C27.138 67.8516 27.224 67.3177 27.3906 66.8281C27.5573 66.3333 27.7917 65.9036 28.0938 65.5391C28.3958 65.1745 28.7552 64.8932 29.1719 64.6953C29.5938 64.4922 30.0599 64.3906 30.5703 64.3906C30.987 64.3906 31.362 64.4479 31.6953 64.5625C32.0286 64.6719 32.3125 64.849 32.5469 65.0938C32.7865 65.3385 32.9688 65.6562 33.0938 66.0469C33.2188 66.4323 33.2812 66.9036 33.2812 67.4609V73H31.8281V67.4453C31.8281 67.0026 31.763 66.6484 31.6328 66.3828C31.5026 66.112 31.3125 65.9167 31.0625 65.7969C30.8125 65.6719 30.5052 65.6094 30.1406 65.6094C29.7812 65.6094 29.4531 65.6849 29.1562 65.8359C28.8646 65.987 28.612 66.1953 28.3984 66.4609C28.1901 66.7266 28.026 67.0312 27.9062 67.375C27.7917 67.7135 27.7344 68.0729 27.7344 68.4531ZM40.4297 71.5547V67.2031C40.4297 66.8698 40.362 66.5807 40.2266 66.3359C40.0964 66.0859 39.8984 65.8932 39.6328 65.7578C39.3672 65.6224 39.0391 65.5547 38.6484 65.5547C38.2839 65.5547 37.9635 65.6172 37.6875 65.7422C37.4167 65.8672 37.2031 66.0312 37.0469 66.2344C36.8958 66.4375 36.8203 66.6562 36.8203 66.8906H35.375C35.375 66.5885 35.4531 66.2891 35.6094 65.9922C35.7656 65.6953 35.9896 65.4271 36.2812 65.1875C36.5781 64.9427 36.9323 64.75 37.3438 64.6094C37.7604 64.4635 38.224 64.3906 38.7344 64.3906C39.349 64.3906 39.8906 64.4948 40.3594 64.7031C40.8333 64.9115 41.2031 65.2266 41.4688 65.6484C41.7396 66.0651 41.875 66.5885 41.875 67.2188V71.1562C41.875 71.4375 41.8984 71.737 41.9453 72.0547C41.9974 72.3724 42.0729 72.6458 42.1719 72.875V73H40.6641C40.5911 72.8333 40.5339 72.612 40.4922 72.3359C40.4505 72.0547 40.4297 71.7943 40.4297 71.5547ZM40.6797 67.875L40.6953 68.8906H39.2344C38.8229 68.8906 38.4557 68.9245 38.1328 68.9922C37.8099 69.0547 37.5391 69.151 37.3203 69.2812C37.1016 69.4115 36.9349 69.5755 36.8203 69.7734C36.7057 69.9661 36.6484 70.1927 36.6484 70.4531C36.6484 70.7188 36.7083 70.9609 36.8281 71.1797C36.9479 71.3984 37.1276 71.5729 37.3672 71.7031C37.612 71.8281 37.9115 71.8906 38.2656 71.8906C38.7083 71.8906 39.099 71.7969 39.4375 71.6094C39.776 71.4219 40.0443 71.1927 40.2422 70.9219C40.4453 70.651 40.5547 70.388 40.5703 70.1328L41.1875 70.8281C41.151 71.0469 41.0521 71.2891 40.8906 71.5547C40.7292 71.8203 40.513 72.0755 40.2422 72.3203C39.9766 72.5599 39.6589 72.7604 39.2891 72.9219C38.9245 73.0781 38.513 73.1562 38.0547 73.1562C37.4818 73.1562 36.9792 73.0443 36.5469 72.8203C36.1198 72.5964 35.7865 72.2969 35.5469 71.9219C35.3125 71.5417 35.1953 71.1172 35.1953 70.6484C35.1953 70.1953 35.2839 69.7969 35.4609 69.4531C35.638 69.1042 35.8932 68.8151 36.2266 68.5859C36.5599 68.3516 36.9609 68.1745 37.4297 68.0547C37.8984 67.9349 38.4219 67.875 39 67.875H40.6797ZM45.5938 65.875V73H44.1484V64.5469H45.5547L45.5938 65.875ZM48.2344 64.5L48.2266 65.8438C48.1068 65.8177 47.9922 65.8021 47.8828 65.7969C47.7786 65.7865 47.6589 65.7812 47.5234 65.7812C47.1901 65.7812 46.8958 65.8333 46.6406 65.9375C46.3854 66.0417 46.1693 66.1875 45.9922 66.375C45.8151 66.5625 45.6745 66.7865 45.5703 67.0469C45.4714 67.3021 45.4062 67.5833 45.375 67.8906L44.9688 68.125C44.9688 67.6146 45.0182 67.1354 45.1172 66.6875C45.2214 66.2396 45.3802 65.8438 45.5938 65.5C45.8073 65.151 46.0781 64.8802 46.4062 64.6875C46.7396 64.4896 47.1354 64.3906 47.5938 64.3906C47.6979 64.3906 47.8177 64.4036 47.9531 64.4297C48.0885 64.4505 48.1823 64.474 48.2344 64.5ZM52.9219 73.1562C52.3333 73.1562 51.7995 73.0573 51.3203 72.8594C50.8464 72.6562 50.4375 72.3724 50.0938 72.0078C49.7552 71.6432 49.4948 71.2109 49.3125 70.7109C49.1302 70.2109 49.0391 69.6641 49.0391 69.0703V68.7422C49.0391 68.0547 49.1406 67.4427 49.3438 66.9062C49.5469 66.3646 49.8229 65.9062 50.1719 65.5312C50.5208 65.1562 50.9167 64.8724 51.3594 64.6797C51.8021 64.487 52.2604 64.3906 52.7344 64.3906C53.3385 64.3906 53.8594 64.4948 54.2969 64.7031C54.7396 64.9115 55.1016 65.2031 55.3828 65.5781C55.6641 65.9479 55.8724 66.3854 56.0078 66.8906C56.1432 67.3906 56.2109 67.9375 56.2109 68.5312V69.1797H49.8984V68H54.7656V67.8906C54.7448 67.5156 54.6667 67.151 54.5312 66.7969C54.401 66.4427 54.1927 66.151 53.9062 65.9219C53.6198 65.6927 53.2292 65.5781 52.7344 65.5781C52.4062 65.5781 52.1042 65.6484 51.8281 65.7891C51.5521 65.9245 51.3151 66.1276 51.1172 66.3984C50.9193 66.6693 50.7656 67 50.6562 67.3906C50.5469 67.7812 50.4922 68.2318 50.4922 68.7422V69.0703C50.4922 69.4714 50.5469 69.849 50.6562 70.2031C50.7708 70.5521 50.9349 70.8594 51.1484 71.125C51.3672 71.3906 51.6302 71.599 51.9375 71.75C52.25 71.901 52.6042 71.9766 53 71.9766C53.5104 71.9766 53.9427 71.8724 54.2969 71.6641C54.651 71.4557 54.9609 71.1771 55.2266 70.8281L56.1016 71.5234C55.9193 71.7995 55.6875 72.0625 55.4062 72.3125C55.125 72.5625 54.7786 72.7656 54.3672 72.9219C53.9609 73.0781 53.4792 73.1562 52.9219 73.1562ZM65.4062 64.5469V65.6562H60.8359V64.5469H65.4062ZM62.3828 62.4922H63.8281V70.9062C63.8281 71.1927 63.8724 71.4089 63.9609 71.5547C64.0495 71.7005 64.1641 71.7969 64.3047 71.8438C64.4453 71.8906 64.5964 71.9141 64.7578 71.9141C64.8776 71.9141 65.0026 71.9036 65.1328 71.8828C65.2682 71.8568 65.3698 71.8359 65.4375 71.8203L65.4453 73C65.3307 73.0365 65.1797 73.0703 64.9922 73.1016C64.8099 73.138 64.5885 73.1562 64.3281 73.1562C63.974 73.1562 63.6484 73.0859 63.3516 72.9453C63.0547 72.8047 62.8177 72.5703 62.6406 72.2422C62.4688 71.9089 62.3828 71.4609 62.3828 70.8984V62.4922ZM66.5625 68.8672V68.6875C66.5625 68.0781 66.651 67.513 66.8281 66.9922C67.0052 66.4661 67.2604 66.0104 67.5938 65.625C67.9271 65.2344 68.3307 64.9323 68.8047 64.7188C69.2786 64.5 69.8099 64.3906 70.3984 64.3906C70.9922 64.3906 71.526 64.5 72 64.7188C72.4792 64.9323 72.8854 65.2344 73.2188 65.625C73.5573 66.0104 73.8151 66.4661 73.9922 66.9922C74.1693 67.513 74.2578 68.0781 74.2578 68.6875V68.8672C74.2578 69.4766 74.1693 70.0417 73.9922 70.5625C73.8151 71.0833 73.5573 71.5391 73.2188 71.9297C72.8854 72.3151 72.4818 72.6172 72.0078 72.8359C71.5391 73.0495 71.0078 73.1562 70.4141 73.1562C69.8203 73.1562 69.2865 73.0495 68.8125 72.8359C68.3385 72.6172 67.9323 72.3151 67.5938 71.9297C67.2604 71.5391 67.0052 71.0833 66.8281 70.5625C66.651 70.0417 66.5625 69.4766 66.5625 68.8672ZM68.0078 68.6875V68.8672C68.0078 69.2891 68.0573 69.6875 68.1562 70.0625C68.2552 70.4323 68.4036 70.7604 68.6016 71.0469C68.8047 71.3333 69.0573 71.5599 69.3594 71.7266C69.6615 71.888 70.013 71.9688 70.4141 71.9688C70.8099 71.9688 71.1562 71.888 71.4531 71.7266C71.7552 71.5599 72.0052 71.3333 72.2031 71.0469C72.401 70.7604 72.5495 70.4323 72.6484 70.0625C72.7526 69.6875 72.8047 69.2891 72.8047 68.8672V68.6875C72.8047 68.2708 72.7526 67.8776 72.6484 67.5078C72.5495 67.1328 72.3984 66.8021 72.1953 66.5156C71.9974 66.224 71.7474 65.9948 71.4453 65.8281C71.1484 65.6615 70.7995 65.5781 70.3984 65.5781C70.0026 65.5781 69.6536 65.6615 69.3516 65.8281C69.0547 65.9948 68.8047 66.224 68.6016 66.5156C68.4036 66.8021 68.2552 67.1328 68.1562 67.5078C68.0573 67.8776 68.0078 68.2708 68.0078 68.6875ZM6.82812 92.125L9.17969 84.5469H10.7266L7.33594 94.3047C7.25781 94.513 7.15365 94.737 7.02344 94.9766C6.89844 95.2214 6.73698 95.4531 6.53906 95.6719C6.34115 95.8906 6.10156 96.0677 5.82031 96.2031C5.54427 96.3438 5.21354 96.4141 4.82812 96.4141C4.71354 96.4141 4.56771 96.3984 4.39062 96.3672C4.21354 96.3359 4.08854 96.3099 4.01562 96.2891L4.00781 95.1172C4.04948 95.1224 4.11458 95.1276 4.20312 95.1328C4.29688 95.1432 4.36198 95.1484 4.39844 95.1484C4.72656 95.1484 5.00521 95.1042 5.23438 95.0156C5.46354 94.9323 5.65625 94.7891 5.8125 94.5859C5.97396 94.388 6.11198 94.1146 6.22656 93.7656L6.82812 92.125ZM5.10156 84.5469L7.29688 91.1094L7.67188 92.6328L6.63281 93.1641L3.52344 84.5469H5.10156ZM11.5234 88.8672V88.6875C11.5234 88.0781 11.612 87.513 11.7891 86.9922C11.9661 86.4661 12.2214 86.0104 12.5547 85.625C12.888 85.2344 13.2917 84.9323 13.7656 84.7188C14.2396 84.5 14.7708 84.3906 15.3594 84.3906C15.9531 84.3906 16.487 84.5 16.9609 84.7188C17.4401 84.9323 17.8464 85.2344 18.1797 85.625C18.5182 86.0104 18.776 86.4661 18.9531 86.9922C19.1302 87.513 19.2188 88.0781 19.2188 88.6875V88.8672C19.2188 89.4766 19.1302 90.0417 18.9531 90.5625C18.776 91.0833 18.5182 91.5391 18.1797 91.9297C17.8464 92.3151 17.4427 92.6172 16.9688 92.8359C16.5 93.0495 15.9688 93.1562 15.375 93.1562C14.7812 93.1562 14.2474 93.0495 13.7734 92.8359C13.2995 92.6172 12.8932 92.3151 12.5547 91.9297C12.2214 91.5391 11.9661 91.0833 11.7891 90.5625C11.612 90.0417 11.5234 89.4766 11.5234 88.8672ZM12.9688 88.6875V88.8672C12.9688 89.2891 13.0182 89.6875 13.1172 90.0625C13.2161 90.4323 13.3646 90.7604 13.5625 91.0469C13.7656 91.3333 14.0182 91.5599 14.3203 91.7266C14.6224 91.888 14.974 91.9688 15.375 91.9688C15.7708 91.9688 16.1172 91.888 16.4141 91.7266C16.7161 91.5599 16.9661 91.3333 17.1641 91.0469C17.362 90.7604 17.5104 90.4323 17.6094 90.0625C17.7135 89.6875 17.7656 89.2891 17.7656 88.8672V88.6875C17.7656 88.2708 17.7135 87.8776 17.6094 87.5078C17.5104 87.1328 17.3594 86.8021 17.1562 86.5156C16.9583 86.224 16.7083 85.9948 16.4062 85.8281C16.1094 85.6615 15.7604 85.5781 15.3594 85.5781C14.9635 85.5781 14.6146 85.6615 14.3125 85.8281C14.0156 85.9948 13.7656 86.224 13.5625 86.5156C13.3646 86.8021 13.2161 87.1328 13.1172 87.5078C13.0182 87.8776 12.9688 88.2708 12.9688 88.6875ZM26.2031 91.0469V84.5469H27.6562V93H26.2734L26.2031 91.0469ZM26.4766 89.2656L27.0781 89.25C27.0781 89.8125 27.0182 90.3333 26.8984 90.8125C26.7839 91.2865 26.5964 91.6979 26.3359 92.0469C26.0755 92.3958 25.7344 92.6693 25.3125 92.8672C24.8906 93.0599 24.3776 93.1562 23.7734 93.1562C23.362 93.1562 22.9844 93.0964 22.6406 92.9766C22.3021 92.8568 22.0104 92.6719 21.7656 92.4219C21.5208 92.1719 21.3307 91.8464 21.1953 91.4453C21.0651 91.0443 21 90.5625 21 90V84.5469H22.4453V90.0156C22.4453 90.3958 22.487 90.7109 22.5703 90.9609C22.6589 91.2057 22.776 91.401 22.9219 91.5469C23.0729 91.6875 23.2396 91.7865 23.4219 91.8438C23.6094 91.901 23.8021 91.9297 24 91.9297C24.6146 91.9297 25.1016 91.8125 25.4609 91.5781C25.8203 91.3385 26.0781 91.0182 26.2344 90.6172C26.3958 90.2109 26.4766 89.7604 26.4766 89.2656ZM31.3047 85.875V93H29.8594V84.5469H31.2656L31.3047 85.875ZM33.9453 84.5L33.9375 85.8438C33.8177 85.8177 33.7031 85.8021 33.5938 85.7969C33.4896 85.7865 33.3698 85.7812 33.2344 85.7812C32.901 85.7812 32.6068 85.8333 32.3516 85.9375C32.0964 86.0417 31.8802 86.1875 31.7031 86.375C31.526 86.5625 31.3854 86.7865 31.2812 87.0469C31.1823 87.3021 31.1172 87.5833 31.0859 87.8906L30.6797 88.125C30.6797 87.6146 30.7292 87.1354 30.8281 86.6875C30.9323 86.2396 31.0911 85.8438 31.3047 85.5C31.5182 85.151 31.7891 84.8802 32.1172 84.6875C32.4505 84.4896 32.8464 84.3906 33.3047 84.3906C33.4089 84.3906 33.5286 84.4036 33.6641 84.4297C33.7995 84.4505 33.8932 84.474 33.9453 84.5ZM41.4062 93H39.9609V83.6562C39.9609 83.0469 40.0703 82.5339 40.2891 82.1172C40.513 81.6953 40.8333 81.3776 41.25 81.1641C41.6667 80.9453 42.1615 80.8359 42.7344 80.8359C42.901 80.8359 43.0677 80.8464 43.2344 80.8672C43.4062 80.888 43.5729 80.9193 43.7344 80.9609L43.6562 82.1406C43.5469 82.1146 43.4219 82.0964 43.2812 82.0859C43.1458 82.0755 43.0104 82.0703 42.875 82.0703C42.5677 82.0703 42.3021 82.1328 42.0781 82.2578C41.8594 82.3776 41.6927 82.5547 41.5781 82.7891C41.4635 83.0234 41.4062 83.3125 41.4062 83.6562V93ZM43.2031 84.5469V85.6562H38.625V84.5469H43.2031ZM46.2578 85.875V93H44.8125V84.5469H46.2188L46.2578 85.875ZM48.8984 84.5L48.8906 85.8438C48.7708 85.8177 48.6562 85.8021 48.5469 85.7969C48.4427 85.7865 48.3229 85.7812 48.1875 85.7812C47.8542 85.7812 47.5599 85.8333 47.3047 85.9375C47.0495 86.0417 46.8333 86.1875 46.6562 86.375C46.4792 86.5625 46.3385 86.7865 46.2344 87.0469C46.1354 87.3021 46.0703 87.5833 46.0391 87.8906L45.6328 88.125C45.6328 87.6146 45.6823 87.1354 45.7812 86.6875C45.8854 86.2396 46.0443 85.8438 46.2578 85.5C46.4714 85.151 46.7422 84.8802 47.0703 84.6875C47.4036 84.4896 47.7995 84.3906 48.2578 84.3906C48.362 84.3906 48.4818 84.4036 48.6172 84.4297C48.7526 84.4505 48.8464 84.474 48.8984 84.5ZM51.8047 84.5469V93H50.3516V84.5469H51.8047ZM50.2422 82.3047C50.2422 82.0703 50.3125 81.8724 50.4531 81.7109C50.599 81.5495 50.8125 81.4688 51.0938 81.4688C51.3698 81.4688 51.5807 81.5495 51.7266 81.7109C51.8776 81.8724 51.9531 82.0703 51.9531 82.3047C51.9531 82.5286 51.8776 82.7214 51.7266 82.8828C51.5807 83.0391 51.3698 83.1172 51.0938 83.1172C50.8125 83.1172 50.599 83.0391 50.4531 82.8828C50.3125 82.7214 50.2422 82.5286 50.2422 82.3047ZM57.6328 93.1562C57.0443 93.1562 56.5104 93.0573 56.0312 92.8594C55.5573 92.6562 55.1484 92.3724 54.8047 92.0078C54.4661 91.6432 54.2057 91.2109 54.0234 90.7109C53.8411 90.2109 53.75 89.6641 53.75 89.0703V88.7422C53.75 88.0547 53.8516 87.4427 54.0547 86.9062C54.2578 86.3646 54.5339 85.9062 54.8828 85.5312C55.2318 85.1562 55.6276 84.8724 56.0703 84.6797C56.513 84.487 56.9714 84.3906 57.4453 84.3906C58.0495 84.3906 58.5703 84.4948 59.0078 84.7031C59.4505 84.9115 59.8125 85.2031 60.0938 85.5781C60.375 85.9479 60.5833 86.3854 60.7188 86.8906C60.8542 87.3906 60.9219 87.9375 60.9219 88.5312V89.1797H54.6094V88H59.4766V87.8906C59.4557 87.5156 59.3776 87.151 59.2422 86.7969C59.112 86.4427 58.9036 86.151 58.6172 85.9219C58.3307 85.6927 57.9401 85.5781 57.4453 85.5781C57.1172 85.5781 56.8151 85.6484 56.5391 85.7891C56.263 85.9245 56.026 86.1276 55.8281 86.3984C55.6302 86.6693 55.4766 87 55.3672 87.3906C55.2578 87.7812 55.2031 88.2318 55.2031 88.7422V89.0703C55.2031 89.4714 55.2578 89.849 55.3672 90.2031C55.4818 90.5521 55.6458 90.8594 55.8594 91.125C56.0781 91.3906 56.3411 91.599 56.6484 91.75C56.9609 91.901 57.3151 91.9766 57.7109 91.9766C58.2214 91.9766 58.6536 91.8724 59.0078 91.6641C59.362 91.4557 59.6719 91.1771 59.9375 90.8281L60.8125 91.5234C60.6302 91.7995 60.3984 92.0625 60.1172 92.3125C59.8359 92.5625 59.4896 92.7656 59.0781 92.9219C58.6719 93.0781 58.1901 93.1562 57.6328 93.1562ZM64.0547 86.3516V93H62.6094V84.5469H63.9766L64.0547 86.3516ZM63.7109 88.4531L63.1094 88.4297C63.1146 87.8516 63.2005 87.3177 63.3672 86.8281C63.5339 86.3333 63.7682 85.9036 64.0703 85.5391C64.3724 85.1745 64.7318 84.8932 65.1484 84.6953C65.5703 84.4922 66.0365 84.3906 66.5469 84.3906C66.9635 84.3906 67.3385 84.4479 67.6719 84.5625C68.0052 84.6719 68.2891 84.849 68.5234 85.0938C68.763 85.3385 68.9453 85.6562 69.0703 86.0469C69.1953 86.4323 69.2578 86.9036 69.2578 87.4609V93H67.8047V87.4453C67.8047 87.0026 67.7396 86.6484 67.6094 86.3828C67.4792 86.112 67.2891 85.9167 67.0391 85.7969C66.7891 85.6719 66.4818 85.6094 66.1172 85.6094C65.7578 85.6094 65.4297 85.6849 65.1328 85.8359C64.8411 85.987 64.5885 86.1953 64.375 86.4609C64.1667 86.7266 64.0026 87.0312 63.8828 87.375C63.7682 87.7135 63.7109 88.0729 63.7109 88.4531ZM76.7812 91.3594V81H78.2344V93H76.9062L76.7812 91.3594ZM71.0938 88.8672V88.7031C71.0938 88.0573 71.1719 87.4714 71.3281 86.9453C71.4896 86.4141 71.7161 85.9583 72.0078 85.5781C72.3047 85.1979 72.6562 84.9062 73.0625 84.7031C73.474 84.4948 73.9323 84.3906 74.4375 84.3906C74.9688 84.3906 75.4323 84.4844 75.8281 84.6719C76.2292 84.8542 76.5677 85.1224 76.8438 85.4766C77.125 85.8255 77.3464 86.2474 77.5078 86.7422C77.6693 87.237 77.7812 87.7969 77.8438 88.4219V89.1406C77.7865 89.7604 77.6745 90.3177 77.5078 90.8125C77.3464 91.3073 77.125 91.7292 76.8438 92.0781C76.5677 92.4271 76.2292 92.6953 75.8281 92.8828C75.4271 93.0651 74.9583 93.1562 74.4219 93.1562C73.9271 93.1562 73.474 93.0495 73.0625 92.8359C72.6562 92.6224 72.3047 92.3229 72.0078 91.9375C71.7161 91.5521 71.4896 91.099 71.3281 90.5781C71.1719 90.0521 71.0938 89.4818 71.0938 88.8672ZM72.5469 88.7031V88.8672C72.5469 89.2891 72.5885 89.6849 72.6719 90.0547C72.7604 90.4245 72.8958 90.75 73.0781 91.0312C73.2604 91.3125 73.4922 91.5339 73.7734 91.6953C74.0547 91.8516 74.3906 91.9297 74.7812 91.9297C75.2604 91.9297 75.6536 91.8281 75.9609 91.625C76.2734 91.4219 76.5234 91.1536 76.7109 90.8203C76.8984 90.487 77.0443 90.125 77.1484 89.7344V87.8516C77.0859 87.5651 76.9948 87.2891 76.875 87.0234C76.7604 86.7526 76.6094 86.513 76.4219 86.3047C76.2396 86.0911 76.013 85.9219 75.7422 85.7969C75.4766 85.6719 75.1615 85.6094 74.7969 85.6094C74.401 85.6094 74.0599 85.6927 73.7734 85.8594C73.4922 86.0208 73.2604 86.2448 73.0781 86.5312C72.8958 86.8125 72.7604 87.1406 72.6719 87.5156C72.5885 87.8854 72.5469 88.2812 72.5469 88.7031ZM85.4062 90.7578C85.4062 90.5495 85.3594 90.3568 85.2656 90.1797C85.1771 89.9974 84.9922 89.8333 84.7109 89.6875C84.4349 89.5365 84.0182 89.4062 83.4609 89.2969C82.9922 89.1979 82.5677 89.0807 82.1875 88.9453C81.8125 88.8099 81.4922 88.6458 81.2266 88.4531C80.9661 88.2604 80.7656 88.0339 80.625 87.7734C80.4844 87.513 80.4141 87.2083 80.4141 86.8594C80.4141 86.526 80.487 86.2109 80.6328 85.9141C80.7839 85.6172 80.9948 85.3542 81.2656 85.125C81.5417 84.8958 81.8724 84.7161 82.2578 84.5859C82.6432 84.4557 83.0729 84.3906 83.5469 84.3906C84.224 84.3906 84.8021 84.5104 85.2812 84.75C85.7604 84.9896 86.1276 85.3099 86.3828 85.7109C86.638 86.1068 86.7656 86.5469 86.7656 87.0312H85.3203C85.3203 86.7969 85.25 86.5703 85.1094 86.3516C84.974 86.1276 84.7734 85.9427 84.5078 85.7969C84.2474 85.651 83.9271 85.5781 83.5469 85.5781C83.1458 85.5781 82.8203 85.6406 82.5703 85.7656C82.3255 85.8854 82.1458 86.0391 82.0312 86.2266C81.9219 86.4141 81.8672 86.612 81.8672 86.8203C81.8672 86.9766 81.8932 87.1172 81.9453 87.2422C82.0026 87.362 82.1016 87.474 82.2422 87.5781C82.3828 87.6771 82.5807 87.7708 82.8359 87.8594C83.0911 87.9479 83.4167 88.0365 83.8125 88.125C84.5052 88.2812 85.0755 88.4688 85.5234 88.6875C85.9714 88.9062 86.3047 89.1745 86.5234 89.4922C86.7422 89.8099 86.8516 90.1953 86.8516 90.6484C86.8516 91.0182 86.7734 91.3568 86.6172 91.6641C86.4661 91.9714 86.2448 92.237 85.9531 92.4609C85.6667 92.6797 85.3229 92.8516 84.9219 92.9766C84.526 93.0964 84.0807 93.1562 83.5859 93.1562C82.8411 93.1562 82.2109 93.0234 81.6953 92.7578C81.1797 92.4922 80.7891 92.1484 80.5234 91.7266C80.2578 91.3047 80.125 90.8594 80.125 90.3906H81.5781C81.599 90.7865 81.7135 91.1016 81.9219 91.3359C82.1302 91.5651 82.3854 91.7292 82.6875 91.8281C82.9896 91.9219 83.2891 91.9688 83.5859 91.9688C83.9818 91.9688 84.3125 91.9167 84.5781 91.8125C84.849 91.7083 85.0547 91.5651 85.1953 91.3828C85.3359 91.2005 85.4062 90.9922 85.4062 90.7578Z" fill="#D0D0D0"/>
<circle cx="46" cy="25" r="25" fill="#3E3E3E"/>
<path d="M36.5469 28.8554C37.6807 28.849 38.7712 28.4193 39.6046 27.6505L47.7153 32.2889C47.612 32.6469 47.5596 33.0176 47.5598 33.3902C47.5515 34.4416 47.9057 35.4639 48.5629 36.2847C49.22 37.1056 50.14 37.6749 51.1678 37.8969C52.1956 38.1189 53.2685 37.9799 54.2058 37.5035C55.1432 37.027 55.8877 36.2421 56.314 35.2809C56.7404 34.3197 56.8226 33.241 56.5466 32.2263C56.2707 31.2117 55.6536 30.3231 54.7993 29.7101C53.9449 29.0972 52.9054 28.7974 51.8558 28.8612C50.8062 28.925 49.8107 29.3485 49.0369 30.0604L40.9262 25.422C41.024 25.1027 41.0764 24.7712 41.0816 24.4373L49.0498 19.8767C49.8195 20.5722 50.8049 20.9819 51.8409 21.0372C52.8768 21.0924 53.9002 20.7897 54.7395 20.1799C55.5788 19.5701 56.1828 18.6903 56.4504 17.688C56.7179 16.6856 56.6327 15.6218 56.2089 14.6749C55.7852 13.728 55.0488 12.9555 54.1231 12.4871C53.1975 12.0187 52.1389 11.8829 51.125 12.1023C50.1111 12.3218 49.2034 12.8832 48.5543 13.6924C47.9052 14.5017 47.5541 15.5095 47.5598 16.5469C47.5642 16.9191 47.6165 17.2892 47.7153 17.6482L40.3431 21.859C39.916 21.1982 39.3242 20.6598 38.626 20.297C37.9278 19.9341 37.1472 19.7591 36.3609 19.7893C35.5746 19.8195 34.8097 20.0537 34.1413 20.469C33.473 20.8844 32.9242 21.4664 32.5489 22.158C32.1737 22.8497 31.9848 23.627 32.001 24.4137C32.0171 25.2004 32.2377 25.9694 32.641 26.6451C33.0443 27.3207 33.6165 27.8798 34.3013 28.2673C34.9861 28.6549 35.76 28.8575 36.5469 28.8554ZM52.0946 31.4467C52.4789 31.4467 52.8547 31.5607 53.1743 31.7743C53.4939 31.9878 53.743 32.2913 53.8901 32.6464C54.0372 33.0016 54.0757 33.3923 54.0007 33.7693C53.9257 34.1463 53.7406 34.4926 53.4688 34.7644C53.197 35.0362 52.8507 35.2213 52.4737 35.2963C52.0967 35.3713 51.706 35.3328 51.3508 35.1857C50.9957 35.0386 50.6922 34.7895 50.4786 34.4699C50.2651 34.1503 50.1511 33.7746 50.1511 33.3902C50.1511 32.8747 50.3559 32.3804 50.7203 32.0159C51.0848 31.6515 51.5791 31.4467 52.0946 31.4467ZM52.0946 14.6034C52.4789 14.6034 52.8547 14.7174 53.1743 14.9309C53.4939 15.1445 53.743 15.448 53.8901 15.8031C54.0372 16.1583 54.0757 16.549 54.0007 16.926C53.9257 17.303 53.7406 17.6493 53.4688 17.9211C53.197 18.1929 52.8507 18.378 52.4737 18.453C52.0967 18.528 51.706 18.4895 51.3508 18.3424C50.9957 18.1953 50.6922 17.9462 50.4786 17.6266C50.2651 17.307 50.1511 16.9312 50.1511 16.5469C50.1511 16.0314 50.3559 15.5371 50.7203 15.1726C51.0848 14.8082 51.5791 14.6034 52.0946 14.6034ZM36.5469 22.3772C36.9313 22.3772 37.307 22.4912 37.6266 22.7048C37.9462 22.9183 38.1953 23.2218 38.3424 23.577C38.4895 23.9321 38.528 24.3229 38.453 24.6999C38.378 25.0768 38.1929 25.4231 37.9211 25.6949C37.6493 25.9667 37.303 26.1518 36.926 26.2268C36.549 26.3018 36.1583 26.2633 35.8032 26.1162C35.448 25.9691 35.1445 25.72 34.931 25.4004C34.7174 25.0808 34.6034 24.7051 34.6034 24.3207C34.6034 23.8053 34.8082 23.3109 35.1727 22.9465C35.5371 22.582 36.0315 22.3772 36.5469 22.3772Z" fill="#D0D0D0"/>
</svg>
