<svg width="62" height="78" viewBox="0 0 62 78" fill="none" xmlns="http://www.w3.org/2000/svg">
<circle cx="31" cy="25" r="25" fill="#3E3E3E"/>
<path d="M19.75 27.85C19.9489 27.85 20.1397 27.929 20.2803 28.0696C20.421 28.2103 20.5 28.4011 20.5 28.6V32.35C20.5 32.7478 20.658 33.1293 20.9393 33.4106C21.2206 33.6919 21.6022 33.85 22 33.85H40C40.3978 33.85 40.7794 33.6919 41.0607 33.4106C41.342 33.1293 41.5 32.7478 41.5 32.35V28.6C41.5 28.4011 41.579 28.2103 41.7197 28.0696C41.8603 27.929 42.0511 27.85 42.25 27.85C42.4489 27.85 42.6397 27.929 42.7803 28.0696C42.921 28.2103 43 28.4011 43 28.6V32.35C43 33.1456 42.6839 33.9087 42.1213 34.4713C41.5587 35.0339 40.7956 35.35 40 35.35H22C21.2044 35.35 20.4413 35.0339 19.8787 34.4713C19.3161 33.9087 19 33.1456 19 32.35V28.6C19 28.4011 19.079 28.2103 19.2197 28.0696C19.3603 27.929 19.5511 27.85 19.75 27.85Z" fill="#D0D0D0"/>
<path d="M30.469 30.781C30.5386 30.8508 30.6214 30.9063 30.7125 30.9441C30.8036 30.9819 30.9013 31.0013 31 31.0013C31.0986 31.0013 31.1963 30.9819 31.2874 30.9441C31.3785 30.9063 31.4613 30.8508 31.531 30.781L36.031 26.281C36.1718 26.1402 36.2509 25.9492 36.2509 25.75C36.2509 25.5508 36.1718 25.3598 36.031 25.219C35.8901 25.0782 35.6991 24.9991 35.5 24.9991C35.3008 24.9991 35.1098 25.0782 34.969 25.219L31.75 28.4395V15.25C31.75 15.0511 31.671 14.8603 31.5303 14.7197C31.3896 14.579 31.1989 14.5 31 14.5C30.8011 14.5 30.6103 14.579 30.4696 14.7197C30.329 14.8603 30.25 15.0511 30.25 15.25V28.4395L27.031 25.219C26.8901 25.0782 26.6991 24.9991 26.5 24.9991C26.3008 24.9991 26.1098 25.0782 25.969 25.219C25.8281 25.3598 25.749 25.5508 25.749 25.75C25.749 25.9492 25.8281 26.1402 25.969 26.281L30.469 30.781Z" fill="#D0D0D0"/>
<path d="M5.62598 74.5645V65.5H6.89746V76H5.73535L5.62598 74.5645ZM0.649414 72.3838V72.2402C0.649414 71.6751 0.717773 71.1624 0.854492 70.7021C0.995768 70.2373 1.19401 69.8385 1.44922 69.5059C1.70898 69.1732 2.0166 68.918 2.37207 68.7402C2.7321 68.5579 3.13314 68.4668 3.5752 68.4668C4.04004 68.4668 4.44564 68.5488 4.79199 68.7129C5.1429 68.8724 5.43913 69.1071 5.68066 69.417C5.92676 69.7223 6.12044 70.0915 6.26172 70.5244C6.40299 70.9574 6.50098 71.4473 6.55566 71.9941V72.623C6.50553 73.1654 6.40755 73.653 6.26172 74.0859C6.12044 74.5189 5.92676 74.888 5.68066 75.1934C5.43913 75.4987 5.1429 75.7334 4.79199 75.8975C4.44108 76.057 4.03092 76.1367 3.56152 76.1367C3.12858 76.1367 2.7321 76.0433 2.37207 75.8564C2.0166 75.6696 1.70898 75.4076 1.44922 75.0703C1.19401 74.7331 0.995768 74.3366 0.854492 73.8809C0.717773 73.4206 0.649414 72.9215 0.649414 72.3838ZM1.9209 72.2402V72.3838C1.9209 72.7529 1.95736 73.0993 2.03027 73.4229C2.10775 73.7464 2.22624 74.0312 2.38574 74.2773C2.54525 74.5234 2.74805 74.7171 2.99414 74.8584C3.24023 74.9951 3.53418 75.0635 3.87598 75.0635C4.29525 75.0635 4.63932 74.9746 4.9082 74.7969C5.18164 74.6191 5.40039 74.3844 5.56445 74.0928C5.72852 73.8011 5.85612 73.4844 5.94727 73.1426V71.4951C5.89258 71.2445 5.81283 71.0029 5.70801 70.7705C5.60775 70.5335 5.47559 70.3239 5.31152 70.1416C5.15202 69.9548 4.95378 69.8066 4.7168 69.6973C4.48438 69.5879 4.20866 69.5332 3.88965 69.5332C3.54329 69.5332 3.24479 69.6061 2.99414 69.752C2.74805 69.8932 2.54525 70.0892 2.38574 70.3398C2.22624 70.5859 2.10775 70.873 2.03027 71.2012C1.95736 71.5247 1.9209 71.8711 1.9209 72.2402ZM8.53125 72.3838V72.2266C8.53125 71.6934 8.60872 71.1989 8.76367 70.7432C8.91862 70.2829 9.14193 69.8841 9.43359 69.5469C9.72526 69.2051 10.0785 68.9408 10.4932 68.7539C10.9079 68.5625 11.3727 68.4668 11.8877 68.4668C12.4072 68.4668 12.8743 68.5625 13.2891 68.7539C13.7083 68.9408 14.0638 69.2051 14.3555 69.5469C14.6517 69.8841 14.8773 70.2829 15.0322 70.7432C15.1872 71.1989 15.2646 71.6934 15.2646 72.2266V72.3838C15.2646 72.917 15.1872 73.4115 15.0322 73.8672C14.8773 74.3229 14.6517 74.7217 14.3555 75.0635C14.0638 75.4007 13.7106 75.665 13.2959 75.8564C12.8857 76.0433 12.4209 76.1367 11.9014 76.1367C11.3818 76.1367 10.9147 76.0433 10.5 75.8564C10.0853 75.665 9.72982 75.4007 9.43359 75.0635C9.14193 74.7217 8.91862 74.3229 8.76367 73.8672C8.60872 73.4115 8.53125 72.917 8.53125 72.3838ZM9.7959 72.2266V72.3838C9.7959 72.7529 9.83919 73.1016 9.92578 73.4297C10.0124 73.7533 10.1423 74.0404 10.3154 74.291C10.4932 74.5417 10.7142 74.7399 10.9785 74.8857C11.2428 75.027 11.5505 75.0977 11.9014 75.0977C12.2477 75.0977 12.5508 75.027 12.8105 74.8857C13.0749 74.7399 13.2936 74.5417 13.4668 74.291C13.64 74.0404 13.7699 73.7533 13.8564 73.4297C13.9476 73.1016 13.9932 72.7529 13.9932 72.3838V72.2266C13.9932 71.862 13.9476 71.5179 13.8564 71.1943C13.7699 70.8662 13.6377 70.5768 13.46 70.3262C13.2868 70.071 13.068 69.8704 12.8037 69.7246C12.5439 69.5788 12.2386 69.5059 11.8877 69.5059C11.5413 69.5059 11.236 69.5788 10.9717 69.7246C10.7119 69.8704 10.4932 70.071 10.3154 70.3262C10.1423 70.5768 10.0124 70.8662 9.92578 71.1943C9.83919 71.5179 9.7959 71.862 9.7959 72.2266ZM18.7236 74.6875L20.624 68.6035H21.458L21.2939 69.8135L19.3594 76H18.5459L18.7236 74.6875ZM17.4453 68.6035L19.0654 74.7559L19.1816 76H18.3271L16.1807 68.6035H17.4453ZM23.2764 74.708L24.8213 68.6035H26.0791L23.9326 76H23.085L23.2764 74.708ZM21.6426 68.6035L23.502 74.585L23.7139 76H22.9072L20.918 69.7998L20.7539 68.6035H21.6426ZM28.6426 70.1826V76H27.3779V68.6035H28.5742L28.6426 70.1826ZM28.3418 72.0215L27.8154 72.001C27.82 71.4951 27.8952 71.028 28.041 70.5996C28.1868 70.1667 28.3919 69.7907 28.6562 69.4717C28.9206 69.1527 29.235 68.9066 29.5996 68.7334C29.9688 68.5557 30.3766 68.4668 30.8232 68.4668C31.1878 68.4668 31.516 68.5169 31.8076 68.6172C32.0993 68.7129 32.3477 68.8678 32.5527 69.082C32.7624 69.2962 32.9219 69.5742 33.0312 69.916C33.1406 70.2533 33.1953 70.6657 33.1953 71.1533V76H31.9238V71.1396C31.9238 70.7523 31.8669 70.4424 31.7529 70.21C31.639 69.973 31.4727 69.8021 31.2539 69.6973C31.0352 69.5879 30.7663 69.5332 30.4473 69.5332C30.1328 69.5332 29.8457 69.5993 29.5859 69.7314C29.3307 69.8636 29.1097 70.0459 28.9229 70.2783C28.7406 70.5107 28.597 70.7773 28.4922 71.0781C28.3919 71.3743 28.3418 71.6888 28.3418 72.0215ZM36.4902 65.5V76H35.2188V65.5H36.4902ZM38.1855 72.3838V72.2266C38.1855 71.6934 38.263 71.1989 38.418 70.7432C38.5729 70.2829 38.7962 69.8841 39.0879 69.5469C39.3796 69.2051 39.7327 68.9408 40.1475 68.7539C40.5622 68.5625 41.027 68.4668 41.542 68.4668C42.0615 68.4668 42.5286 68.5625 42.9434 68.7539C43.3626 68.9408 43.7181 69.2051 44.0098 69.5469C44.306 69.8841 44.5316 70.2829 44.6865 70.7432C44.8415 71.1989 44.9189 71.6934 44.9189 72.2266V72.3838C44.9189 72.917 44.8415 73.4115 44.6865 73.8672C44.5316 74.3229 44.306 74.7217 44.0098 75.0635C43.7181 75.4007 43.3649 75.665 42.9502 75.8564C42.54 76.0433 42.0752 76.1367 41.5557 76.1367C41.0361 76.1367 40.569 76.0433 40.1543 75.8564C39.7396 75.665 39.3841 75.4007 39.0879 75.0635C38.7962 74.7217 38.5729 74.3229 38.418 73.8672C38.263 73.4115 38.1855 72.917 38.1855 72.3838ZM39.4502 72.2266V72.3838C39.4502 72.7529 39.4935 73.1016 39.5801 73.4297C39.6667 73.7533 39.7965 74.0404 39.9697 74.291C40.1475 74.5417 40.3685 74.7399 40.6328 74.8857C40.8971 75.027 41.2048 75.0977 41.5557 75.0977C41.902 75.0977 42.2051 75.027 42.4648 74.8857C42.7292 74.7399 42.9479 74.5417 43.1211 74.291C43.2943 74.0404 43.4242 73.7533 43.5107 73.4297C43.6019 73.1016 43.6475 72.7529 43.6475 72.3838V72.2266C43.6475 71.862 43.6019 71.5179 43.5107 71.1943C43.4242 70.8662 43.292 70.5768 43.1143 70.3262C42.9411 70.071 42.7223 69.8704 42.458 69.7246C42.1982 69.5788 41.8929 69.5059 41.542 69.5059C41.1956 69.5059 40.8903 69.5788 40.626 69.7246C40.3662 69.8704 40.1475 70.071 39.9697 70.3262C39.7965 70.5768 39.6667 70.8662 39.5801 71.1943C39.4935 71.5179 39.4502 71.862 39.4502 72.2266ZM50.8662 74.7354V70.9277C50.8662 70.6361 50.807 70.3831 50.6885 70.1689C50.5745 69.9502 50.4014 69.7816 50.1689 69.6631C49.9365 69.5446 49.6494 69.4854 49.3076 69.4854C48.9886 69.4854 48.7083 69.54 48.4668 69.6494C48.2298 69.7588 48.043 69.9023 47.9062 70.0801C47.7741 70.2578 47.708 70.4492 47.708 70.6543H46.4434C46.4434 70.39 46.5117 70.1279 46.6484 69.8682C46.7852 69.6084 46.9811 69.3737 47.2363 69.1641C47.4961 68.9499 47.806 68.7812 48.166 68.6582C48.5306 68.5306 48.9362 68.4668 49.3828 68.4668C49.9206 68.4668 50.3945 68.5579 50.8047 68.7402C51.2194 68.9225 51.543 69.1982 51.7754 69.5674C52.0124 69.932 52.1309 70.39 52.1309 70.9414V74.3867C52.1309 74.6328 52.1514 74.8949 52.1924 75.1729C52.238 75.4508 52.304 75.6901 52.3906 75.8906V76H51.0713C51.0075 75.8542 50.9574 75.6605 50.9209 75.4189C50.8844 75.1729 50.8662 74.945 50.8662 74.7354ZM51.085 71.5156L51.0986 72.4043H49.8203C49.4603 72.4043 49.139 72.4339 48.8564 72.4932C48.5739 72.5479 48.3369 72.6322 48.1455 72.7461C47.9541 72.86 47.8083 73.0036 47.708 73.1768C47.6077 73.3454 47.5576 73.5436 47.5576 73.7715C47.5576 74.0039 47.61 74.2158 47.7148 74.4072C47.8197 74.5986 47.9769 74.7513 48.1865 74.8652C48.4007 74.9746 48.6628 75.0293 48.9727 75.0293C49.36 75.0293 49.7018 74.9473 49.998 74.7832C50.2943 74.6191 50.529 74.4186 50.7021 74.1816C50.8799 73.9447 50.9756 73.7145 50.9893 73.4912L51.5293 74.0996C51.4974 74.291 51.4108 74.5029 51.2695 74.7354C51.1283 74.9678 50.9391 75.1911 50.7021 75.4053C50.4697 75.6149 50.1917 75.7904 49.8682 75.9316C49.5492 76.0684 49.1891 76.1367 48.7881 76.1367C48.2868 76.1367 47.847 76.0387 47.4688 75.8428C47.0951 75.6468 46.8034 75.3848 46.5938 75.0566C46.3887 74.724 46.2861 74.3525 46.2861 73.9424C46.2861 73.5459 46.3636 73.1973 46.5186 72.8965C46.6735 72.5911 46.8968 72.3382 47.1885 72.1377C47.4801 71.9326 47.8311 71.7777 48.2412 71.6729C48.6514 71.568 49.1094 71.5156 49.6152 71.5156H51.085ZM58.7822 74.5645V65.5H60.0537V76H58.8916L58.7822 74.5645ZM53.8057 72.3838V72.2402C53.8057 71.6751 53.874 71.1624 54.0107 70.7021C54.152 70.2373 54.3503 69.8385 54.6055 69.5059C54.8652 69.1732 55.1729 68.918 55.5283 68.7402C55.8883 68.5579 56.2894 68.4668 56.7314 68.4668C57.1963 68.4668 57.6019 68.5488 57.9482 68.7129C58.2992 68.8724 58.5954 69.1071 58.8369 69.417C59.083 69.7223 59.2767 70.0915 59.418 70.5244C59.5592 70.9574 59.6572 71.4473 59.7119 71.9941V72.623C59.6618 73.1654 59.5638 73.653 59.418 74.0859C59.2767 74.5189 59.083 74.888 58.8369 75.1934C58.5954 75.4987 58.2992 75.7334 57.9482 75.8975C57.5973 76.057 57.1872 76.1367 56.7178 76.1367C56.2848 76.1367 55.8883 76.0433 55.5283 75.8564C55.1729 75.6696 54.8652 75.4076 54.6055 75.0703C54.3503 74.7331 54.152 74.3366 54.0107 73.8809C53.874 73.4206 53.8057 72.9215 53.8057 72.3838ZM55.0771 72.2402V72.3838C55.0771 72.7529 55.1136 73.0993 55.1865 73.4229C55.264 73.7464 55.3825 74.0312 55.542 74.2773C55.7015 74.5234 55.9043 74.7171 56.1504 74.8584C56.3965 74.9951 56.6904 75.0635 57.0322 75.0635C57.4515 75.0635 57.7956 74.9746 58.0645 74.7969C58.3379 74.6191 58.5566 74.3844 58.7207 74.0928C58.8848 73.8011 59.0124 73.4844 59.1035 73.1426V71.4951C59.0488 71.2445 58.9691 71.0029 58.8643 70.7705C58.764 70.5335 58.6318 70.3239 58.4678 70.1416C58.3083 69.9548 58.11 69.8066 57.873 69.6973C57.6406 69.5879 57.3649 69.5332 57.0459 69.5332C56.6995 69.5332 56.401 69.6061 56.1504 69.752C55.9043 69.8932 55.7015 70.0892 55.542 70.3398C55.3825 70.5859 55.264 70.873 55.1865 71.2012C55.1136 71.5247 55.0771 71.8711 55.0771 72.2402Z" fill="#D0D0D0"/>
</svg>
