<svg width="29" height="29" viewBox="0 0 29 29" fill="none" xmlns="http://www.w3.org/2000/svg">
<circle cx="14.5" cy="14.5" r="14.5" fill="#FFA400"/>
<path d="M13.9995 21C13.9343 20.9999 13.8696 20.9879 13.8083 20.9645C13.69 20.9191 13.5897 20.8332 13.5234 20.7207C13.4572 20.6082 13.4287 20.4756 13.4427 20.3441L13.8757 16.1546H10.5632C10.4611 16.1547 10.3608 16.1256 10.2732 16.0704C10.1855 16.0152 10.1139 15.936 10.0659 15.8412C10.0179 15.7464 9.9954 15.6397 10.0008 15.5325C10.0062 15.4253 10.0392 15.3217 10.0965 15.2328L14.5337 8.26006C14.6039 8.15094 14.7068 8.06958 14.826 8.0289C14.9452 7.98822 15.0739 7.99055 15.1917 8.03551C15.305 8.07969 15.4017 8.16101 15.4675 8.26744C15.5334 8.37386 15.5649 8.49973 15.5573 8.62642L15.1243 12.8455H18.4368C18.5389 12.8453 18.6392 12.8744 18.7268 12.9296C18.8145 12.9848 18.8861 13.0641 18.9341 13.1588C18.9821 13.2536 19.0046 13.3603 18.9992 13.4675C18.9938 13.5747 18.9608 13.6784 18.9035 13.7673L14.4663 20.74C14.4147 20.8202 14.3451 20.8858 14.2637 20.9312C14.1823 20.9765 14.0916 21.0001 13.9995 21Z" fill="#2A2A2A"/>
</svg>
