<svg width="50" height="78" viewBox="0 0 50 78" fill="none" xmlns="http://www.w3.org/2000/svg">
<circle cx="25" cy="25" r="25" fill="#3E3E3E"/>
<path d="M37.875 33.375C37.875 33.9717 37.6379 34.544 37.216 34.966C36.794 35.3879 36.2217 35.625 35.625 35.625H15.375C14.7783 35.625 14.206 35.3879 13.784 34.966C13.3621 34.544 13.125 33.9717 13.125 33.375V21C13.125 20.4033 13.3621 19.831 13.784 19.409C14.206 18.9871 14.7783 18.75 15.375 18.75H19.875L22.125 15.375H28.875L31.125 18.75H35.625C36.2217 18.75 36.794 18.9871 37.216 19.409C37.6379 19.831 37.875 20.4033 37.875 21V33.375Z" stroke="#D0D0D0" stroke-width="2" stroke-linecap="round" stroke-linejoin="round"/>
<path d="M25.5 31.125C27.9853 31.125 30 29.1103 30 26.625C30 24.1397 27.9853 22.125 25.5 22.125C23.0147 22.125 21 24.1397 21 26.625C21 29.1103 23.0147 31.125 25.5 31.125Z" stroke="#D0D0D0" stroke-width="2" stroke-linecap="round" stroke-linejoin="round"/>
<path d="M8.22852 69.7656V76H6.96387V68.6035H8.19434L8.22852 69.7656ZM10.5391 68.5625L10.5322 69.7383C10.4274 69.7155 10.3271 69.7018 10.2314 69.6973C10.1403 69.6882 10.0355 69.6836 9.91699 69.6836C9.62533 69.6836 9.36784 69.7292 9.14453 69.8203C8.92122 69.9115 8.7321 70.0391 8.57715 70.2031C8.4222 70.3672 8.29915 70.5632 8.20801 70.791C8.12142 71.0143 8.06445 71.2604 8.03711 71.5293L7.68164 71.7344C7.68164 71.2878 7.72493 70.8685 7.81152 70.4766C7.90267 70.0846 8.04167 69.7383 8.22852 69.4375C8.41536 69.1322 8.65234 68.8952 8.93945 68.7266C9.23112 68.5534 9.57747 68.4668 9.97852 68.4668C10.0697 68.4668 10.1745 68.4782 10.293 68.501C10.4115 68.5192 10.4935 68.5397 10.5391 68.5625ZM14.6406 76.1367C14.1257 76.1367 13.6585 76.0501 13.2393 75.877C12.8245 75.6992 12.4668 75.4508 12.166 75.1318C11.8698 74.8128 11.6419 74.4346 11.4824 73.9971C11.3229 73.5596 11.2432 73.0811 11.2432 72.5615V72.2744C11.2432 71.6729 11.332 71.1374 11.5098 70.668C11.6875 70.194 11.929 69.793 12.2344 69.4648C12.5397 69.1367 12.8861 68.8883 13.2734 68.7197C13.6608 68.5511 14.0618 68.4668 14.4766 68.4668C15.0052 68.4668 15.4609 68.5579 15.8438 68.7402C16.2311 68.9225 16.5479 69.1777 16.7939 69.5059C17.04 69.8294 17.2223 70.2122 17.3408 70.6543C17.4593 71.0918 17.5186 71.5703 17.5186 72.0898V72.6572H11.9951V71.625H16.2539V71.5293C16.2357 71.2012 16.1673 70.8822 16.0488 70.5723C15.9349 70.2624 15.7526 70.0072 15.502 69.8066C15.2513 69.6061 14.9095 69.5059 14.4766 69.5059C14.1895 69.5059 13.9251 69.5674 13.6836 69.6904C13.4421 69.8089 13.2347 69.9867 13.0615 70.2236C12.8883 70.4606 12.7539 70.75 12.6582 71.0918C12.5625 71.4336 12.5146 71.8278 12.5146 72.2744V72.5615C12.5146 72.9124 12.5625 73.2428 12.6582 73.5527C12.7585 73.8581 12.902 74.127 13.0889 74.3594C13.2803 74.5918 13.5104 74.7741 13.7793 74.9062C14.0527 75.0384 14.3626 75.1045 14.709 75.1045C15.1556 75.1045 15.5339 75.0133 15.8438 74.8311C16.1536 74.6488 16.4248 74.4049 16.6572 74.0996L17.4229 74.708C17.2633 74.9495 17.0605 75.1797 16.8145 75.3984C16.5684 75.6172 16.2653 75.7949 15.9053 75.9316C15.5498 76.0684 15.1283 76.1367 14.6406 76.1367ZM22.0918 68.6035V69.5742H18.0928V68.6035H22.0918ZM19.4463 66.8057H20.7109V74.168C20.7109 74.4186 20.7497 74.6077 20.8271 74.7354C20.9046 74.863 21.0049 74.9473 21.1279 74.9883C21.251 75.0293 21.3831 75.0498 21.5244 75.0498C21.6292 75.0498 21.7386 75.0407 21.8525 75.0225C21.971 74.9997 22.0599 74.9814 22.1191 74.9678L22.126 76C22.0257 76.0319 21.8936 76.0615 21.7295 76.0889C21.57 76.1208 21.3763 76.1367 21.1484 76.1367C20.8385 76.1367 20.5537 76.0752 20.2939 75.9521C20.0342 75.8291 19.8268 75.624 19.6719 75.3369C19.5215 75.0452 19.4463 74.6533 19.4463 74.1611V66.8057ZM27.9365 74.7354V70.9277C27.9365 70.6361 27.8773 70.3831 27.7588 70.1689C27.6449 69.9502 27.4717 69.7816 27.2393 69.6631C27.0068 69.5446 26.7197 69.4854 26.3779 69.4854C26.0589 69.4854 25.7786 69.54 25.5371 69.6494C25.3001 69.7588 25.1133 69.9023 24.9766 70.0801C24.8444 70.2578 24.7783 70.4492 24.7783 70.6543H23.5137C23.5137 70.39 23.582 70.1279 23.7188 69.8682C23.8555 69.6084 24.0514 69.3737 24.3066 69.1641C24.5664 68.9499 24.8763 68.7812 25.2363 68.6582C25.6009 68.5306 26.0065 68.4668 26.4531 68.4668C26.9909 68.4668 27.4648 68.5579 27.875 68.7402C28.2897 68.9225 28.6133 69.1982 28.8457 69.5674C29.0827 69.932 29.2012 70.39 29.2012 70.9414V74.3867C29.2012 74.6328 29.2217 74.8949 29.2627 75.1729C29.3083 75.4508 29.3743 75.6901 29.4609 75.8906V76H28.1416C28.0778 75.8542 28.0277 75.6605 27.9912 75.4189C27.9548 75.1729 27.9365 74.945 27.9365 74.7354ZM28.1553 71.5156L28.1689 72.4043H26.8906C26.5306 72.4043 26.2093 72.4339 25.9268 72.4932C25.6442 72.5479 25.4072 72.6322 25.2158 72.7461C25.0244 72.86 24.8786 73.0036 24.7783 73.1768C24.6781 73.3454 24.6279 73.5436 24.6279 73.7715C24.6279 74.0039 24.6803 74.2158 24.7852 74.4072C24.89 74.5986 25.0472 74.7513 25.2568 74.8652C25.471 74.9746 25.7331 75.0293 26.043 75.0293C26.4303 75.0293 26.7721 74.9473 27.0684 74.7832C27.3646 74.6191 27.5993 74.4186 27.7725 74.1816C27.9502 73.9447 28.0459 73.7145 28.0596 73.4912L28.5996 74.0996C28.5677 74.291 28.4811 74.5029 28.3398 74.7354C28.1986 74.9678 28.0094 75.1911 27.7725 75.4053C27.54 75.6149 27.262 75.7904 26.9385 75.9316C26.6195 76.0684 26.2594 76.1367 25.8584 76.1367C25.3571 76.1367 24.9173 76.0387 24.5391 75.8428C24.1654 75.6468 23.8737 75.3848 23.6641 75.0566C23.459 74.724 23.3564 74.3525 23.3564 73.9424C23.3564 73.5459 23.4339 73.1973 23.5889 72.8965C23.7438 72.5911 23.9671 72.3382 24.2588 72.1377C24.5505 71.9326 24.9014 71.7777 25.3115 71.6729C25.7217 71.568 26.1797 71.5156 26.6855 71.5156H28.1553ZM32.4619 65.5V76H31.1904V65.5H32.4619ZM36.9805 68.6035L33.7539 72.0557L31.9492 73.9287L31.8467 72.582L33.1387 71.0371L35.4355 68.6035H36.9805ZM35.8252 76L33.1865 72.4727L33.8428 71.3447L37.3154 76H35.8252ZM41.2188 76.1367C40.7038 76.1367 40.2367 76.0501 39.8174 75.877C39.4027 75.6992 39.0449 75.4508 38.7441 75.1318C38.4479 74.8128 38.2201 74.4346 38.0605 73.9971C37.901 73.5596 37.8213 73.0811 37.8213 72.5615V72.2744C37.8213 71.6729 37.9102 71.1374 38.0879 70.668C38.2656 70.194 38.5072 69.793 38.8125 69.4648C39.1178 69.1367 39.4642 68.8883 39.8516 68.7197C40.2389 68.5511 40.64 68.4668 41.0547 68.4668C41.5833 68.4668 42.0391 68.5579 42.4219 68.7402C42.8092 68.9225 43.126 69.1777 43.3721 69.5059C43.6182 69.8294 43.8005 70.2122 43.9189 70.6543C44.0374 71.0918 44.0967 71.5703 44.0967 72.0898V72.6572H38.5732V71.625H42.832V71.5293C42.8138 71.2012 42.7454 70.8822 42.627 70.5723C42.513 70.2624 42.3307 70.0072 42.0801 69.8066C41.8294 69.6061 41.4876 69.5059 41.0547 69.5059C40.7676 69.5059 40.5033 69.5674 40.2617 69.6904C40.0202 69.8089 39.8128 69.9867 39.6396 70.2236C39.4665 70.4606 39.332 70.75 39.2363 71.0918C39.1406 71.4336 39.0928 71.8278 39.0928 72.2744V72.5615C39.0928 72.9124 39.1406 73.2428 39.2363 73.5527C39.3366 73.8581 39.4801 74.127 39.667 74.3594C39.8584 74.5918 40.0885 74.7741 40.3574 74.9062C40.6309 75.0384 40.9408 75.1045 41.2871 75.1045C41.7337 75.1045 42.112 75.0133 42.4219 74.8311C42.7318 74.6488 43.0029 74.4049 43.2354 74.0996L44.001 74.708C43.8415 74.9495 43.6387 75.1797 43.3926 75.3984C43.1465 75.6172 42.8434 75.7949 42.4834 75.9316C42.1279 76.0684 41.7064 76.1367 41.2188 76.1367Z" fill="#D0D0D0"/>
</svg>
