<svg width="50" height="78" viewBox="0 0 50 78" fill="none" xmlns="http://www.w3.org/2000/svg">
<circle cx="25" cy="25" r="25" fill="#3E3E3E"/>
<path d="M28.908 18.156L24.88 14.128L20.852 18.156L19.788 17.092L24.88 12L29.972 17.092L28.908 18.156Z" fill="#D0D0D0"/>
<path d="M24.12 13.064H25.64V29.024H24.12V13.064Z" fill="#D0D0D0"/>
<path d="M32.48 38.1441H17.28C15.988 38.1441 15 37.1561 15 35.8641V22.1841C15 20.8921 15.988 19.9041 17.28 19.9041H22.6V21.4241H17.28C16.824 21.4241 16.52 21.7281 16.52 22.1841V35.8641C16.52 36.3201 16.824 36.6241 17.28 36.6241H32.48C32.936 36.6241 33.24 36.3201 33.24 35.8641V22.1841C33.24 21.7281 32.936 21.4241 32.48 21.4241H27.16V19.9041H32.48C33.772 19.9041 34.76 20.8921 34.76 22.1841V35.8641C34.76 37.1561 33.772 38.1441 32.48 38.1441Z" fill="#D0D0D0"/>
<path d="M13.2705 74.0381C13.2705 73.8558 13.2295 73.6872 13.1475 73.5322C13.07 73.3727 12.9082 73.2292 12.6621 73.1016C12.4206 72.9694 12.056 72.8555 11.5684 72.7598C11.1582 72.6732 10.7868 72.5706 10.4541 72.4521C10.126 72.3337 9.8457 72.1901 9.61328 72.0215C9.38542 71.8529 9.20996 71.6546 9.08691 71.4268C8.96387 71.1989 8.90234 70.9323 8.90234 70.627C8.90234 70.3353 8.96615 70.0596 9.09375 69.7998C9.22591 69.54 9.41048 69.3099 9.64746 69.1094C9.889 68.9089 10.1784 68.7516 10.5156 68.6377C10.8529 68.5238 11.2288 68.4668 11.6436 68.4668C12.236 68.4668 12.7419 68.5716 13.1611 68.7812C13.5804 68.9909 13.9017 69.2712 14.125 69.6221C14.3483 69.9684 14.46 70.3535 14.46 70.7773H13.1953C13.1953 70.5723 13.1338 70.374 13.0107 70.1826C12.8923 69.9867 12.7168 69.8249 12.4844 69.6973C12.2565 69.5697 11.9762 69.5059 11.6436 69.5059C11.2926 69.5059 11.0078 69.5605 10.7891 69.6699C10.5749 69.7747 10.4176 69.9092 10.3174 70.0732C10.2217 70.2373 10.1738 70.4105 10.1738 70.5928C10.1738 70.7295 10.1966 70.8525 10.2422 70.9619C10.2923 71.0667 10.3789 71.1647 10.502 71.2559C10.625 71.3424 10.7982 71.4245 11.0215 71.502C11.2448 71.5794 11.5296 71.6569 11.876 71.7344C12.4821 71.8711 12.9811 72.0352 13.373 72.2266C13.765 72.418 14.0566 72.6527 14.248 72.9307C14.4395 73.2087 14.5352 73.5459 14.5352 73.9424C14.5352 74.266 14.4668 74.5622 14.3301 74.8311C14.1979 75.0999 14.0042 75.3324 13.749 75.5283C13.4984 75.7197 13.1976 75.8701 12.8467 75.9795C12.5003 76.0843 12.1107 76.1367 11.6777 76.1367C11.026 76.1367 10.4746 76.0205 10.0234 75.7881C9.57227 75.5557 9.23047 75.2549 8.99805 74.8857C8.76562 74.5166 8.64941 74.127 8.64941 73.7168H9.9209C9.93913 74.0632 10.0394 74.3389 10.2217 74.5439C10.404 74.7445 10.6273 74.888 10.8916 74.9746C11.1559 75.0566 11.418 75.0977 11.6777 75.0977C12.0241 75.0977 12.3135 75.0521 12.5459 74.9609C12.7829 74.8698 12.9629 74.7445 13.0859 74.585C13.209 74.4255 13.2705 74.2432 13.2705 74.0381ZM17.4609 65.5V76H16.1963V65.5H17.4609ZM17.1602 72.0215L16.6338 72.001C16.6383 71.4951 16.7135 71.028 16.8594 70.5996C17.0052 70.1667 17.2103 69.7907 17.4746 69.4717C17.7389 69.1527 18.0534 68.9066 18.418 68.7334C18.7871 68.5557 19.195 68.4668 19.6416 68.4668C20.0062 68.4668 20.3343 68.5169 20.626 68.6172C20.9176 68.7129 21.166 68.8678 21.3711 69.082C21.5807 69.2962 21.7402 69.5742 21.8496 69.916C21.959 70.2533 22.0137 70.6657 22.0137 71.1533V76H20.7422V71.1396C20.7422 70.7523 20.6852 70.4424 20.5713 70.21C20.4574 69.973 20.291 69.8021 20.0723 69.6973C19.8535 69.5879 19.5846 69.5332 19.2656 69.5332C18.9512 69.5332 18.6641 69.5993 18.4043 69.7314C18.1491 69.8636 17.9281 70.0459 17.7412 70.2783C17.5589 70.5107 17.4154 70.7773 17.3105 71.0781C17.2103 71.3743 17.1602 71.6888 17.1602 72.0215ZM28.2686 74.7354V70.9277C28.2686 70.6361 28.2093 70.3831 28.0908 70.1689C27.9769 69.9502 27.8037 69.7816 27.5713 69.6631C27.3389 69.5446 27.0518 69.4854 26.71 69.4854C26.391 69.4854 26.1107 69.54 25.8691 69.6494C25.6322 69.7588 25.4453 69.9023 25.3086 70.0801C25.1764 70.2578 25.1104 70.4492 25.1104 70.6543H23.8457C23.8457 70.39 23.9141 70.1279 24.0508 69.8682C24.1875 69.6084 24.3835 69.3737 24.6387 69.1641C24.8984 68.9499 25.2083 68.7812 25.5684 68.6582C25.9329 68.5306 26.3385 68.4668 26.7852 68.4668C27.3229 68.4668 27.7969 68.5579 28.207 68.7402C28.6217 68.9225 28.9453 69.1982 29.1777 69.5674C29.4147 69.932 29.5332 70.39 29.5332 70.9414V74.3867C29.5332 74.6328 29.5537 74.8949 29.5947 75.1729C29.6403 75.4508 29.7064 75.6901 29.793 75.8906V76H28.4736C28.4098 75.8542 28.3597 75.6605 28.3232 75.4189C28.2868 75.1729 28.2686 74.945 28.2686 74.7354ZM28.4873 71.5156L28.501 72.4043H27.2227C26.8626 72.4043 26.5413 72.4339 26.2588 72.4932C25.9762 72.5479 25.7393 72.6322 25.5479 72.7461C25.3564 72.86 25.2106 73.0036 25.1104 73.1768C25.0101 73.3454 24.96 73.5436 24.96 73.7715C24.96 74.0039 25.0124 74.2158 25.1172 74.4072C25.222 74.5986 25.3792 74.7513 25.5889 74.8652C25.8031 74.9746 26.0651 75.0293 26.375 75.0293C26.7624 75.0293 27.1042 74.9473 27.4004 74.7832C27.6966 74.6191 27.9313 74.4186 28.1045 74.1816C28.2822 73.9447 28.3779 73.7145 28.3916 73.4912L28.9316 74.0996C28.8997 74.291 28.8132 74.5029 28.6719 74.7354C28.5306 74.9678 28.3415 75.1911 28.1045 75.4053C27.8721 75.6149 27.5941 75.7904 27.2705 75.9316C26.9515 76.0684 26.5915 76.1367 26.1904 76.1367C25.6891 76.1367 25.2493 76.0387 24.8711 75.8428C24.4974 75.6468 24.2057 75.3848 23.9961 75.0566C23.791 74.724 23.6885 74.3525 23.6885 73.9424C23.6885 73.5459 23.766 73.1973 23.9209 72.8965C24.0758 72.5911 24.2992 72.3382 24.5908 72.1377C24.8825 71.9326 25.2334 71.7777 25.6436 71.6729C26.0537 71.568 26.5117 71.5156 27.0176 71.5156H28.4873ZM32.7871 69.7656V76H31.5225V68.6035H32.7529L32.7871 69.7656ZM35.0977 68.5625L35.0908 69.7383C34.986 69.7155 34.8857 69.7018 34.79 69.6973C34.6989 69.6882 34.5941 69.6836 34.4756 69.6836C34.1839 69.6836 33.9264 69.7292 33.7031 69.8203C33.4798 69.9115 33.2907 70.0391 33.1357 70.2031C32.9808 70.3672 32.8577 70.5632 32.7666 70.791C32.68 71.0143 32.623 71.2604 32.5957 71.5293L32.2402 71.7344C32.2402 71.2878 32.2835 70.8685 32.3701 70.4766C32.4613 70.0846 32.6003 69.7383 32.7871 69.4375C32.974 69.1322 33.2109 68.8952 33.498 68.7266C33.7897 68.5534 34.1361 68.4668 34.5371 68.4668C34.6283 68.4668 34.7331 68.4782 34.8516 68.501C34.9701 68.5192 35.0521 68.5397 35.0977 68.5625ZM39.1992 76.1367C38.6842 76.1367 38.2171 76.0501 37.7979 75.877C37.3831 75.6992 37.0254 75.4508 36.7246 75.1318C36.4284 74.8128 36.2005 74.4346 36.041 73.9971C35.8815 73.5596 35.8018 73.0811 35.8018 72.5615V72.2744C35.8018 71.6729 35.8906 71.1374 36.0684 70.668C36.2461 70.194 36.4876 69.793 36.793 69.4648C37.0983 69.1367 37.4447 68.8883 37.832 68.7197C38.2194 68.5511 38.6204 68.4668 39.0352 68.4668C39.5638 68.4668 40.0195 68.5579 40.4023 68.7402C40.7897 68.9225 41.1064 69.1777 41.3525 69.5059C41.5986 69.8294 41.7809 70.2122 41.8994 70.6543C42.0179 71.0918 42.0771 71.5703 42.0771 72.0898V72.6572H36.5537V71.625H40.8125V71.5293C40.7943 71.2012 40.7259 70.8822 40.6074 70.5723C40.4935 70.2624 40.3112 70.0072 40.0605 69.8066C39.8099 69.6061 39.4681 69.5059 39.0352 69.5059C38.748 69.5059 38.4837 69.5674 38.2422 69.6904C38.0007 69.8089 37.7933 69.9867 37.6201 70.2236C37.4469 70.4606 37.3125 70.75 37.2168 71.0918C37.1211 71.4336 37.0732 71.8278 37.0732 72.2744V72.5615C37.0732 72.9124 37.1211 73.2428 37.2168 73.5527C37.3171 73.8581 37.4606 74.127 37.6475 74.3594C37.8389 74.5918 38.069 74.7741 38.3379 74.9062C38.6113 75.0384 38.9212 75.1045 39.2676 75.1045C39.7142 75.1045 40.0924 75.0133 40.4023 74.8311C40.7122 74.6488 40.9834 74.4049 41.2158 74.0996L41.9814 74.708C41.8219 74.9495 41.6191 75.1797 41.373 75.3984C41.127 75.6172 40.8239 75.7949 40.4639 75.9316C40.1084 76.0684 39.6868 76.1367 39.1992 76.1367Z" fill="#D0D0D0"/>
</svg>
