<svg width="75" height="75" viewBox="0 0 75 75" fill="none" xmlns="http://www.w3.org/2000/svg">
<circle cx="37.5" cy="37.5" r="37.5" fill="#3E3E3E"/>
<circle cx="37.5" cy="37.5" r="33" fill="#3E3E3E" stroke="#D0D0D0"/>
<g clip-path="url(#clip0_16_892)">
<path d="M53.1059 45.9891C53.1059 46.7711 52.7952 47.521 52.2423 48.0739C51.6894 48.6268 50.9395 48.9375 50.1575 48.9375H23.6225C22.8406 48.9375 22.0907 48.6268 21.5377 48.0739C20.9848 47.521 20.6742 46.7711 20.6742 45.9891V29.7733C20.6742 28.9914 20.9848 28.2414 21.5377 27.6885C22.0907 27.1356 22.8406 26.825 23.6225 26.825H29.5192L32.4675 22.4025H41.3125L44.2609 26.825H50.1575C50.9395 26.825 51.6894 27.1356 52.2423 27.6885C52.7952 28.2414 53.1059 28.9914 53.1059 29.7733V45.9891Z" stroke="#D0D0D0" stroke-width="2" stroke-linecap="round" stroke-linejoin="round"/>
<path d="M36.89 43.0408C40.1467 43.0408 42.7867 40.4007 42.7867 37.1441C42.7867 33.8875 40.1467 31.2474 36.89 31.2474C33.6334 31.2474 30.9933 33.8875 30.9933 37.1441C30.9933 40.4007 33.6334 43.0408 36.89 43.0408Z" stroke="#D0D0D0" stroke-width="2" stroke-linecap="round" stroke-linejoin="round"/>
</g>
<defs>
<clipPath id="clip0_16_892">
<rect width="35.38" height="35.38" fill="white" transform="translate(19.2 17.98)"/>
</clipPath>
</defs>
</svg>
