<svg width="50" height="50" viewBox="0 0 50 50" fill="none" xmlns="http://www.w3.org/2000/svg">
<circle cx="25" cy="25" r="25" fill="#3E3E3E"/>
<path d="M26.4996 24.5008L32.5877 18.4269C32.8543 18.1603 33.0041 17.7987 33.0041 17.4216C33.0041 17.0446 32.8543 16.683 32.5877 16.4164C32.3211 16.1498 31.9595 16 31.5825 16C31.2054 16 30.8438 16.1498 30.5772 16.4164L24.5033 22.5045L18.4293 16.4164C18.1627 16.1498 17.8011 16 17.4241 16C17.047 16 16.6854 16.1498 16.4188 16.4164C16.1522 16.683 16.0024 17.0446 16.0024 17.4216C16.0024 17.7987 16.1522 18.1603 16.4188 18.4269L22.5069 24.5008L16.4188 30.5748C16.2861 30.7064 16.1808 30.863 16.1089 31.0355C16.037 31.2081 16 31.3931 16 31.58C16 31.7669 16.037 31.952 16.1089 32.1245C16.1808 32.2971 16.2861 32.4537 16.4188 32.5853C16.5504 32.718 16.707 32.8233 16.8796 32.8952C17.0521 32.9671 17.2371 33.0041 17.4241 33.0041C17.611 33.0041 17.796 32.9671 17.9685 32.8952C18.1411 32.8233 18.2977 32.718 18.4293 32.5853L24.5033 26.4972L30.5772 32.5853C30.7088 32.718 30.8654 32.8233 31.038 32.8952C31.2105 32.9671 31.3955 33.0041 31.5825 33.0041C31.7694 33.0041 31.9544 32.9671 32.127 32.8952C32.2995 32.8233 32.4561 32.718 32.5877 32.5853C32.7204 32.4537 32.8257 32.2971 32.8976 32.1245C32.9695 31.952 33.0065 31.7669 33.0065 31.58C33.0065 31.3931 32.9695 31.2081 32.8976 31.0355C32.8257 30.863 32.7204 30.7064 32.5877 30.5748L26.4996 24.5008Z" fill="#D0D0D0"/>
</svg>
