<svg width="50" height="50" viewBox="0 0 50 50" fill="none" xmlns="http://www.w3.org/2000/svg">
<circle cx="25" cy="25" r="24.5" fill="#3E3E3E" stroke="#D0D0D0"/>
<path d="M17 19V31H33V19H17ZM17 17H33C33.5304 17 34.0391 17.2107 34.4142 17.5858C34.7893 17.9609 35 18.4696 35 19V31C35 31.5304 34.7893 32.0391 34.4142 32.4142C34.0391 32.7893 33.5304 33 33 33H17C16.4696 33 15.9609 32.7893 15.5858 32.4142C15.2107 32.0391 15 31.5304 15 31V19C15 18.4696 15.2107 17.9609 15.5858 17.5858C15.9609 17.2107 16.4696 17 17 17ZM20.5 24C20.8978 24 21.2794 23.842 21.5607 23.5607C21.842 23.2794 22 22.8978 22 22.5C22 22.1022 21.842 21.7206 21.5607 21.4393C21.2794 21.158 20.8978 21 20.5 21C20.1022 21 19.7206 21.158 19.4393 21.4393C19.158 21.7206 19 22.1022 19 22.5C19 22.8978 19.158 23.2794 19.4393 23.5607C19.7206 23.842 20.1022 24 20.5 24ZM20 27L22 25L24 27L28 23L31 26V29H20V27Z" fill="#D0D0D0"/>
</svg>
