<svg width="85" height="48" viewBox="0 0 85 48" fill="none" xmlns="http://www.w3.org/2000/svg">
<rect x="1.37146" y="0.778442" width="83.2" height="47.2217" rx="2.41642" fill="#3E3016"/>
<rect width="83.2" height="47.2217" rx="2.41642" fill="#F6CD45"/>
<path d="M49.1428 0.129761H36.7711L0.228577 12.7784V18.292L49.1428 0.129761Z" fill="#F8DE4D" stroke="#F8DE4D" stroke-width="0.172601"/>
<path d="M80.6857 0.129761H60.3359L0.228577 21.1808V30.3568L80.6857 0.129761Z" fill="#F8DE4D" stroke="#F8DE4D" stroke-width="0.172601"/>
<path d="M82.8572 34.4433V28.4757L45.6 47.2217H56.6857L82.8572 34.4433Z" fill="#E2BB40" stroke="#E3BB40" stroke-width="0.172601"/>
<circle cx="3.82707" cy="3.95665" r="1.88109" fill="#3F3016"/>
<circle cx="78.4525" cy="3.95665" r="1.88109" fill="#3F3016"/>
<circle cx="78.4525" cy="43.3948" r="1.88109" fill="#3F3016"/>
<circle cx="3.82707" cy="43.3948" r="1.88109" fill="#3F3016"/>
<g clip-path="url(#clip0_1_1434)">
<path d="M30.7871 21.0757C30.6008 19.4827 29.7915 17.909 28.5197 16.6244C28.1792 16.284 27.8003 15.9628 27.3507 15.6481C26.779 15.2563 26.1816 14.9223 25.6035 14.6011C25.4622 14.524 25.3145 14.4469 25.1732 14.3634C24.6208 14.0551 24.2804 13.644 24.1519 13.1302C24.0363 12.6484 24.0363 12.0061 24.2675 11.7107C24.4795 11.4409 24.9291 11.4409 25.5393 11.4666C25.6742 11.4666 25.8091 11.4794 25.9311 11.4794C26.1238 11.4794 26.3037 11.3702 26.3936 11.1968C26.4835 11.0234 26.4578 10.8178 26.3486 10.6637L25.2824 9.24415C25.186 9.11568 25.0319 9.0386 24.8713 9.0386L11.9671 9.02576C11.8065 9.02576 11.6524 9.10284 11.556 9.2313L10.4898 10.6444C10.3741 10.7986 10.3549 11.0105 10.4384 11.184C10.5219 11.3574 10.7017 11.4666 10.8944 11.4666C11.0165 11.4666 11.1513 11.4666 11.2927 11.4537C11.9029 11.428 12.3461 11.4345 12.5645 11.7042C12.8021 12.0061 12.8021 12.6484 12.6801 13.1238C12.5516 13.6312 12.2112 14.0487 11.6588 14.357C11.5175 14.4341 11.3762 14.5112 11.2348 14.5947C10.6503 14.9094 10.0466 15.2434 9.48132 15.6352C9.03169 15.9435 8.65273 16.2647 8.3123 16.6051C7.03408 17.8833 6.22476 19.4634 6.03848 21.0564C5.81367 22.9512 6.66153 24.6791 7.52867 26.1179C7.65071 26.3234 7.77275 26.5225 7.90121 26.7217L7.97829 26.8437C8.02325 26.9208 8.06821 26.9914 8.1196 27.0621L8.87111 28.1797C9.06381 28.4623 9.26293 28.7321 9.46847 29.0212C9.68686 29.3231 9.9181 29.6442 10.1814 30.0232L10.2071 30.0553C10.2585 30.126 10.3099 30.203 10.3677 30.2801L11.0486 31.1858C11.1963 31.3785 11.344 31.5712 11.4918 31.7574C11.9864 32.3933 12.4553 32.9971 12.7379 33.4339C12.7379 33.4467 12.7507 33.4596 12.7636 33.466C12.7636 33.4724 13.1939 34.0634 13.1747 34.7185C13.1747 34.8598 13.2196 34.9883 13.316 35.0911C13.4123 35.1874 13.5472 35.2452 13.6885 35.2452H23.137C23.2783 35.2517 23.4068 35.1939 23.5032 35.0975C23.5995 34.9947 23.6509 34.8663 23.6445 34.725C23.6316 34.0698 24.0555 33.4853 24.062 33.4789C24.0684 33.466 24.0812 33.4596 24.0877 33.4467C24.3639 33.01 24.8392 32.4062 25.3402 31.7703C25.4879 31.584 25.6357 31.3913 25.7834 31.1986L26.4642 30.293C26.5285 30.2095 26.5799 30.1324 26.6441 30.0425C26.9074 29.6699 27.1387 29.3487 27.3571 29.0469C27.5626 28.7578 27.7617 28.488 27.9609 28.199L28.7059 27.0878C28.7573 27.0171 28.8023 26.9465 28.8473 26.8694L28.9308 26.7409C29.0528 26.5418 29.1813 26.3427 29.2969 26.1436C30.164 24.7048 31.0183 22.9834 30.7935 21.0821L30.7871 21.0757ZM29.1684 19.2258C28.783 19.958 28.3141 20.8059 27.8774 21.4932C27.6268 21.1463 27.3763 20.8059 27.1194 20.459C27.2158 20.3049 27.3121 20.1507 27.4085 19.9966C27.781 19.4121 28.1535 18.8147 28.494 18.1724C28.7573 18.5128 28.9821 18.8597 29.1684 19.2258ZM27.7617 17.3566C27.402 18.0889 26.9781 18.7569 26.5413 19.4506C26.5092 19.502 26.4771 19.547 26.4514 19.5983C26.1752 19.2515 25.8926 18.9111 25.5971 18.577C26.0339 17.9347 26.4514 17.2153 26.8304 16.5216C27.1644 16.7786 27.5048 17.0804 27.7617 17.3566ZM24.6786 15.2627C24.8263 15.3398 24.9676 15.4233 25.1154 15.5068C25.3852 15.6545 25.7192 15.8343 25.9697 15.9821C25.6742 16.5923 25.2952 17.1768 24.9291 17.7677C24.2739 17.0548 23.5096 16.3803 22.7838 15.6866C23.0985 15.4297 23.5032 15.0957 23.9785 14.7552C24.184 14.9479 24.4088 15.1214 24.6786 15.2627ZM18.2747 17.9668C17.0478 19.1102 15.8724 20.337 14.7548 21.6216C14.485 21.2876 14.2216 20.9536 13.9647 20.6068C14.8254 19.624 15.7182 18.6734 16.6239 17.787C18.962 15.5132 21.0559 13.7982 23.06 12.3851C23.0407 12.7576 23.0921 13.0595 23.1691 13.3807C23.2141 13.567 23.2848 13.7532 23.3747 13.9267C22.7838 14.2992 22.2699 14.6525 21.9166 14.9223C20.7926 15.7894 19.4887 16.8299 18.2811 17.9604L18.2747 17.9668ZM18.371 19.2964C19.4052 20.2663 20.42 21.3133 21.3707 22.3796C20.4457 23.4715 19.4308 24.4864 18.371 25.4434C17.4204 24.6084 16.4441 23.5807 15.3971 22.3796C16.3413 21.2876 17.3433 20.292 18.371 19.29V19.2964ZM24.6401 10.0599L24.6593 10.0792C21.9359 11.6914 19.1225 13.9202 15.8981 17.0548C15.0181 17.909 14.1574 18.8147 13.3288 19.7653C13.0783 19.4056 12.8214 19.0459 12.5837 18.6734C13.4894 17.6521 14.4336 16.6694 15.4035 15.7508C16.5147 14.691 17.6902 13.6697 18.8913 12.7255C20.0924 11.7813 21.3385 10.8885 22.6232 10.0599H24.6465H24.6401ZM14.7483 14.9608C14.3116 14.6396 13.8684 14.3313 13.4252 14.023C13.5344 13.8175 13.6243 13.6055 13.6821 13.3807C13.7527 13.0916 13.7977 12.7641 13.7977 12.4301C14.4208 12.8925 15.0888 13.4064 15.821 13.978C15.4613 14.3056 15.1016 14.6332 14.7548 14.9608H14.7483ZM20.7733 10.0599C19.9704 10.6187 19.1803 11.1968 18.416 11.7942C17.5938 11.1326 16.8166 10.5545 16.1101 10.0535H20.7733V10.0599ZM12.2048 10.0856L12.224 10.0599H14.273C15.2108 10.6701 16.3477 11.4666 17.5938 12.4557C17.2598 12.7319 16.9258 13.0081 16.5982 13.2908C14.8511 11.9226 13.4573 10.8756 12.2048 10.0792V10.0856ZM11.7294 15.4939C11.8707 15.4168 12.0185 15.3333 12.1598 15.2563C12.3846 15.1278 12.5901 14.9865 12.77 14.8259C13.1875 15.1085 13.5986 15.3911 14.0032 15.6866C13.316 16.3675 12.6415 17.0804 11.9864 17.8127C11.5753 17.1639 11.2092 16.5537 10.8816 15.9692C11.1513 15.8087 11.434 15.6545 11.7294 15.4939ZM10.0144 16.5152C10.387 17.1832 10.8109 17.8769 11.2927 18.6284C12.2947 20.1957 13.1939 21.4225 14.0996 22.4952C15.3521 23.9661 16.4633 25.1287 17.5681 26.1115C17.2534 26.3812 16.913 26.6574 16.5918 26.9144C16.3541 26.6895 16.1293 26.4519 15.8981 26.2271C12.7443 23.1761 10.6568 20.2278 9.03169 17.3374C9.31431 17.0548 9.6419 16.7786 10.0144 16.5152ZM8.32514 18.1467C9.9759 21.0114 12.0827 23.9211 15.1658 26.9272C15.3714 27.1263 15.5705 27.3319 15.7696 27.531C15.4356 27.7751 15.0952 28.0127 14.7419 28.2504C13.8362 27.4218 12.9691 26.5418 12.1662 25.6426C11.7872 25.2122 11.4468 24.8075 11.1321 24.4222C10.4448 23.5743 9.78963 22.6879 9.18585 21.7758C8.63988 20.9472 8.12602 20.0993 7.65071 19.2322C7.83698 18.8532 8.06179 18.4935 8.31872 18.1403L8.32514 18.1467ZM7.44516 23.6899C7.13043 22.887 6.95058 22.0392 7.05335 21.172C7.07904 20.9472 7.124 20.7224 7.18181 20.4976C7.54794 21.1271 7.9269 21.7437 8.33157 22.3475C8.33157 22.3539 8.34441 22.3603 8.34441 22.3732C8.0361 22.8099 7.73421 23.2531 7.44516 23.6963V23.6899ZM8.6463 25.9766C8.56922 25.8481 8.48572 25.7196 8.40864 25.5912C8.25449 25.3342 8.10033 25.0709 7.9526 24.7947C8.28018 24.2808 8.60776 23.7798 8.96104 23.2788C9.20512 23.6257 9.46847 23.979 9.74467 24.3387C9.34001 24.9167 8.97389 25.4627 8.6463 25.983V25.9766ZM10.0144 28.0191C9.91167 27.8778 9.81532 27.7429 9.71898 27.6016L9.26293 26.9208C9.60336 26.3748 9.98233 25.7903 10.4127 25.1672C10.5476 25.3342 10.6825 25.4884 10.8173 25.649C10.8687 25.7068 10.9137 25.7646 10.9651 25.8224C11.055 25.9316 11.1449 26.0408 11.2348 26.1436C10.8109 26.7602 10.3998 27.3832 10.008 28.0191H10.0144ZM11.1835 29.6635C11.1321 29.5928 11.0871 29.5286 11.0357 29.4579L11.0165 29.4322C10.888 29.2524 10.7724 29.0854 10.6568 28.9248C11.0678 28.2504 11.4918 27.5888 11.9414 26.9272C12.5709 27.6016 13.226 28.2504 13.9133 28.8799C13.1747 29.3616 12.4039 29.8176 11.6267 30.2544L11.1835 29.6635ZM13.0462 32.1107C12.815 31.8024 12.558 31.4684 12.2883 31.128L12.2497 31.083C13.0976 30.6141 13.9197 30.1195 14.7226 29.5864C16.0394 28.7129 17.3048 27.7494 18.4866 26.7152C19.7392 25.6233 20.921 24.4286 22.013 23.1632C22.3149 23.5165 22.6039 23.8826 22.893 24.2487C22.5011 24.6727 22.0708 25.0773 21.6533 25.4948C18.6279 28.5202 15.7118 30.5948 13.0462 32.1107ZM13.6371 32.9522C16.3541 31.4042 19.3152 29.2717 22.3534 26.2463C22.7452 25.8545 23.1499 25.4756 23.5224 25.0773C23.7537 25.3856 23.9849 25.6939 24.2097 26.0151C23.4646 26.8565 22.681 27.6659 21.8717 28.4238C21.8395 28.4431 21.8139 28.4623 21.7882 28.488C21.2807 28.9505 20.7283 29.4451 20.1567 29.9333C19.4244 30.537 18.6601 31.1215 17.8829 31.6611C16.6689 32.509 15.3907 33.2733 14.0803 33.9606C13.9519 33.4917 13.7399 33.1256 13.6307 32.9586L13.6371 32.9522ZM15.7439 34.2175C16.6368 33.7037 17.5103 33.1577 18.3646 32.5732C19.2446 33.1513 20.1567 33.6908 21.1715 34.224H15.7439V34.2175ZM23.2205 32.8751C23.1563 32.965 22.8994 33.344 22.7452 33.8643C21.4413 33.2348 20.3237 32.6182 19.2767 31.9437C19.6557 31.6675 20.0025 31.4042 20.3686 31.1023C21.4285 31.751 22.4048 32.3034 23.2848 32.7723C23.2591 32.8173 23.2462 32.8301 23.2205 32.8751ZM24.518 31.128C24.3061 31.3977 24.0877 31.6868 23.895 31.9373C23.0792 31.5069 22.1736 30.9995 21.1972 30.4086C21.5312 30.126 21.8845 29.8048 22.2121 29.5093C23.0086 30.0103 23.8307 30.4857 24.6722 30.9289C24.6208 30.9931 24.5694 31.0637 24.518 31.128ZM25.7898 29.4451C25.7384 29.5222 25.6806 29.5928 25.6292 29.6699L25.2824 30.1838C24.4923 29.7663 23.7023 29.3487 22.9443 28.8799C23.5931 28.2504 24.3125 27.6016 24.9163 26.9272C25.3852 27.5952 25.7705 28.1733 26.2009 28.867C26.0724 29.0469 25.9311 29.2396 25.7898 29.4515V29.4451ZM27.1001 27.6081C27.0166 27.7301 26.9331 27.8457 26.8432 27.9678C26.4257 27.2997 25.9889 26.6382 25.5393 25.9958C24.6401 24.7176 23.6702 23.4651 22.6553 22.2832C21.5441 20.9922 20.3558 19.7525 19.1225 18.5899C19.4501 18.288 19.7713 18.0118 20.1246 17.7099C20.6577 18.2174 21.1908 18.7633 21.6147 19.2001C24.2033 21.8721 26.0339 24.1524 27.659 26.773L27.1066 27.6081H27.1001ZM28.4105 25.604C28.3784 25.6683 28.3077 25.7646 28.2692 25.8224C26.6184 23.221 24.8456 21.0628 22.347 18.4871C21.9423 18.0696 21.4349 17.5493 20.9146 17.0483C21.2422 16.785 21.5955 16.4895 21.9359 16.2197C22.9315 17.1639 23.8693 18.1338 24.73 19.1038C25.6742 20.1636 26.4771 21.2812 27.3378 22.4695L27.5626 22.7842C27.9287 23.2852 28.4105 24.0239 28.8858 24.7819C28.7381 25.0709 28.5775 25.3407 28.4169 25.604H28.4105ZM29.3932 23.7156C29.0592 23.1953 28.8087 22.765 28.5325 22.3796C28.8794 21.7822 29.2648 21.1206 29.6245 20.4526C29.7015 20.7288 29.7337 20.9087 29.7658 21.1913C29.8621 22.0456 29.6887 22.9256 29.3868 23.7156H29.3932Z" fill="#73623F"/>
<path d="M42.2076 16.5665V9.28906H40.9036V14.1964L37.7948 9.28906H36.5423V16.5665H37.8398V11.6721L40.9422 16.5665H42.2076Z" fill="#73623F"/>
<path d="M48.5922 16.5728V11.203H47.2947V11.8389L47.2369 11.7811C46.7488 11.293 46.1964 11.0553 45.554 11.0553C44.1152 11.0553 43.0297 12.2757 43.0297 13.8879C43.0297 15.5001 44.1538 16.7141 45.5862 16.7141C46.2285 16.7141 46.7423 16.4957 47.2433 16.0076L47.3012 15.9562V16.5728H48.5986H48.5922ZM45.8302 15.5323C44.9631 15.5323 44.3336 14.8386 44.3336 13.8815C44.3336 12.9244 44.9503 12.2436 45.8302 12.2436C46.7102 12.2436 47.3525 12.9116 47.3525 13.8751C47.3525 14.8386 46.7231 15.5323 45.8302 15.5323Z" fill="#73623F"/>
<path d="M52.2405 11.1967H51.4312V9.19263H50.1337V11.1967H49.44V12.3015H50.1337V16.5665H51.4312V12.3015H52.2405V11.1967Z" fill="#73623F"/>
<path d="M54.3281 11.203H53.0306V16.5728H54.3281V11.203Z" fill="#73623F"/>
<path d="M53.6794 9C53.2426 9 52.8829 9.34043 52.8829 9.75794C52.8829 10.2333 53.2426 10.6251 53.6794 10.6251C54.1161 10.6251 54.4758 10.2654 54.4758 9.82859C54.4758 9.39181 54.1161 9 53.6794 9" fill="#73623F"/>
<path d="M57.9252 11.0553C56.39 11.0553 55.1439 12.3271 55.1439 13.8879C55.1439 15.4488 56.3707 16.7077 57.9316 16.7077C59.4924 16.7077 60.7771 15.4616 60.7771 13.8751C60.7771 12.2886 59.5245 11.0553 57.9187 11.0553M57.938 15.4873C57.058 15.4873 56.4414 14.8257 56.4414 13.8815C56.4414 12.9373 57.0709 12.2821 57.938 12.2821C58.8051 12.2821 59.4667 12.9437 59.4667 13.8879C59.4667 14.8321 58.8373 15.4809 57.938 15.4809" fill="#73623F"/>
<path d="M63.9565 12.2436C64.8365 12.2436 64.9072 13.0208 64.9072 14.0357V16.5728H66.2047V12.8859C66.2047 11.8068 65.4467 11.0553 64.374 11.0553C63.8345 11.0553 63.3592 11.2608 62.7939 11.7426L62.7426 11.7875V11.1966H61.4451V16.5664H62.7426V14.2284C62.7426 13.6824 62.7426 13.2071 63.0123 12.7767C63.2371 12.4299 63.5711 12.2372 63.963 12.2372" fill="#73623F"/>
<path d="M72.3837 16.5728V11.203H71.0862V11.8389L71.0284 11.7811C70.5403 11.293 69.9879 11.0553 69.3391 11.0553C67.9003 11.0553 66.8148 12.2757 66.8148 13.8879C66.8148 15.5001 67.9389 16.7141 69.3713 16.7141C70.0136 16.7141 70.5274 16.4957 71.022 16.0076L71.0798 15.9562V16.5728H72.3773H72.3837ZM69.6218 15.5323C68.7546 15.5323 68.1252 14.8386 68.1252 13.8815C68.1252 12.9244 68.7418 12.2436 69.6218 12.2436C70.5017 12.2436 71.1505 12.9116 71.1505 13.8751C71.1505 14.8386 70.521 15.5323 69.6218 15.5323Z" fill="#73623F"/>
<path d="M74.6768 9.10266H73.3793V16.5728H74.6768V9.10266Z" fill="#73623F"/>
<path d="M41.9827 25.8287V18.609H40.6402V21.3517H37.8783V18.609H36.5358V25.8287H37.8783V22.6428H40.6402V25.8287H41.9827Z" fill="#73623F"/>
<path d="M48.1747 23.4074C48.1747 23.3624 48.1811 23.3175 48.1811 23.2532C48.1811 21.5511 47.0185 20.3628 45.3549 20.3628C43.5564 20.3628 42.5865 21.8016 42.5865 23.1633C42.5865 24.7884 43.7555 25.9702 45.3742 25.9702C46.4854 25.9702 47.2369 25.617 47.8021 24.8333L46.723 24.3195C46.3376 24.692 45.9458 24.8398 45.3742 24.8398C44.552 24.8398 43.9611 24.3516 43.8326 23.568V23.5294H48.1747C48.1747 23.4845 48.1747 23.4459 48.1747 23.4074ZM43.8776 22.5274L43.8968 22.4824C44.1602 21.808 44.674 21.4483 45.3742 21.4483C46.1192 21.4483 46.6973 21.8466 46.8836 22.4824L46.8965 22.521H43.8776V22.5274Z" fill="#73623F"/>
<path d="M54.3603 20.5105H53.0756V25.8289H54.3603V20.5105Z" fill="#73623F"/>
<path d="M53.7179 18.3201C53.2747 18.3201 52.9214 18.6605 52.9214 19.078C52.9214 19.5533 53.2747 19.9451 53.7179 19.9451C54.1611 19.9451 54.5144 19.5854 54.5144 19.1487C54.5144 18.7119 54.1547 18.3201 53.7179 18.3201Z" fill="#73623F"/>
<path d="M57.97 20.5102H57.1671V18.519H55.8825V20.5102H55.1952V21.6022H55.8825V25.8286H57.1671V21.6022H57.97V20.5102Z" fill="#73623F"/>
<path d="M63.7189 25.8286V20.5102H62.4663V21.1397L62.415 21.0883C61.9396 20.6066 61.4065 20.3689 60.7835 20.3689C59.3896 20.3689 58.3427 21.5765 58.3427 23.1758C58.3427 24.7752 59.4282 25.9699 60.8092 25.9699C61.4322 25.9699 61.9268 25.758 62.4085 25.2698L62.4599 25.2184V25.8286H63.7124H63.7189ZM61.0982 24.7945C60.2632 24.7945 59.653 24.1072 59.653 23.163C59.653 22.2188 60.2439 21.5379 61.0982 21.5379C61.9525 21.5379 62.5691 22.1995 62.5691 23.1501C62.5691 24.1008 61.9653 24.7945 61.0982 24.7945Z" fill="#73623F"/>
<path d="M67.0846 27.929C67.8875 27.929 68.5042 27.7363 68.973 27.3381C69.5319 26.8499 69.7567 26.1947 69.7567 25.0899V20.5102H68.5042V21.1397L68.4528 21.0883C67.9325 20.5873 67.4315 20.3689 66.8149 20.3689C65.4339 20.3689 64.3933 21.5379 64.3933 23.0923C64.3933 24.6467 65.466 25.8286 66.8791 25.8286C67.5214 25.8286 67.9839 25.6295 68.4463 25.167L68.4977 25.1156V25.1927C68.4977 25.6616 68.4977 26.0663 68.1637 26.3874C67.9132 26.6187 67.5086 26.7536 67.0268 26.7536C66.4616 26.7536 66.0698 26.6058 65.8 26.2847H64.3997C64.7659 27.3702 65.6587 27.9226 67.0782 27.9226M67.1424 24.6467C66.2882 24.6467 65.6715 23.9916 65.6715 23.0988C65.6715 22.2059 66.2817 21.5379 67.1232 21.5379C67.9646 21.5379 68.5877 22.1867 68.5877 23.1116C68.5877 24.0365 67.9903 24.6532 67.1424 24.6532" fill="#73623F"/>
<path d="M75.9936 23.4074C75.9936 23.3624 76 23.3175 76 23.2532C76 21.5511 74.8374 20.3628 73.1738 20.3628C71.3753 20.3628 70.4054 21.8016 70.4054 23.1633C70.4054 24.7884 71.5744 25.9702 73.1931 25.9702C74.3043 25.9702 75.0494 25.617 75.621 24.8333L74.5419 24.3195C74.1501 24.692 73.7647 24.8398 73.1931 24.8398C72.3709 24.8398 71.78 24.3516 71.6515 23.568V23.5294H75.9936C75.9936 23.4845 75.9936 23.4459 75.9936 23.4074ZM71.6965 22.5274L71.7157 22.4824C71.9791 21.808 72.4929 21.4483 73.1931 21.4483C73.9382 21.4483 74.5162 21.8466 74.7025 22.4824L74.7154 22.521H71.6965V22.5274Z" fill="#73623F"/>
<path d="M44.886 29.5928C43.3509 29.5928 42.1048 30.8646 42.1048 32.4254C42.1048 33.9862 43.3316 35.2516 44.8925 35.2516C46.4533 35.2516 47.7379 34.0055 47.7379 32.419C47.7379 30.8324 46.4854 29.5928 44.8796 29.5928M44.8989 34.0248C44.0189 34.0248 43.4023 33.3632 43.4023 32.419C43.4023 31.4748 44.0318 30.8196 44.8989 30.8196C45.766 30.8196 46.4276 31.4812 46.4276 32.4254C46.4276 33.3696 45.7981 34.0248 44.8989 34.0248Z" fill="#73623F"/>
<path d="M53.7886 35.1103V29.7405H52.4911V30.3764L52.4333 30.3186C51.9451 29.8304 51.3927 29.5928 50.744 29.5928C49.3052 29.5928 48.2197 30.8132 48.2197 32.4254C48.2197 34.0376 49.3437 35.2516 50.7761 35.2516C51.4184 35.2516 51.9323 35.0332 52.4269 34.5451L52.4847 34.4937V35.1103H53.7822H53.7886ZM51.0266 34.0697C50.1595 34.0697 49.53 33.376 49.53 32.4254C49.53 31.4748 50.1466 30.7875 51.0266 30.7875C51.9066 30.7875 52.5489 31.4619 52.5489 32.419C52.5489 33.376 51.9194 34.0762 51.0266 34.0762" fill="#73623F"/>
<path d="M64.1299 35.1103V27.6401H62.8324V30.3764L62.781 30.3186C62.2929 29.8304 61.7405 29.5928 61.0982 29.5928C59.6594 29.5928 58.5739 30.8132 58.5739 32.4254C58.5739 34.0376 59.6979 35.2516 61.1303 35.2516C61.7726 35.2516 62.2865 35.0332 62.7875 34.5451L62.8389 34.4937V35.1103H64.1363H64.1299ZM61.3679 34.0698C60.5008 34.0698 59.8713 33.3761 59.8713 32.4254C59.8713 31.4748 60.488 30.7875 61.3679 30.7875C62.2479 30.7875 62.8902 31.4619 62.8902 32.419C62.8902 33.3761 62.2608 34.0762 61.3679 34.0762" fill="#73623F"/>
<path d="M40.3191 31.3399L40.2099 31.3142L40.3127 31.2821C40.9357 31.0701 41.3596 30.447 41.3596 29.7341C41.3596 28.5522 40.4925 27.7878 39.1501 27.7878H36.5358V35.0782H39.3492C40.6852 35.0782 41.5909 34.2624 41.5909 33.0549C41.5909 32.2198 41.077 31.5326 40.3191 31.3399ZM37.8911 28.9247H38.9317C39.6254 28.9247 40.0172 29.2716 40.0172 29.869C40.0172 30.4663 39.6061 30.826 38.9381 30.826H37.8911V28.9247ZM39.0794 33.9477H37.8911V31.9437H39.1051C39.8052 31.9437 40.2292 32.3226 40.2292 32.9585C40.2292 33.5944 39.7924 33.9413 39.0858 33.9413L39.0794 33.9477Z" fill="#73623F"/>
<path d="M50.0503 25.8289H48.772V20.5105H50.0503V21.3776C50.4485 20.7738 50.8082 20.4205 51.701 20.4205C51.913 20.4205 52.1506 20.4783 52.3305 20.5361L52.3048 21.6795C52.0479 21.5446 51.7974 21.5253 51.5725 21.5317C50.7953 21.5639 50.0503 21.9942 50.0503 23.934V25.8289Z" fill="#73623F"/>
<path d="M56.101 35.1103H54.8163V29.7405H56.101V30.6076C56.5185 29.9589 56.9039 29.6698 57.6554 29.6506C57.8866 29.6441 58.3876 29.7405 58.6831 29.9589L58.1179 30.9545C57.9509 30.8132 57.6426 30.7746 57.3856 30.8132C56.5185 30.9545 56.101 31.7124 56.101 33.1769V35.1167V35.1103Z" fill="#73623F"/>
</g>
<defs>
<clipPath id="clip0_1_1434">
<rect width="70" height="26.2516" fill="white" transform="translate(6 9)"/>
</clipPath>
</defs>
</svg>
